<svg width="174" height="167" viewBox="0 0 174 167" fill="none" xmlns="http://www.w3.org/2000/svg">
<g clip-path="url(#clip0_22_101)">
<path d="M157.873 100.133C157.883 110.212 155.619 120.162 151.253 129.236C146.886 138.311 140.53 146.273 132.661 152.526C132.461 152.687 132.26 152.848 132.06 153.005C132.02 153.035 131.98 153.07 131.939 153.1C131.744 153.252 131.549 153.408 131.348 153.559C121.505 161.026 109.782 165.582 97.4989 166.713C97.2832 166.734 97.0626 166.754 96.842 166.774C96.7417 166.779 96.6465 166.789 96.5462 166.794H96.5413C96.3156 166.814 96.09 166.829 95.8644 166.839C94.3555 166.945 92.8415 167.001 91.3125 167.001C80.3637 167.017 69.5814 164.307 59.9298 159.114L59.9198 159.109L59.4836 155.941L55.1126 153.951L56.0602 156.857C42.5962 148.401 32.5773 135.397 27.8058 120.183C27.6905 119.82 27.5801 119.452 27.4699 119.085C27.4549 119.029 27.4398 118.979 27.4247 118.924C27.3144 118.566 27.2144 118.198 27.114 117.831C24.1425 106.876 23.9785 95.3444 26.6372 84.3091C26.6972 84.0372 26.7675 83.7651 26.8376 83.4932C29.5115 73.0786 34.6414 63.4635 41.7938 55.4603C48.9462 47.457 57.911 41.3009 67.9309 37.5118C68.7028 38.2975 69.4615 39.1 70.2069 39.9192C70.5026 40.2415 70.7935 40.5639 71.0842 40.8913C74.2258 39.6222 77.446 38.559 80.7246 37.7083C81.632 37.4715 82.5377 37.2566 83.4418 37.0637L83.6222 33.7145C86.1751 33.419 88.7427 33.271 91.3125 33.2713C105.807 33.2477 119.909 37.9996 131.458 46.7987C131.724 46.9952 131.98 47.1965 132.24 47.4031C142.549 55.4798 150.266 66.4223 154.434 78.8699L153.406 80.1994L154.87 85.3113L155.943 84.0824C157.23 89.3346 157.878 94.7242 157.873 100.133Z" fill="url(#paint0_linear_22_101)" style="mix-blend-mode:screen"/>
<g style="mix-blend-mode:multiply">
<path d="M29.7185 105.555C30.0914 102.697 30.7653 99.8869 31.7288 97.1717C32.228 103.759 34.1562 110.158 37.3782 115.917C42.0026 124.835 48.6997 133.201 57.9586 137.021C71.2185 142.493 86.1413 139.011 98.7497 133.416C111.31 127.843 124.214 119.869 133.815 109.935C139.276 104.219 142.991 97.0481 144.518 89.2744C146.044 81.5006 145.319 73.45 142.429 66.0778C149.193 78.477 155.059 91.1245 153.897 105.216C152.812 118.387 145.473 130.551 135.484 139.151C125.494 147.751 113.036 153.05 100.275 156.263C88.0079 159.352 74.8199 160.572 62.8747 156.401C42.0685 149.135 26.8691 127.423 29.7185 105.555Z" fill="url(#paint1_linear_22_101)" style="mix-blend-mode:screen"/>
</g>
<path style="mix-blend-mode:screen" d="M106.518 68.2685C101.62 78.8091 91.7537 86.6408 82.108 92.5636C73.5805 97.8064 64.271 102.47 54.2796 102.903C48.8002 103.145 42.9096 101.881 39.1045 97.9071C35.6605 94.3111 34.4627 89.0633 34.4374 84.0725C34.3577 70.0413 42.2331 57.5915 53.2121 49.0752C58.3322 45.0972 64.0756 42.003 70.2069 39.9192C70.5026 40.2415 70.7935 40.5638 71.0842 40.8913C74.2258 39.6222 77.446 38.559 80.7245 37.7083C92.3853 37.0989 105.791 42.7998 108.402 55.1692C109.195 59.6255 108.534 64.2201 106.518 68.2685Z" fill="url(#paint2_linear_22_101)"/>
<path style="mix-blend-mode:screen" d="M102.512 86.5623L102.747 87.3482C97.578 88.9551 92.7621 91.5381 88.5573 94.9585C84.3552 98.3508 80.822 102.503 78.1401 107.201C76.8156 109.545 75.718 112.011 74.8624 114.565C73.9777 117.11 73.3115 119.727 72.8711 122.387C72.0006 127.764 72.1423 133.258 73.289 138.583L73.3947 139.054L72.9514 139.213C70.3042 140.112 67.505 140.472 64.7177 140.271C61.9304 140.07 59.211 139.312 56.7187 138.043L57.0974 137.315C61.7864 139.61 67.1806 139.981 72.1372 138.35C70.9668 133.043 70.7672 127.567 71.5482 122.189C71.9095 119.426 72.5437 116.707 73.4414 114.07C74.3663 111.442 75.5403 108.909 76.9473 106.506C77.2839 105.933 77.1274 106.006 77.4896 105.45C75.1436 104.535 72.8458 103.5 70.605 102.349L68.7578 101.365L66.9378 100.33C66.3426 99.965 65.7426 99.6071 65.1378 99.2559C64.5432 98.8888 63.9517 98.515 63.3746 98.1201C61.1064 96.4856 58.9345 94.7205 56.8696 92.8335C54.8168 90.943 52.8636 88.9462 51.018 86.8511L51.621 86.2973C53.5112 88.3012 55.5214 90.1872 57.6405 91.9447C59.7473 93.7064 61.947 95.3529 64.23 96.8771C64.8012 97.2557 65.3579 97.6555 65.9116 98.0616C66.4752 98.4525 67.0445 98.8356 67.6192 99.211L69.3674 100.299L71.146 101.338C73.3627 102.589 75.6431 103.723 77.9778 104.735C80.738 100.717 84.0743 97.1324 87.8784 94.0956C92.2471 90.6914 97.2101 88.1365 102.512 86.5623ZM148.528 118.359C148.217 114.134 147.221 109.989 145.581 106.086L145.305 105.426L144.763 105.874C141.857 108.308 138.671 110.382 135.273 112.054L135.629 112.794C138.894 111.244 141.985 109.348 144.849 107.138C146.196 110.765 146.992 114.575 147.21 118.44C147.318 120.477 147.243 122.52 146.984 124.544C146.71 126.557 146.263 128.542 145.646 130.477C144.391 134.373 142.433 138.004 139.871 141.189C137.313 144.398 134.204 147.122 130.691 149.232L130.271 149.484L130.541 149.887C131.013 150.616 131.39 151.403 131.664 152.228C131.76 152.515 131.855 152.808 131.94 153.1C131.98 153.069 132.02 153.034 132.06 153.004C132.261 152.848 132.461 152.687 132.662 152.525C132.607 152.334 132.547 152.142 132.487 151.951C132.25 151.201 131.938 150.477 131.554 149.79C135.054 147.721 138.172 145.062 140.773 141.929C143.481 138.663 145.598 134.945 147.03 130.945C147.734 128.932 148.199 126.843 148.414 124.72C148.645 122.608 148.683 120.479 148.528 118.359ZM135.836 77.3456L129.237 80.3955L125.937 81.9206C125.05 82.3284 124.165 82.7402 123.273 83.1392C122.672 81.9765 121.983 80.863 121.31 79.7416C120.513 78.4367 119.702 77.1417 118.862 75.8652C117.183 73.3124 115.416 70.8217 113.608 68.3657L112.944 68.8438C114.67 71.3391 116.286 73.9085 117.831 76.5155C118.604 77.819 119.366 79.1286 120.103 80.4522C120.85 81.7698 121.525 83.1264 122.316 84.419L122.69 85.03L123.262 84.72C124.327 84.1424 125.411 83.6013 126.489 83.0473L129.724 81.392L136.196 78.0813L135.836 77.3456ZM131.789 47.2736C131.448 47.4549 131.117 47.6464 130.786 47.8478C129.648 48.5436 128.576 49.3426 127.583 50.2349C124.902 48.6615 122.093 47.3187 119.186 46.2211L116.9 45.4002C116.129 45.1584 115.361 44.9071 114.579 44.6851C113.797 44.4885 113.005 44.3174 112.218 44.1356L109.832 43.6975C106.643 43.1721 103.413 42.9344 100.181 42.9873C96.9564 43.0382 93.7415 43.3634 90.5711 43.9594L90.7165 44.7701C93.8423 44.2523 97.009 44.0247 100.176 44.0903C103.336 44.1555 106.485 44.4823 109.591 45.0673L111.907 45.5604C112.669 45.7567 113.431 45.9633 114.198 46.1446C114.95 46.3662 115.717 46.5575 116.479 46.759L118.74 47.4692C121.73 48.5013 124.624 49.7956 127.388 51.3369L127.734 51.5334L128.01 51.2665C129.369 49.9318 130.904 48.7913 132.572 47.877C132.311 47.6715 132.055 47.4701 131.789 47.2736ZM62.9615 51.3733C64.3436 50.3777 65.7693 49.4546 67.2386 48.6038C67.6052 48.3911 67.9611 48.161 68.3093 47.9153C68.6668 47.6858 69.0314 47.4679 69.397 47.2509L70.5102 46.6291L71.6419 46.0391C73.1656 45.2723 74.7326 44.5957 76.3349 44.0128L76.0813 43.2329C74.4092 43.7242 72.767 44.3133 71.1633 44.9971L69.9657 45.5281L68.7828 46.0941C68.013 46.5069 67.2001 46.8491 66.4558 47.3138C64.9832 48.2624 63.5749 49.3082 62.2401 50.4441C60.9114 51.5765 59.6416 52.7767 58.4355 54.04L59.0095 54.6237C60.2544 53.4543 61.5748 52.3688 62.9615 51.3733ZM52.3051 69.2103C52.531 69.5523 52.8596 69.817 53.1113 70.1356C53.3848 70.4382 53.6648 70.7334 53.9515 71.0211C54.5251 71.5924 55.1312 72.1298 55.7667 72.6307L56.3129 72.0207C55.7778 71.4641 55.2753 70.8768 54.8079 70.2618C54.5765 69.9543 54.353 69.6422 54.1374 69.3254C54.0315 69.1656 53.9271 69.0051 53.8335 68.8369C53.7525 68.6633 53.6538 68.4986 53.539 68.3455C53.073 67.7433 52.6247 67.1225 52.2002 66.4801C51.7719 65.8364 51.3915 65.1617 51.0623 64.4616L50.3039 64.7663C50.5638 65.53 50.841 66.2937 51.1682 67.0405C51.492 67.7914 51.8723 68.517 52.3051 69.2103ZM31.1679 118.464C30.7168 118.524 30.2605 118.569 29.8093 118.605L29.1325 118.65C29.019 118.657 28.9051 118.657 28.7916 118.65C28.6783 118.633 28.5629 118.636 28.4507 118.66C28.1049 118.746 27.7539 118.831 27.403 118.927C27.5183 119.35 27.6336 119.768 27.7589 120.181C28.0647 120.186 28.3705 120.176 28.6763 120.151C28.9119 120.13 29.1276 119.979 29.3582 119.939L30.035 119.728C30.481 119.582 30.9273 119.426 31.3685 119.265L31.1679 118.464ZM94.6613 162.15C93.7347 159.837 92.9413 157.473 92.285 155.069L92.1448 154.555L91.6033 154.646C88.7368 155.124 85.8362 155.366 82.9305 155.371C80.0286 155.457 77.1242 155.344 74.2377 155.033C71.3463 154.714 68.4814 154.188 65.6651 153.457C62.8422 152.725 60.0813 151.771 57.4081 150.602L57.0723 151.353C59.7656 152.592 62.5432 153.637 65.3842 154.48C68.231 155.32 71.1369 155.943 74.0771 156.344C77.0229 156.757 79.9968 156.933 82.9706 156.872C85.7618 156.736 88.5415 156.42 91.2924 155.926C91.986 158.176 92.801 160.387 93.7338 162.548C94.3676 164.016 95.079 165.448 95.8651 166.839C96.0907 166.829 96.3163 166.814 96.542 166.793H96.5469C96.6472 166.789 96.7424 166.778 96.8427 166.773C96.026 165.276 95.2977 163.733 94.6613 162.15ZM44.727 65.8101C41.7528 68.6158 39.1633 71.8066 37.0267 75.2984L36.2346 76.6179C35.979 77.0612 35.7233 77.5044 35.4926 77.9627C35.2671 78.426 35.0616 78.8994 34.8509 79.3627L34.2645 80.788C33.583 82.5121 33.007 84.2764 32.5396 86.0711C30.7248 85.4919 28.9049 84.9128 27.0952 84.3185C27.0251 84.5904 26.955 84.8625 26.8947 85.1344C28.8549 85.8495 30.7999 86.5847 32.745 87.3201L33.2919 87.5216L33.4724 86.9374C34.0542 85.028 34.7472 83.1546 35.5479 81.3269L36.1746 79.9722C36.3902 79.529 36.6257 79.0908 36.8364 78.6375C37.0669 78.1993 37.2776 77.7461 37.483 77.2928C37.7086 76.8497 37.9392 76.4115 38.1749 75.9685C40.117 72.4743 42.5127 69.2548 45.2989 66.3945L44.727 65.8101Z" fill="url(#paint3_linear_22_101)"/>
<path d="M87.0348 93.7064C83.4029 96.5275 80.2333 99.9026 77.6409 103.709C75.3063 102.697 73.026 101.563 70.8094 100.312L69.0306 99.2734L67.2824 98.1853C66.7085 97.8091 66.1393 97.426 65.5748 97.036C65.0211 96.6299 64.4645 96.23 63.8934 95.8515C61.6102 94.3274 59.4105 92.6808 57.3037 90.919C55.1846 89.1612 53.1743 87.2751 51.2842 85.271L50.6819 85.825C52.5274 87.92 54.4806 89.9168 56.5334 91.8072C58.5982 93.6942 60.7702 95.4594 63.0383 97.0939C63.6154 97.4884 64.2069 97.8624 64.8015 98.2297C65.4071 98.5799 66.0072 98.9378 66.6016 99.3034L68.4216 100.339L70.2689 101.323C72.5096 102.473 74.8075 103.508 77.1535 104.423C76.7911 104.98 76.4412 105.545 76.1037 106.118C74.6963 108.52 73.522 111.053 72.5969 113.681C71.6993 116.318 71.0651 119.037 70.7038 121.8C69.9478 127.152 70.1729 132.598 71.3681 137.869C66.4111 139.5 61.0166 139.129 56.3274 136.834L55.9487 137.561C58.441 138.831 61.1604 139.589 63.9477 139.79C66.735 139.991 69.5342 139.631 72.1814 138.732L72.6247 138.573L72.519 138.101C71.3477 132.812 71.1804 127.349 72.0259 121.997C72.4662 119.338 73.1325 116.721 74.0173 114.175C74.8728 111.621 75.9704 109.155 77.2948 106.811C79.9766 102.113 83.5098 97.9612 87.7118 94.5688C91.9171 91.1486 96.7333 88.5658 101.902 86.9591L101.668 86.1731C96.3661 87.7475 91.4033 90.3023 87.0348 93.7064Z" fill="url(#paint4_linear_22_101)" style="mix-blend-mode:screen"/>
<path d="M147.571 124.333C147.356 126.455 146.891 128.545 146.187 130.557C144.755 134.557 142.638 138.275 139.931 141.542C137.329 144.674 134.211 147.333 130.711 149.403C131.095 150.089 131.407 150.813 131.644 151.563C131.799 152.047 131.935 152.525 132.06 153.004C131.824 153.19 131.589 153.376 131.348 153.558C131.178 152.979 131.011 152.399 130.822 151.84C130.548 151.015 130.17 150.228 129.699 149.498L129.428 149.096L129.849 148.844C133.361 146.734 136.47 144.01 139.028 140.801C141.59 137.616 143.548 133.985 144.803 130.089C145.42 128.154 145.868 126.169 146.142 124.156C146.4 122.132 146.475 120.089 146.367 118.052C146.149 114.187 145.353 110.377 144.006 106.75C141.142 108.96 138.051 110.856 134.787 112.406L134.431 111.666C137.828 109.994 141.014 107.92 143.921 105.486L144.462 105.038L144.738 105.698C146.378 109.601 147.374 113.746 147.686 117.971C147.84 120.091 147.802 122.22 147.571 124.333Z" fill="url(#paint5_linear_22_101)" style="mix-blend-mode:screen"/>
<path d="M134.992 76.9563L128.393 80.0066L125.093 81.5316C124.206 81.9402 123.32 82.3513 122.429 82.7501C121.828 81.5875 121.138 80.474 120.465 79.3526C119.669 78.0478 118.857 76.7526 118.018 75.4761C116.339 72.9233 114.572 70.4324 112.763 67.9766L112.1 68.4547C113.826 70.95 115.442 73.5194 116.987 76.1264C117.76 77.4297 118.522 78.7395 119.259 80.0631C120.006 81.3806 120.681 82.7373 121.472 84.0299L121.846 84.6407L122.418 84.3308C123.483 83.7532 124.567 83.2122 125.645 82.6582L128.88 81.0029L135.352 77.6922L134.992 76.9563Z" fill="url(#paint6_linear_22_101)" style="mix-blend-mode:screen"/>
<path d="M132.24 47.4031C130.572 48.3174 129.037 49.4579 127.678 50.7925L127.403 51.0595L127.057 50.863C124.292 49.3217 121.399 48.0274 118.409 46.9952L116.148 46.285C115.386 46.0836 114.619 45.8923 113.867 45.6707C113.1 45.4893 112.338 45.2828 111.576 45.0864L109.26 44.5933C106.153 44.0082 103.005 43.6814 99.8449 43.6162C96.6775 43.5507 93.5108 43.7783 90.3849 44.2961L90.2396 43.4853C93.41 42.8894 96.625 42.5642 99.85 42.5132C103.081 42.4603 106.311 42.698 109.5 43.2234L111.887 43.6616C112.674 43.8429 113.466 44.0138 114.248 44.211C115.03 44.4326 115.797 44.6844 116.569 44.9261L118.855 45.747C121.762 46.8446 124.571 48.1874 127.252 49.761C128.245 48.8686 129.317 48.0695 130.455 47.3738C130.786 47.1723 131.117 46.9809 131.458 46.7995C131.723 46.9952 131.98 47.1965 132.24 47.4031Z" fill="url(#paint7_linear_22_101)" style="mix-blend-mode:screen"/>
<path d="M62.1168 50.9837C63.499 49.9882 64.9247 49.065 66.394 48.2143C66.7606 48.0015 67.1165 47.7713 67.4647 47.5258C67.8222 47.2963 68.1869 47.0783 68.5524 46.8614L69.6657 46.2394L70.7973 45.6495C72.321 44.8828 73.888 44.2062 75.4903 43.6231L75.2369 42.8432C73.5647 43.3346 71.9225 43.9237 70.3188 44.6076L69.1212 45.1386L67.9383 45.7045C67.1685 46.1174 66.3556 46.4596 65.6112 46.9242C64.1385 47.8731 62.7301 48.919 61.3952 50.0552C60.0665 51.1876 58.7967 52.3878 57.5906 53.651L58.1646 54.2346C59.4097 53.0652 60.73 51.9793 62.1168 50.9837Z" fill="url(#paint8_linear_22_101)" style="mix-blend-mode:screen"/>
<path d="M52.3046 68.0812C52.5305 68.4234 52.8591 68.688 53.1108 69.0065C53.3843 69.3092 53.6644 69.6043 53.951 69.8921C54.5246 70.4634 55.1307 71.0009 55.7662 71.5017L56.3124 70.8918C55.7773 70.3352 55.2748 69.7478 54.8074 69.1328C54.576 68.8254 54.3525 68.5133 54.137 68.1965C54.0311 68.0366 53.9266 67.8761 53.8331 67.708C53.7521 67.5344 53.6534 67.3697 53.5386 67.2165C53.0726 66.6142 52.6242 65.9936 52.1997 65.3511C51.7714 64.7074 51.3911 64.0327 51.0619 63.3327L50.3035 63.6373C50.5633 64.401 50.8406 65.1647 51.1677 65.9115C51.4916 66.6625 51.8717 67.3879 52.3046 68.0812Z" fill="url(#paint9_linear_22_101)" style="mix-blend-mode:screen"/>
<path d="M31.0788 118.168C30.6377 118.329 30.1914 118.485 29.7453 118.631L29.0684 118.843C28.8379 118.883 28.6223 119.034 28.3867 119.054C28.0809 119.079 27.7751 119.089 27.4693 119.084C27.344 118.671 27.2287 118.253 27.1134 117.83C27.464 117.735 27.8146 117.649 28.1611 117.563C28.2733 117.54 28.3887 117.537 28.502 117.553C28.6155 117.561 28.7294 117.561 28.8429 117.553L29.5197 117.508C29.9708 117.473 30.427 117.427 30.8783 117.367L31.0788 118.168Z" fill="url(#paint10_linear_22_101)" style="mix-blend-mode:screen"/>
<path d="M97.4989 166.713C97.1829 166.743 96.8622 166.773 96.5462 166.793H96.5413C95.5712 165.159 94.7071 163.463 93.9544 161.717C93.0216 159.556 92.2066 157.345 91.513 155.094C88.7621 155.589 85.9823 155.905 83.191 156.041C80.2173 156.102 77.2435 155.925 74.2977 155.512C71.3575 155.112 68.4516 154.489 65.6048 153.649C62.7638 152.806 59.9862 151.76 57.2928 150.521L57.6287 149.771C60.3019 150.94 63.0627 151.894 65.8855 152.626C68.7018 153.357 71.5667 153.884 74.4581 154.203C77.3447 154.514 80.249 154.627 83.1509 154.541C86.0567 154.536 88.9572 154.294 91.8238 153.816L92.3652 153.725L92.5055 154.239C93.1617 156.643 93.9551 159.007 94.8818 161.32C95.625 163.178 96.4996 164.98 97.4989 166.713Z" fill="url(#paint11_linear_22_101)" style="mix-blend-mode:screen"/>
<path d="M45.0406 65.569C42.2543 68.4293 39.8587 71.6488 37.9166 75.1431C37.681 75.5863 37.4505 76.0244 37.2248 76.4673C37.0192 76.9206 36.8087 77.3738 36.578 77.8121C36.3677 78.2653 36.132 78.7034 35.9164 79.1466L35.2897 80.5013C34.4891 82.329 33.796 84.2024 33.2142 86.1118L33.0339 86.696L32.487 86.4946C30.5419 85.7593 28.5967 85.0239 26.6366 84.3088C26.6966 84.0369 26.7669 83.7649 26.837 83.493C28.6469 84.0872 30.4666 84.6664 32.2814 85.2455C32.7489 83.4509 33.325 81.6866 34.0063 79.9625L34.5929 78.5372C34.8032 78.0738 35.0089 77.6005 35.2346 77.1371C35.4651 76.6788 35.7208 76.2354 35.9764 75.7924L36.7686 74.4729C38.9052 70.9811 41.4946 67.7903 44.4688 64.9845L45.0406 65.569Z" fill="url(#paint12_linear_22_101)" style="mix-blend-mode:screen"/>
<path d="M59.6189 156.917L59.9197 159.108L59.9298 159.113C59.8245 158.383 59.7192 157.653 59.6189 156.917ZM153.406 80.1994L153.476 80.1038C151.398 82.6537 149.041 84.96 146.448 86.9788C140.58 76.653 133.306 67.2008 124.836 58.8959C119.71 59.676 114.63 60.7386 109.62 62.0788C107.154 62.7337 104.707 63.4555 102.281 64.2445C101.704 64.4309 101.128 64.6223 100.551 64.8186C97.4632 65.8611 94.4068 67.0077 91.3822 68.2585C89.4437 65.7385 87.6365 63.1193 85.968 60.4114C88.0635 59.1877 90.139 58.0544 92.2445 56.9767C94.4503 55.8436 96.6862 54.7708 99.0023 53.7182C94.5684 46.569 89.411 39.8992 83.6121 33.8152L83.4418 37.0636C79.2222 37.9861 75.0882 39.2666 71.0842 40.8913C70.9388 40.7199 70.7884 40.5588 70.638 40.3982C74.0917 44.2569 77.1362 48.4665 79.722 52.9587C69.6871 57.7932 60.873 64.8489 53.9416 73.596C47.0102 82.3432 42.1416 92.5543 39.7015 103.463C39.7005 102.842 39.5368 102.233 39.227 101.696C38.9173 101.16 38.4723 100.715 37.9368 100.405L37.9318 100.4C37.2778 99.9204 36.5173 99.6076 35.716 99.4889C34.7173 99.4391 33.7239 99.6642 32.8431 100.14C31.9623 100.616 31.2276 101.324 30.718 102.188C29.724 103.937 29.1875 105.911 29.1589 107.925C28.8623 115.059 30.669 122.123 34.3524 128.23C35.6407 130.33 37.9318 132.144 40.3532 131.715C41.5441 131.469 42.5995 130.782 43.3109 129.791H43.316C43.7576 129.214 44.106 128.569 44.3487 127.883C44.8865 126.015 45.0935 124.066 44.9604 122.126C47.3616 123.3 49.2366 124.503 51.638 125.676C51.0418 135.236 52.2215 144.824 55.1171 153.95L59.4836 155.94L59.6189 156.917C58.0815 145.982 57.0994 134.975 56.6762 123.94C51.2988 120.915 46.406 117.093 42.1629 112.603C43.3917 103.271 46.5566 94.3024 51.453 86.2768C56.3495 78.2511 62.8683 71.3475 70.5879 66.0122C70.7733 66.2791 70.9639 66.541 71.1543 66.7979C74.4487 70.9984 78.0177 74.9741 81.8375 78.6986C84.6702 77.359 88.2695 76.0747 91.1019 74.7351C98.422 81.1645 103.383 89.8758 105.189 99.4738C99.6595 101.541 94.7264 104.954 90.8312 109.406C89.484 110.967 88.2934 112.657 87.2768 114.452C85.295 117.913 84.0665 121.756 83.6725 125.729C83.2785 129.702 83.7278 133.713 84.9909 137.498C85.6321 139.286 86.4837 140.99 87.5277 142.575L87.5376 142.59C90.8345 147.74 96.0118 151.384 101.956 152.738C109.15 154.234 116.664 151.937 123.066 148.321C124.541 147.493 125.965 146.578 127.333 145.582C129.09 144.313 130.728 142.885 132.225 141.316C133.292 140.193 134.264 138.983 135.133 137.7C136.272 136.021 137.182 134.197 137.84 132.276C140.326 124.948 138.627 116.648 134.681 109.995C134.05 108.93 133.355 107.904 132.601 106.923C129.252 102.264 124.412 98.9014 118.89 97.3996C117.379 97.0367 115.83 96.8607 114.278 96.8758C111.039 88.6974 106.715 80.9957 101.424 73.9797C103.99 72.786 106.693 71.6075 109.465 70.5197C114.396 68.5147 119.492 66.9458 124.695 65.8309C132.696 74.2013 139.995 83.5738 144.813 94.1298C148.501 91.5988 151.877 88.6369 154.869 85.3062L153.406 80.1994ZM55.1572 50.3947C51.9556 51.2363 49.0739 53.0115 46.8754 55.4964C44.8149 57.6419 41.8522 60.9256 41.6616 64.0479C41.6436 64.3185 41.6537 64.5902 41.6918 64.8587C41.7663 65.3248 41.9364 65.7703 42.1912 66.167C42.446 66.5637 42.78 66.903 43.172 67.1634C43.564 67.4237 44.0056 67.5995 44.4687 67.6796C44.9319 67.7597 45.4065 67.7424 45.8626 67.6287C47.0042 67.3524 48.0885 66.8768 49.0662 66.2236C53.1074 63.9987 56.497 60.7479 58.8967 56.7956C60.6968 53.5272 59.544 49.468 55.1572 50.3947Z" fill="url(#paint13_linear_22_101)" style="mix-blend-mode:screen"/>
<path d="M120.224 97.9625C118.733 101.543 116.552 104.791 113.807 107.521L109.185 102.843C107.054 104.968 104.528 106.652 101.75 107.798L104.247 113.897C100.7 115.363 96.9017 116.114 93.0671 116.108H92.997V109.515C92.2651 109.515 91.5431 109.475 90.8313 109.404C94.7265 104.952 99.6596 101.54 105.189 99.4722C103.383 89.8741 98.4221 81.1628 91.102 74.7334C88.2692 76.073 84.6701 77.3573 81.8376 78.6969C78.0178 74.9724 74.4489 70.9967 71.1544 66.7963C71.5204 66.3832 71.8964 65.9853 72.2875 65.5926L76.9192 70.2628C79.0455 68.1349 81.5662 66.4462 84.3388 65.2921L81.8374 59.1984C85.1426 57.826 88.6699 57.0733 92.2449 56.9774C90.1394 58.0551 88.0639 59.1884 85.9684 60.4121C87.6369 63.12 89.4441 65.7392 91.3826 68.2592C94.4107 67.01 97.4671 65.8634 100.552 64.8193C100.988 64.9704 101.419 65.1367 101.84 65.3123L102.281 64.2446C104.708 63.454 107.154 62.7321 109.621 62.079C111.152 63.129 112.582 64.3211 113.892 65.6396L109.25 70.2983C109.32 70.3687 109.396 70.4444 109.466 70.5199C106.693 71.6076 103.991 72.7861 101.425 73.9798C106.715 80.9954 111.039 88.6966 114.278 96.8746C115.831 96.8595 117.38 97.0354 118.89 97.3984L120.224 97.9625Z" fill="url(#paint14_linear_22_101)" style="mix-blend-mode:screen"/>
<path d="M109.621 62.0788C110.055 62.265 110.479 62.4735 110.892 62.7035C111.275 62.9717 111.645 63.2592 111.999 63.5649C112.718 64.1645 113.408 64.7967 114.069 65.4614L114.246 65.6396L114.069 65.8177L111.748 68.147L110.591 69.3151C110.16 69.6595 109.709 69.9826 109.25 70.2981C109.564 69.8372 109.886 69.3838 110.229 68.9519L111.393 67.7907L113.715 65.4614V65.8175C113.065 65.1648 112.386 64.543 111.679 63.9521C111.331 63.6507 110.955 63.3852 110.608 63.0806L109.621 62.0788Z" fill="url(#paint15_linear_22_101)" style="mix-blend-mode:screen"/>
<path d="M71.1543 66.7979L72.2128 65.5194L72.2765 65.4425L72.362 65.5196L73.585 66.6216C73.9897 66.9919 74.4124 67.3443 74.7821 67.7496L77.0971 70.085H76.7425C78.8921 67.9338 81.4403 66.2264 84.2431 65.059L84.1073 65.3876L81.6058 59.2942L81.5103 59.0614L81.7418 58.9654C83.4051 58.2746 85.1279 57.7382 86.8885 57.3627C87.767 57.1675 88.661 57.0504 89.56 57.0126C90.4539 56.9535 91.3503 56.9416 92.2455 56.9771C91.3561 57.0646 90.4725 57.1786 89.5975 57.3318C88.7215 57.4819 87.8627 57.7011 86.9925 57.8554C85.262 58.2246 83.5687 58.7519 81.9338 59.4308L82.0698 59.1021L84.5713 65.196L84.6667 65.4284L84.4356 65.5247C81.6933 66.6664 79.2001 68.3365 77.0966 70.4407L76.9191 70.6185L76.742 70.4407L74.4247 68.1076C74.0225 67.7348 73.6731 67.3091 73.3058 66.9014L72.2128 65.6691H72.3616L71.1543 66.7979Z" fill="url(#paint16_linear_22_101)" style="mix-blend-mode:screen"/>
<path d="M120.224 97.9625C119.553 99.7867 118.697 101.536 117.668 103.184C117.155 104.012 116.58 104.801 115.948 105.542C115.329 106.293 114.674 107.013 113.984 107.7L113.806 107.878L113.629 107.699L109.007 103.02L109.361 103.022C107.207 105.17 104.653 106.872 101.845 108.031L101.982 107.703L104.478 113.801L104.574 114.034L104.342 114.13C100.743 115.616 96.8876 116.373 92.9968 116.36L92.7466 116.359V116.108L92.7433 114.46C92.7447 113.91 92.777 113.361 92.7925 112.812L92.909 109.515L92.9972 109.603L90.8306 109.405L92.9962 109.427L93.0815 109.428L93.0846 109.516L93.2011 112.812C93.2165 113.362 93.2489 113.911 93.2503 114.461L93.247 116.109L92.9964 115.857C96.8218 115.871 100.612 115.126 104.151 113.665L104.014 113.994L101.518 107.895L101.423 107.662L101.655 107.566C104.402 106.431 106.9 104.766 109.008 102.665L109.186 102.487L109.362 102.666L113.985 107.345L113.63 107.343C114.308 106.668 114.951 105.96 115.562 105.221C116.174 104.485 116.725 103.702 117.303 102.938C118.43 101.375 119.407 99.709 120.224 97.9625Z" fill="url(#paint17_linear_22_101)" style="mix-blend-mode:screen"/>
<path d="M137.84 132.275C137.182 134.196 136.272 136.02 135.133 137.699C134.035 138.519 132.839 139.199 131.574 139.723L132.226 141.315C130.728 142.885 129.09 144.312 127.333 145.581C126.676 145.646 126.015 145.677 125.348 145.677H125.298V140.952C123.146 140.949 121.016 140.517 119.031 139.683L117.216 144.044C114.662 142.972 112.344 141.405 110.394 139.431L113.727 136.097C112.209 134.564 111.005 132.747 110.183 130.749L105.836 132.552C104.785 129.992 104.246 127.248 104.252 124.479L108.954 124.464C108.952 122.296 109.378 120.149 110.207 118.148L105.866 116.331C106.931 113.763 108.489 111.432 110.453 109.471L113.772 112.815C115.297 111.291 117.104 110.081 119.091 109.254L117.296 104.882C119.824 103.834 122.532 103.292 125.267 103.286H125.367V108.01C127.518 108.008 129.648 108.434 131.633 109.263L132.601 106.922C133.356 107.903 134.051 108.929 134.682 109.994C138.627 116.647 140.327 124.947 137.84 132.275Z" fill="url(#paint18_linear_22_101)" style="mix-blend-mode:screen"/>
<path d="M125.297 140.952C123.137 140.99 120.991 140.599 118.982 139.801L119.148 139.732L117.419 144.13L117.34 144.333L117.131 144.248C116.481 143.993 115.846 143.701 115.229 143.373C114.613 143.043 114.015 142.68 113.438 142.284C112.28 141.5 111.2 140.604 110.215 139.609L110.039 139.43L110.216 139.252L113.55 135.918L113.549 136.275C112.008 134.718 110.786 132.873 109.951 130.845L110.278 130.981L105.932 132.785L105.7 132.881L105.604 132.648C104.541 130.057 103.996 127.281 104.001 124.479V124.228L104.251 124.227L108.953 124.212L108.703 124.464C108.702 122.263 109.134 120.083 109.976 118.051L110.111 118.381L105.769 116.562L105.538 116.466L105.634 116.233C106.712 113.635 108.289 111.277 110.276 109.292L110.454 109.115L110.631 109.293L113.949 112.637L113.595 112.636C115.144 111.089 116.978 109.862 118.994 109.021L118.858 109.35L117.063 104.979L116.968 104.746L117.2 104.65C118.492 104.115 119.833 103.709 121.204 103.438C121.889 103.299 122.58 103.197 123.276 103.133C123.971 103.074 124.669 103.053 125.366 103.069L125.587 103.072L125.583 103.287L125.492 108.011L125.366 107.885C127.525 107.926 129.655 108.395 131.633 109.265C129.639 108.478 127.509 108.095 125.366 108.137L125.243 108.14L125.241 108.011L125.149 103.287L125.366 103.505C124.002 103.538 122.642 103.681 121.301 103.933C119.962 104.197 118.652 104.594 117.391 105.116L117.527 104.787L119.322 109.159L119.418 109.391L119.186 109.488C117.229 110.303 115.45 111.494 113.948 112.994L113.77 113.171L113.594 112.993L110.275 109.648H110.63C108.69 111.586 107.15 113.889 106.097 116.426L105.962 116.097L110.304 117.915L110.535 118.012L110.439 118.244C109.623 120.215 109.203 122.328 109.204 124.463V124.714L108.954 124.715L104.252 124.73L104.502 124.478C104.497 127.214 105.029 129.925 106.067 132.455L105.74 132.318L110.086 130.515L110.318 130.419L110.414 130.652C111.224 132.619 112.41 134.409 113.904 135.919L114.081 136.097L113.903 136.275L110.569 139.609L110.57 139.253C111.532 140.225 112.586 141.1 113.718 141.866C114.283 142.248 114.872 142.594 115.469 142.925C116.069 143.248 116.675 143.565 117.301 143.839L117.012 143.958L118.913 139.633L118.965 139.513L119.079 139.564C121.041 140.434 123.154 140.905 125.297 140.952Z" fill="url(#paint19_linear_22_101)" style="mix-blend-mode:screen"/>
<path d="M83.6144 33.8176C89.4129 39.9005 94.5698 46.5695 99.0027 53.7181L97.3143 54.4958C93.41 48.1419 88.7518 42.288 83.4421 37.0628L83.6144 33.8176ZM39.7016 103.462L40.601 103.348C46.6424 80.9155 60.0977 65.6606 79.722 54.4963V52.9582C69.5259 57.5604 60.5733 64.5458 53.6114 73.3314C46.6495 82.117 41.8802 92.4479 39.7016 103.462ZM31.3244 117.367C27.5942 100.531 34.3775 99.4176 37.9318 100.4C37.2778 99.9197 36.5173 99.6069 35.7161 99.4882C34.7173 99.4384 33.7239 99.6635 32.8432 100.139C31.9624 100.615 31.2276 101.323 30.7181 102.188C29.724 103.937 29.1876 105.91 29.1589 107.924C28.8622 115.059 30.6689 122.123 34.3524 128.23C35.6407 130.33 37.9318 132.144 40.3532 131.715C41.5441 131.469 42.5996 130.782 43.3109 129.792C42.9402 130.054 35.2693 135.165 31.3244 117.367ZM51.638 125.677C51.0044 136.263 52.5084 146.869 56.0596 156.857L57.5432 155.056C54.6232 145.293 53.5171 135.074 54.2802 124.909L47.3682 121.051L44.9604 122.126L51.638 125.677ZM85.9684 60.4118V62.9306L91.0152 69.9606C101.745 66.0413 112.756 62.9463 123.953 60.7024C132.268 68.7832 139.627 77.801 145.883 87.577L146.448 86.9789C140.58 76.6528 133.306 67.2005 124.836 58.8959C113.352 60.6609 102.121 63.8043 91.3826 68.2585L85.9684 60.4118ZM83.3966 135.997C83.3515 135.77 83.3215 135.609 83.3014 135.523C83.322 135.683 83.3538 135.841 83.3966 135.997ZM134.682 109.994C130.281 102.581 122.871 96.7891 114.278 96.8746C111.039 88.6965 106.715 80.9953 101.424 73.9797V76.8201C106.211 83.5381 110.099 90.8579 112.99 98.5921C112.99 98.5921 130.882 96.2726 135.921 120.709C140.954 145.14 107.525 156.368 95.664 148.995C92.6953 147.215 89.9645 145.062 87.5375 142.589C90.8344 147.739 96.0117 151.383 101.956 152.737C109.15 154.233 116.664 151.936 123.066 148.32C129.533 144.664 135.444 139.326 137.84 132.275C140.327 124.947 138.627 116.647 134.682 109.994ZM83.8706 124.242C86.194 113.958 93.8431 105.885 104.37 101.035L105.189 99.4733C92.271 104.872 85.9158 113.497 83.8706 124.242ZM155.943 84.0824L154.605 84.3812C151.561 87.7354 148.15 90.7334 144.437 93.3179L144.814 94.1298C148.946 91.2852 152.687 87.9071 155.943 84.0824ZM42.5288 66.057C42.4899 65.7894 42.4791 65.5184 42.4965 65.2485C42.6884 62.1242 45.6488 58.8418 47.7132 56.6936C49.9108 54.2085 52.7929 52.4341 55.9947 51.595C56.5744 51.4186 57.1874 51.3824 57.7837 51.4892C58.3799 51.5959 58.9427 51.8428 59.426 52.2095C58.8615 50.7911 57.4533 49.9098 55.1586 50.3969C51.9567 51.2359 49.0745 53.0104 46.8769 55.4957C44.8129 57.6437 41.8525 60.9261 41.6601 64.0506C41.6428 64.3205 41.6537 64.5914 41.6926 64.859C41.7987 65.6192 42.1692 66.3171 42.7385 66.8291C42.6388 66.5809 42.5684 66.3217 42.5288 66.057Z" fill="url(#paint20_linear_22_101)" style="mix-blend-mode:screen"/>
<path style="mix-blend-mode:screen" d="M59.7951 78.5686C58.9046 79.8305 58.097 81.4915 58.8242 82.8548C59.2218 83.3903 59.74 83.8236 60.3364 84.1191C60.9328 84.4146 61.5904 84.564 62.2554 84.5551C65.2482 84.8892 68.2766 84.6758 71.1937 83.9253C71.9768 83.8136 72.7257 83.5295 73.3868 83.0933C74.0479 82.6571 74.605 82.0797 75.0182 81.4021C75.446 79.939 75.3005 78.3669 74.6115 77.008C74.1119 75.2894 73.2629 73.6935 72.118 72.3213C67.8046 67.8165 62.1837 75.1838 59.7951 78.5686Z" fill="url(#paint21_linear_22_101)"/>
<path style="mix-blend-mode:screen" d="M63.7237 55.5711C63.3451 56.2262 63.0339 57.1277 63.5545 57.6762C63.8112 57.8618 64.1112 57.978 64.4255 58.0137C64.7398 58.0494 65.058 58.0034 65.3495 57.88C67.6886 57.289 69.9505 56.4241 72.0888 55.3032C72.8439 54.9508 73.5293 54.4639 74.1117 53.8662C74.4005 53.5648 74.617 53.2011 74.7448 52.803C74.8725 52.4048 74.9081 51.9826 74.8489 51.5685C74.6825 51.011 74.3498 50.5182 73.8958 50.1566C73.4417 49.7951 72.8881 49.5822 72.3098 49.5467C68.4334 49.1083 65.4784 52.5392 63.7237 55.5711Z" fill="url(#paint22_linear_22_101)"/>
<path d="M132.22 130.727C131.911 131.219 131.496 131.634 131.006 131.942C130.515 132.25 129.962 132.443 129.387 132.506C128.206 132.486 127.08 132.001 126.252 131.154C125.425 130.34 124.834 129.316 124.541 128.191C124.248 127.066 124.265 125.883 124.59 124.767C124.968 123.6 125.637 122.55 126.533 121.717C127.43 120.884 128.524 120.296 129.711 120.009C128.032 119.953 126.357 120.22 124.777 120.795C123.189 121.38 121.845 122.486 120.96 123.933C120.371 125.093 120.086 126.386 120.132 127.687C120.179 128.989 120.556 130.257 121.227 131.372C122.59 133.583 124.568 135.345 126.916 136.441C125.098 136.665 123.258 136.294 121.667 135.384C116.876 132.85 113.746 127.983 115.284 122.432C115.722 120.851 116.517 119.393 117.607 118.17C118.697 116.948 120.052 115.994 121.569 115.384C123.085 114.773 124.72 114.521 126.349 114.648C127.978 114.775 129.555 115.278 130.959 116.116C133.801 117.814 134.563 122.834 134.183 125.883C133.917 127.63 133.244 129.29 132.22 130.727Z" fill="url(#paint23_linear_22_101)" style="mix-blend-mode:screen"/>
<path d="M29.6401 27.404C28.9438 27.1546 28.1887 27.1231 27.4743 27.3134C27.5194 27.9428 27.6448 28.5523 27.6846 29.1818C27.6996 29.4386 26.0554 30.2747 25.8147 30.4107C25.1274 30.8071 24.4119 31.1522 23.674 31.443C22.4359 31.9395 21.1317 32.2501 19.8035 32.3647C18.1646 32.5036 16.5151 32.2898 14.965 31.7374C13.4149 31.1851 11.9999 30.3069 10.8144 29.1616C10.4285 28.7638 8.56854 27.3688 8.6287 26.7341C8.62366 26.7241 8.6287 26.719 8.6287 26.7141C8.71397 26.1551 9.18516 25.616 9.27042 25.057H9.26636C8.66475 25.1024 7.89205 24.9362 7.29618 24.9815C5.92725 23.2957 4.92365 21.3414 4.34959 19.2436C3.77553 17.1458 3.64364 14.9507 3.96236 12.7988C4.2535 10.717 4.97812 8.72028 6.08897 6.93873C7.19982 5.15719 8.67197 3.63084 10.4094 2.45923L10.5447 2.3685C10.8595 2.62487 11.2068 2.83806 11.5774 3.00247C11.6627 3.04276 11.7429 3.08305 11.8331 3.11827L11.8531 3.12827C12.1138 2.4736 12.6352 1.68297 12.9059 1.01815C12.9214 0.989142 12.9348 0.959057 12.946 0.928127C19.6688 -0.779074 26.743 -0.834582 31.8616 6.9718C36.7889 14.4967 33.8561 21.8692 29.6401 27.404Z" fill="url(#paint24_linear_22_101)" style="mix-blend-mode:screen"/>
<path d="M6.17175 18.7529C7.39479 20.6172 9.12052 22.0935 11.1474 23.0094C13.1744 23.9253 15.4188 24.243 17.6188 23.9255C19.8094 23.5596 21.8972 22.7286 23.7428 21.4879C25.5884 20.2472 27.1495 18.6253 28.3217 16.7305C29.3072 15.3587 29.983 13.7874 30.3017 12.1263C30.6205 10.4651 30.5746 8.75407 30.1673 7.11254C31.2949 8.96643 32.0309 11.0335 32.3296 13.1852C32.6283 15.337 32.4833 17.5275 31.9036 19.6206C31.4601 21.4565 30.6101 23.1682 29.4169 24.6285C28.16 26.0364 26.603 27.1413 24.8619 27.8609C23.0293 28.6945 21.0474 29.1459 19.0361 29.1878C17.0248 29.2296 15.0259 28.8609 13.1605 28.1042C11.2932 27.2812 9.66877 25.9882 8.44445 24.35C7.22014 22.7118 6.43733 20.7839 6.17175 18.7529Z" fill="url(#paint25_linear_22_101)" style="mix-blend-mode:screen"/>
<path style="mix-blend-mode:screen" d="M10.2243 4.2418C11.9231 2.72669 13.991 1.69051 16.2177 1.23863C18.296 0.867971 20.5419 0.785978 22.0979 2.47303C22.8438 3.29794 23.2768 4.36028 23.321 5.47381C23.2846 6.48882 22.8641 7.45164 22.1453 8.16591C20.6563 10.1379 18.7053 11.7097 16.4658 12.7416C14.2316 13.7668 11.8597 14.4569 9.42593 14.79C8.63461 14.9917 7.7991 14.9248 7.04963 14.5995C6.64861 14.3177 6.32416 13.9396 6.10584 13.4996C5.88753 13.0595 5.78229 12.5716 5.79971 12.0803C5.79969 10.4462 6.31753 8.85445 7.27822 7.53575C8.11166 6.3123 9.10224 5.20474 10.2243 4.2418Z" fill="url(#paint26_linear_22_101)"/>
<path style="mix-blend-mode:screen" d="M27.6849 29.1818L27.4746 27.3134L18.7383 15.842C18.8018 15.7903 18.8631 15.7359 18.9268 15.6845C18.5559 15.6443 18.1297 15.599 17.7588 15.5587C14.2408 18.0292 11.3352 21.2789 9.26636 25.057H9.2714C9.18614 25.616 8.71495 26.1551 8.62969 26.7141C8.62969 26.719 8.62464 26.7241 8.62969 26.7341C11.2248 23.0041 14.2858 19.6242 17.7377 16.6774C20.4627 21.287 23.8103 25.4951 27.6849 29.1818Z" fill="url(#paint27_linear_22_101)"/>
<path d="M18.1605 15.5133C14.5658 17.9542 11.5515 21.162 9.33284 24.9078C8.6548 24.7506 7.94688 24.7822 7.2854 24.9993C9.89421 21.1907 13.2417 17.9506 17.1271 15.4731C17.4631 15.5717 17.818 15.5855 18.1605 15.5133Z" fill="url(#paint28_linear_22_101)" style="mix-blend-mode:screen"/>
<path style="mix-blend-mode:screen" d="M18.1605 15.5133C17.818 15.5832 17.4639 15.5693 17.1278 15.473C13.7105 11.8593 11.3815 7.34732 10.4105 2.45923L10.5458 2.3685C10.8606 2.62487 11.2079 2.83806 11.5785 3.00247C12.9487 7.56021 15.1838 11.8086 18.1605 15.5133Z" fill="url(#paint29_linear_22_101)"/>
<path d="M18.9268 15.6443C18.6684 15.6935 18.4012 15.6636 18.1599 15.5587C15.2086 11.9019 13.0533 7.66414 11.8331 3.11883L11.8532 3.12884C12.1139 2.47416 12.6353 1.68353 12.9059 1.01871C14.2279 6.15088 16.2543 11.0733 18.9268 15.6443Z" fill="url(#paint30_linear_22_101)" style="mix-blend-mode:screen"/>
<path d="M18.9268 15.6443C21.7972 20.1549 25.4218 24.1333 29.6408 27.404L27.475 27.3134C23.6842 23.997 20.5277 20.0135 18.1605 15.5587L18.9268 15.6443Z" fill="url(#paint31_linear_22_101)" style="mix-blend-mode:screen"/>
<path style="mix-blend-mode:screen" d="M9.0473 5.34941C9.15583 5.26136 9.29067 5.2125 9.43017 5.21069C9.56966 5.20887 9.70572 5.25421 9.81649 5.33941C9.93231 5.46603 10.0044 5.62679 10.0221 5.79783C10.1251 6.3922 10.0199 7.00407 9.72435 7.52927C9.67564 7.63956 9.6024 7.73716 9.51026 7.81456C9.41812 7.89195 9.30954 7.94709 9.19286 7.97572C8.87887 8.0132 8.62042 7.72016 8.50318 7.42516C8.36617 7.06549 8.34499 6.67169 8.44261 6.29929C8.54023 5.92688 8.75173 5.59464 9.0473 5.34941ZM11.1713 14.9781C11.2107 15.3008 11.3486 15.6034 11.5659 15.8444C11.7331 15.9942 11.9403 16.0914 12.162 16.1239C12.3836 16.1565 12.6099 16.123 12.8128 16.0275C13.0131 15.9273 13.189 15.7837 13.3277 15.6072C13.4663 15.4307 13.5644 15.2255 13.6149 15.0064C13.7236 14.5869 13.6626 14.1411 13.4451 13.7667C13.3538 13.6152 13.2334 13.4835 13.0909 13.3793C12.9485 13.275 12.7868 13.2003 12.6153 13.1594C12.4438 13.1185 12.2659 13.1123 12.092 13.1412C11.9181 13.17 11.7517 13.2333 11.6024 13.3274C11.0375 13.6559 11.0668 14.3981 11.1713 14.9781ZM7.4465 20.1236C7.46151 20.1476 7.47736 20.1711 7.49404 20.1941C7.63436 20.3896 7.82412 20.5439 8.0437 20.641C8.26329 20.7381 8.50471 20.7744 8.74298 20.7463C8.98034 20.7112 9.20241 20.6076 9.38218 20.448C9.56194 20.2884 9.69164 20.0797 9.75549 19.8474C9.79695 19.546 9.77677 19.2392 9.69619 18.9459C9.6156 18.6526 9.47631 18.3788 9.28682 18.1414C8.90496 17.7103 8.20027 18.0597 7.80985 18.3277C7.52534 18.518 7.3274 18.8138 7.25932 19.1504C7.19123 19.4869 7.25853 19.8368 7.4465 20.1236ZM17.0606 21.5926C17.3035 21.673 17.5658 21.6713 17.8075 21.5877C18.0493 21.5041 18.2571 21.3432 18.3992 21.1297C18.5202 20.9271 18.5799 20.6934 18.5708 20.4573C18.5618 20.2212 18.4844 19.9928 18.3482 19.8002C18.2063 19.6117 18.0166 19.465 17.799 19.3754C17.5813 19.2859 17.3437 19.2568 17.111 19.2912C15.8355 19.486 16.0016 21.2138 17.0606 21.5926ZM16.7161 7.37528C17.0027 7.51892 17.3282 7.56431 17.643 7.5045C17.9577 7.44468 18.2442 7.28297 18.4588 7.04407C18.6641 6.79699 18.7971 6.4975 18.843 6.17897C18.8889 5.86043 18.8458 5.53536 18.7187 5.23994C18.6021 4.93277 18.3697 4.6842 18.0717 4.54822C17.7737 4.45238 17.4527 4.45639 17.1571 4.55963C16.8785 4.6283 16.6202 4.76303 16.4041 4.95255C16.2641 5.13137 16.1611 5.33642 16.101 5.55571C16.0409 5.775 16.0249 6.00413 16.0539 6.22971C16.083 6.45528 16.1565 6.67278 16.2702 6.86947C16.3839 7.06617 16.5355 7.23813 16.7161 7.37528ZM22.4737 18.1527C22.6816 18.394 22.9687 18.5525 23.2829 18.5993C23.4592 18.6034 23.6343 18.569 23.796 18.4984C23.9578 18.4279 24.1024 18.3229 24.2198 18.1908C24.484 17.9197 24.6604 17.5748 24.7258 17.2012C24.7912 16.8276 24.7426 16.4428 24.5863 16.0975C24.4301 15.7522 24.1735 15.4624 23.8503 15.2663C23.5271 15.0702 23.1524 14.9769 22.7754 14.9987C22.5197 15.0052 22.2722 15.0903 22.0661 15.2424C21.2597 15.8844 21.9125 17.569 22.4737 18.1527ZM29.4865 25.424C29.6865 25.3297 29.858 25.1838 29.9837 25.0012C30.1093 24.8186 30.1845 24.6059 30.2017 24.3846C30.2084 24.2017 30.1774 24.0193 30.1108 23.8489C30.0441 23.6785 29.9432 23.5238 29.8144 23.3944C29.553 23.1363 29.2154 22.9702 28.8522 22.9211C28.6608 22.884 28.4632 22.8951 28.2771 22.9533C28.091 23.0116 27.9221 23.1152 27.7856 23.255C27.649 23.3948 27.5491 23.5663 27.4946 23.7544C27.4401 23.9424 27.4328 24.1411 27.4733 24.3326C27.5239 24.5433 27.6182 24.741 27.7499 24.9127C27.8815 25.0845 28.0477 25.2264 28.2376 25.3294C28.4275 25.4324 28.6368 25.4941 28.852 25.5105C29.0672 25.5268 29.2834 25.4971 29.4865 25.424ZM21.8296 28.9125C22.1486 29.1991 22.5481 29.3793 22.9733 29.4284C23.248 29.4874 23.5341 29.4621 23.7943 29.3558C24.0546 29.2496 24.2771 29.0672 24.433 28.8324C24.5041 28.6756 24.5397 28.5049 24.5372 28.3326C24.5348 28.1604 24.4944 27.9908 24.419 27.8361C24.2649 27.5274 24.0388 27.2608 23.7598 27.059C23.469 26.8202 23.1264 26.6535 22.7597 26.5722C22.5764 26.5328 22.3871 26.5305 22.203 26.5653C22.0188 26.6002 21.8433 26.6715 21.6869 26.7752C20.9734 27.2838 21.2787 28.3944 21.8296 28.9125Z" fill="url(#paint32_linear_22_101)"/>
<path d="M170.778 161.529C170.31 161.361 169.803 161.34 169.323 161.468C169.353 161.891 169.437 162.3 169.464 162.723C169.474 162.896 168.37 163.458 168.208 163.549C167.746 163.815 167.266 164.047 166.77 164.243C165.938 164.576 165.062 164.785 164.17 164.862C163.069 164.955 161.961 164.811 160.919 164.44C159.878 164.069 158.927 163.479 158.131 162.71C157.871 162.442 156.622 161.505 156.662 161.079C156.659 161.072 156.662 161.069 156.662 161.065C156.719 160.689 157.036 160.327 157.093 159.952H157.09C156.686 159.982 156.167 159.871 155.766 159.901C154.847 158.768 154.172 157.455 153.787 156.046C153.401 154.636 153.312 153.162 153.526 151.716C153.722 150.317 154.209 148.976 154.955 147.779C155.702 146.582 156.691 145.556 157.858 144.769L157.949 144.708C158.16 144.881 158.394 145.024 158.643 145.135C158.7 145.162 158.754 145.189 158.814 145.213L158.828 145.219C159.004 144.779 159.354 144.248 159.536 143.801C159.546 143.782 159.555 143.761 159.563 143.741C164.079 142.594 168.832 142.556 172.271 147.801C175.581 152.856 173.611 157.81 170.778 161.529Z" fill="url(#paint33_linear_22_101)" style="mix-blend-mode:screen"/>
<path d="M155.011 155.716C155.833 156.969 156.992 157.961 158.354 158.576C159.716 159.191 161.224 159.405 162.702 159.191C164.173 158.946 165.576 158.387 166.816 157.554C168.056 156.72 169.105 155.63 169.892 154.357C170.554 153.436 171.008 152.38 171.223 151.264C171.437 150.148 171.406 148.998 171.132 147.896C171.89 149.141 172.384 150.53 172.585 151.976C172.785 153.421 172.688 154.893 172.298 156.299C172.026 157.543 171.452 158.699 170.626 159.665C169.801 160.632 168.75 161.377 167.567 161.836C166.336 162.396 165.005 162.699 163.653 162.727C162.302 162.755 160.959 162.508 159.706 161.999C158.451 161.446 157.36 160.577 156.538 159.477C155.715 158.376 155.189 157.081 155.011 155.716Z" fill="url(#paint34_linear_22_101)" style="mix-blend-mode:screen"/>
<path style="mix-blend-mode:screen" d="M157.734 145.967C158.875 144.949 160.264 144.253 161.76 143.95C162.434 143.733 163.152 143.696 163.844 143.841C164.537 143.986 165.18 144.31 165.711 144.779C166.212 145.333 166.503 146.047 166.532 146.795C166.508 147.477 166.226 148.124 165.743 148.604C164.742 149.929 163.431 150.985 161.926 151.678C160.425 152.367 158.832 152.831 157.197 153.055C156.665 153.19 156.104 153.145 155.6 152.927C155.331 152.737 155.113 152.483 154.966 152.188C154.82 151.892 154.749 151.564 154.761 151.234C154.761 150.136 155.109 149.066 155.755 148.18C156.315 147.358 156.98 146.614 157.734 145.967Z" fill="url(#paint35_linear_22_101)"/>
<path style="mix-blend-mode:screen" d="M169.464 162.723L169.323 161.468L163.454 153.761C163.496 153.726 163.538 153.69 163.58 153.655C163.33 153.628 163.044 153.598 162.795 153.571C160.431 155.231 158.479 157.414 157.089 159.953H157.092C157.035 160.328 156.718 160.69 156.661 161.066C156.661 161.069 156.658 161.073 156.661 161.08C158.405 158.574 160.461 156.303 162.78 154.323C164.611 157.42 166.861 160.247 169.464 162.723Z" fill="url(#paint36_linear_22_101)"/>
<path d="M163.065 153.54C160.65 155.18 158.625 157.335 157.135 159.852C156.679 159.746 156.203 159.767 155.759 159.913C157.512 157.354 159.761 155.178 162.371 153.513C162.597 153.579 162.835 153.589 163.065 153.54Z" fill="url(#paint37_linear_22_101)" style="mix-blend-mode:screen"/>
<path style="mix-blend-mode:screen" d="M163.065 153.54C162.835 153.587 162.597 153.578 162.371 153.513C160.075 151.085 158.51 148.054 157.858 144.77L157.949 144.709C158.16 144.881 158.394 145.025 158.643 145.135C159.563 148.197 161.065 151.051 163.065 153.54Z" fill="url(#paint38_linear_22_101)"/>
<path d="M163.58 153.628C163.407 153.661 163.227 153.641 163.065 153.571C161.082 151.114 159.634 148.267 158.814 145.213L158.828 145.22C159.004 144.78 159.354 144.249 159.536 143.802C160.424 147.25 161.785 150.557 163.58 153.628Z" fill="url(#paint39_linear_22_101)" style="mix-blend-mode:screen"/>
<path d="M163.58 153.628C165.509 156.659 167.944 159.332 170.778 161.529L169.323 161.468C166.776 159.24 164.655 156.564 163.065 153.571L163.58 153.628Z" fill="url(#paint40_linear_22_101)" style="mix-blend-mode:screen"/>
<path style="mix-blend-mode:screen" d="M156.943 146.712C157.016 146.653 157.107 146.62 157.2 146.619C157.294 146.617 157.386 146.648 157.46 146.705C157.538 146.79 157.586 146.898 157.598 147.013C157.667 147.413 157.597 147.824 157.398 148.177C157.365 148.251 157.316 148.316 157.254 148.368C157.192 148.42 157.119 148.457 157.041 148.476C156.831 148.502 156.656 148.305 156.578 148.107C156.486 147.865 156.472 147.6 156.537 147.35C156.602 147.1 156.744 146.877 156.943 146.712ZM158.37 153.181C158.396 153.397 158.489 153.601 158.635 153.763C158.747 153.863 158.886 153.929 159.035 153.951C159.184 153.973 159.336 153.95 159.473 153.886C159.607 153.819 159.725 153.722 159.819 153.604C159.912 153.485 159.978 153.347 160.012 153.2C160.085 152.918 160.044 152.619 159.897 152.367C159.836 152.265 159.755 152.177 159.66 152.107C159.564 152.036 159.455 151.986 159.34 151.959C159.225 151.931 159.105 151.927 158.989 151.946C158.872 151.966 158.76 152.008 158.66 152.071C158.28 152.293 158.3 152.791 158.37 153.181ZM155.867 156.638L155.899 156.685C155.993 156.817 156.121 156.92 156.268 156.986C156.416 157.051 156.578 157.075 156.738 157.056C156.897 157.033 157.047 156.963 157.167 156.856C157.288 156.749 157.375 156.608 157.418 156.452C157.446 156.25 157.432 156.044 157.378 155.847C157.324 155.65 157.23 155.466 157.103 155.306C156.847 155.017 156.374 155.251 156.111 155.431C155.92 155.559 155.787 155.758 155.741 155.984C155.696 156.21 155.741 156.445 155.867 156.638ZM162.326 157.625C162.489 157.679 162.666 157.678 162.828 157.621C162.99 157.565 163.13 157.457 163.225 157.314C163.307 157.178 163.347 157.021 163.341 156.862C163.335 156.703 163.283 156.55 163.191 156.42C163.096 156.294 162.968 156.195 162.822 156.135C162.676 156.075 162.516 156.055 162.36 156.078C161.503 156.209 161.615 157.37 162.326 157.625ZM162.095 148.073C162.288 148.169 162.506 148.2 162.718 148.16C162.929 148.12 163.122 148.011 163.266 147.85C163.404 147.684 163.493 147.483 163.524 147.269C163.555 147.055 163.526 146.837 163.44 146.639C163.362 146.432 163.206 146.265 163.006 146.174C162.805 146.109 162.59 146.112 162.391 146.181C162.204 146.228 162.031 146.318 161.885 146.445C161.791 146.566 161.722 146.703 161.682 146.851C161.641 146.998 161.631 147.152 161.65 147.303C161.67 147.455 161.719 147.601 161.796 147.733C161.872 147.865 161.974 147.981 162.095 148.073ZM165.963 155.314C166.103 155.476 166.296 155.583 166.507 155.614C166.625 155.617 166.743 155.594 166.852 155.546C166.96 155.499 167.057 155.429 167.136 155.34C167.314 155.158 167.432 154.926 167.476 154.675C167.52 154.424 167.488 154.165 167.383 153.933C167.278 153.701 167.105 153.507 166.888 153.375C166.671 153.243 166.419 153.18 166.166 153.195C165.994 153.2 165.827 153.257 165.689 153.359C165.148 153.79 165.586 154.922 165.963 155.314ZM170.675 160.199C170.81 160.136 170.925 160.038 171.01 159.915C171.094 159.793 171.145 159.65 171.156 159.501C171.161 159.378 171.14 159.255 171.095 159.141C171.05 159.027 170.983 158.923 170.896 158.836C170.72 158.662 170.494 158.551 170.25 158.518C170.121 158.493 169.988 158.5 169.863 158.539C169.738 158.579 169.625 158.648 169.533 158.742C169.441 158.836 169.374 158.951 169.337 159.078C169.301 159.204 169.296 159.337 169.323 159.466C169.357 159.608 169.421 159.74 169.509 159.855C169.597 159.971 169.709 160.066 169.836 160.135C169.964 160.204 170.104 160.246 170.249 160.257C170.393 160.268 170.539 160.248 170.675 160.199ZM165.531 162.543C165.745 162.736 166.014 162.857 166.299 162.89C166.484 162.929 166.676 162.912 166.851 162.841C167.026 162.77 167.175 162.647 167.28 162.489C167.328 162.384 167.352 162.269 167.35 162.153C167.348 162.038 167.321 161.924 167.27 161.82C167.167 161.613 167.015 161.433 166.828 161.298C166.632 161.137 166.402 161.025 166.156 160.971C166.033 160.944 165.906 160.943 165.782 160.966C165.658 160.989 165.54 161.037 165.435 161.107C164.955 161.448 165.161 162.195 165.531 162.543Z" fill="url(#paint41_linear_22_101)"/>
<path d="M10.0932 130.131C9.82454 130.06 9.54073 130.072 9.27914 130.166C9.31602 130.401 9.38235 130.625 9.41727 130.86C9.4313 130.955 8.84231 131.321 8.75592 131.38C8.51107 131.55 8.25402 131.702 7.98687 131.835C7.53893 132.06 7.06035 132.218 6.56656 132.304C5.95715 132.408 5.33257 132.381 4.73452 132.224C4.13646 132.066 3.57868 131.783 3.09839 131.392C2.94119 131.255 2.20088 130.792 2.20285 130.552V130.545C2.21687 130.333 2.37646 130.116 2.39076 129.904H2.3881C2.16372 129.94 1.86923 129.902 1.64779 129.938C1.08171 129.351 0.643935 128.651 0.362449 127.884C0.0809622 127.116 -0.0380353 126.298 0.0130656 125.482C0.0561815 124.693 0.26432 123.922 0.623912 123.22C0.983505 122.517 1.48648 121.898 2.10005 121.404L2.14787 121.365C2.27378 121.451 2.41055 121.52 2.55456 121.57C2.58765 121.582 2.61907 121.595 2.65398 121.605L2.66184 121.608C2.73869 121.355 2.90893 121.042 2.98915 120.784C2.99393 120.773 2.99791 120.761 3.00107 120.749C5.46487 119.895 8.11252 119.648 10.2769 122.408C12.3617 125.068 11.4968 127.923 10.0932 130.131Z" fill="url(#paint42_linear_22_101)" style="mix-blend-mode:screen"/>
<path d="M1.02936 127.642C1.54654 128.301 2.23967 128.798 3.02785 129.077C3.81602 129.355 4.6667 129.402 5.48058 129.213C6.28946 129.006 7.04507 128.628 7.697 128.104C8.34894 127.58 8.8822 126.923 9.2612 126.176C9.58692 125.631 9.79029 125.02 9.85714 124.388C9.92399 123.756 9.8527 123.116 9.64825 122.514C10.1293 123.173 10.4704 123.923 10.6504 124.72C10.8304 125.516 10.8455 126.341 10.6947 127.144C10.5867 127.845 10.3226 128.514 9.92199 129.099C9.4958 129.666 8.94766 130.13 8.31839 130.455C7.65834 130.826 6.93024 131.058 6.17817 131.138C5.4261 131.218 4.66571 131.144 3.94304 130.92C3.21769 130.671 2.56844 130.239 2.05802 129.665C1.54761 129.091 1.1933 128.394 1.02936 127.642Z" fill="url(#paint43_linear_22_101)" style="mix-blend-mode:screen"/>
<path style="mix-blend-mode:screen" d="M2.08727 122.077C2.67551 121.455 3.41716 121.001 4.2368 120.761C4.60217 120.608 5.00071 120.553 5.39356 120.601C5.78641 120.649 6.16015 120.798 6.47833 121.035C6.78376 121.32 6.97961 121.704 7.03156 122.12C7.05002 122.501 6.92303 122.875 6.67648 123.166C6.18121 123.952 5.50018 124.603 4.69397 125.061C3.88966 125.516 3.02317 125.851 2.12219 126.053C1.83222 126.154 1.51721 126.156 1.22622 126.058C1.06709 125.965 0.933582 125.834 0.837861 125.676C0.742139 125.518 0.687245 125.339 0.67818 125.154C0.626589 124.542 0.770253 123.93 1.08837 123.405C1.3617 122.92 1.69757 122.474 2.08727 122.077Z" fill="url(#paint44_linear_22_101)"/>
<path style="mix-blend-mode:screen" d="M9.41728 130.86L9.27914 130.166L5.64367 126.149C5.66583 126.128 5.68715 126.106 5.7093 126.085L5.26784 126.075C4.02852 127.112 3.04324 128.423 2.3881 129.904H2.39006C2.37604 130.115 2.21645 130.333 2.20215 130.545V130.552C3.05595 129.073 4.09527 127.709 5.29463 126.495C6.46163 128.134 7.84903 129.603 9.41728 130.86Z" fill="url(#paint45_linear_22_101)"/>
<path d="M5.41663 126.045C4.14769 127.074 3.12049 128.372 2.40829 129.846C2.14933 129.809 1.88518 129.843 1.64429 129.946C2.5007 128.436 3.65176 127.115 5.02846 126.063C5.15734 126.089 5.29067 126.083 5.41663 126.045Z" fill="url(#paint46_linear_22_101)" style="mix-blend-mode:screen"/>
<path style="mix-blend-mode:screen" d="M5.41661 126.045C5.29051 126.082 5.15739 126.088 5.02844 126.063C3.634 124.819 2.61871 123.203 2.10004 121.404L2.14786 121.365C2.27377 121.451 2.41053 121.52 2.55454 121.57C3.21226 123.233 4.18415 124.753 5.41661 126.045Z" fill="url(#paint47_linear_22_101)"/>
<path d="M5.70764 126.069C5.61239 126.096 5.51137 126.093 5.41764 126.062C4.19643 124.787 3.25492 123.268 2.65387 121.605L2.66172 121.608C2.73857 121.355 2.90882 121.042 2.98903 120.784C3.64684 122.664 4.56181 124.443 5.70764 126.069Z" fill="url(#paint48_linear_22_101)" style="mix-blend-mode:screen"/>
<path d="M5.70761 126.069C6.92558 127.667 8.40912 129.041 10.0928 130.131L9.27871 130.166C7.75383 129.046 6.44536 127.655 5.4176 126.062L5.70761 126.069Z" fill="url(#paint49_linear_22_101)" style="mix-blend-mode:screen"/>
<path style="mix-blend-mode:screen" d="M1.68158 122.53C1.71947 122.493 1.76846 122.471 1.82068 122.466C1.87289 122.46 1.9253 122.473 1.96949 122.501C2.01687 122.545 2.04897 122.603 2.06106 122.667C2.11864 122.886 2.09882 123.118 2.00497 123.325C1.99027 123.368 1.96594 123.406 1.93387 123.438C1.90179 123.47 1.86283 123.495 1.82 123.509C1.7036 123.533 1.59758 123.431 1.54429 123.325C1.4814 123.195 1.46082 123.048 1.48546 122.905C1.51009 122.762 1.57869 122.631 1.68158 122.53ZM2.78215 126.068C2.8071 126.188 2.86834 126.297 2.95745 126.38C3.02485 126.43 3.10557 126.46 3.18961 126.465C3.27364 126.47 3.35729 126.45 3.43018 126.408C3.50211 126.364 3.56345 126.305 3.60981 126.234C3.65617 126.163 3.68639 126.083 3.69831 125.999C3.7257 125.839 3.68869 125.674 3.59538 125.541C3.5564 125.487 3.50716 125.441 3.45051 125.407C3.39385 125.372 3.33093 125.349 3.2654 125.339C3.19987 125.33 3.13304 125.333 3.06881 125.349C3.00458 125.366 2.94422 125.395 2.89126 125.435C2.69016 125.577 2.72466 125.854 2.78215 126.068ZM1.5499 128.114L1.56996 128.139C1.62871 128.208 1.70466 128.26 1.78996 128.289C1.87526 128.318 1.96682 128.324 2.05517 128.306C2.14294 128.285 2.2228 128.24 2.28505 128.174C2.3473 128.108 2.38923 128.026 2.40576 127.937C2.41175 127.823 2.39448 127.709 2.355 127.601C2.31553 127.494 2.25469 127.396 2.17619 127.313C2.01955 127.164 1.76671 127.317 1.62927 127.43C1.52873 127.511 1.46394 127.628 1.44907 127.756C1.4342 127.884 1.47045 128.013 1.5499 128.114ZM5.19729 128.357C5.29079 128.379 5.389 128.37 5.4769 128.331C5.56481 128.292 5.63757 128.225 5.68405 128.141C5.72297 128.061 5.7379 127.972 5.72701 127.883C5.71613 127.795 5.6799 127.712 5.62277 127.645C5.56366 127.578 5.48798 127.53 5.40363 127.503C5.31928 127.476 5.22937 127.473 5.1433 127.493C4.67197 127.607 4.78879 128.249 5.19729 128.357ZM4.61798 123.043C4.72986 123.088 4.85322 123.094 4.9692 123.062C5.08517 123.029 5.18736 122.96 5.26012 122.863C5.3292 122.764 5.36954 122.648 5.37662 122.527C5.3837 122.406 5.35725 122.286 5.30022 122.179C5.2469 122.068 5.15194 121.982 5.03602 121.941C4.92136 121.914 4.80126 121.926 4.69385 121.974C4.59168 122.009 4.49926 122.068 4.42431 122.146C4.37756 122.217 4.34545 122.297 4.32988 122.381C4.3143 122.465 4.31557 122.552 4.3336 122.635C4.35164 122.719 4.38607 122.798 4.4349 122.868C4.48373 122.938 4.54597 122.997 4.61798 123.043ZM7.116 126.896C7.20158 126.979 7.31411 127.029 7.43321 127.036C7.49938 127.032 7.56388 127.014 7.62223 126.982C7.68058 126.951 7.7314 126.907 7.77118 126.853C7.86151 126.743 7.9166 126.608 7.92923 126.466C7.94186 126.324 7.91143 126.182 7.84194 126.057C7.77244 125.933 7.66714 125.833 7.53986 125.77C7.41258 125.707 7.26927 125.684 7.12876 125.704C7.03325 125.715 6.94328 125.754 6.87086 125.818C6.58969 126.085 6.88727 126.695 7.116 126.896ZM9.97288 129.395C10.0449 129.353 10.1046 129.293 10.1459 129.22C10.1872 129.148 10.2086 129.066 10.2081 128.982C10.2047 128.914 10.1873 128.847 10.1569 128.785C10.1266 128.724 10.0839 128.669 10.0316 128.625C9.92559 128.536 9.79386 128.485 9.65623 128.478C9.58338 128.47 9.50974 128.481 9.4419 128.509C9.37406 128.536 9.31411 128.581 9.26741 128.637C9.22071 128.694 9.18871 128.762 9.17426 128.834C9.15982 128.906 9.16337 128.98 9.18461 129.051C9.21032 129.128 9.2519 129.199 9.30667 129.259C9.36143 129.319 9.42815 129.367 9.50249 129.399C9.57684 129.432 9.65713 129.448 9.73817 129.447C9.81921 129.446 9.89918 129.429 9.97288 129.395ZM7.2157 130.946C7.34429 131.043 7.49963 131.098 7.66039 131.103C7.76516 131.116 7.87151 131.098 7.96563 131.049C8.05976 131.001 8.13732 130.926 8.18824 130.833C8.20985 130.772 8.21774 130.707 8.21134 130.642C8.20494 130.578 8.18441 130.516 8.15122 130.46C8.08368 130.35 7.9906 130.257 7.87986 130.19C7.76336 130.11 7.62977 130.059 7.48987 130.04C7.41998 130.031 7.34902 130.036 7.28115 130.055C7.21327 130.074 7.14983 130.106 7.09454 130.15C6.84352 130.363 6.99287 130.77 7.2157 130.946Z" fill="url(#paint50_linear_22_101)"/>
</g>
<defs>
<linearGradient id="paint0_linear_22_101" x1="53.7109" y1="36.2978" x2="124.833" y2="152.268" gradientUnits="userSpaceOnUse">
<stop stop-color="#C9FA49"/>
<stop offset="0.359375" stop-color="#7A972B"/>
<stop offset="0.682292" stop-color="#3D4C15"/>
<stop offset="1" stop-color="#1C2602"/>
</linearGradient>
<linearGradient id="paint1_linear_22_101" x1="56.4913" y1="68.1826" x2="98.3507" y2="160.103" gradientUnits="userSpaceOnUse">
<stop stop-color="#C9FA49"/>
<stop offset="0.359375" stop-color="#7A972B"/>
<stop offset="0.682292" stop-color="#3D4C15"/>
<stop offset="1" stop-color="#1C2602"/>
</linearGradient>
<linearGradient id="paint2_linear_22_101" x1="50.5958" y1="39.1414" x2="83.0365" y2="99.6308" gradientUnits="userSpaceOnUse">
<stop stop-color="#C9FA49"/>
<stop offset="0.359375" stop-color="#7A972B"/>
<stop offset="0.682292" stop-color="#3D4C15"/>
<stop offset="1" stop-color="#1C2602"/>
</linearGradient>
<linearGradient id="paint3_linear_22_101" x1="53.371" y1="45.7833" x2="119.621" y2="152.44" gradientUnits="userSpaceOnUse">
<stop stop-color="#C9FA49"/>
<stop offset="0.359375" stop-color="#7A972B"/>
<stop offset="0.682292" stop-color="#3D4C15"/>
<stop offset="1" stop-color="#1C2602"/>
</linearGradient>
<linearGradient id="paint4_linear_22_101" x1="61.8226" y1="86.5061" x2="91.5887" y2="132.271" gradientUnits="userSpaceOnUse">
<stop stop-color="#C9FA49"/>
<stop offset="0.359375" stop-color="#7A972B"/>
<stop offset="0.682292" stop-color="#3D4C15"/>
<stop offset="1" stop-color="#1C2602"/>
</linearGradient>
<linearGradient id="paint5_linear_22_101" x1="133.419" y1="106.136" x2="159.342" y2="122.197" gradientUnits="userSpaceOnUse">
<stop stop-color="#C9FA49"/>
<stop offset="0.359375" stop-color="#7A972B"/>
<stop offset="0.682292" stop-color="#3D4C15"/>
<stop offset="1" stop-color="#1C2602"/>
</linearGradient>
<linearGradient id="paint6_linear_22_101" x1="117.157" y1="68.3537" x2="124.46" y2="85.0452" gradientUnits="userSpaceOnUse">
<stop stop-color="#C9FA49"/>
<stop offset="0.359375" stop-color="#7A972B"/>
<stop offset="0.682292" stop-color="#3D4C15"/>
<stop offset="1" stop-color="#1C2602"/>
</linearGradient>
<linearGradient id="paint7_linear_22_101" x1="99.375" y1="42.6996" x2="100.625" y2="52.7517" gradientUnits="userSpaceOnUse">
<stop stop-color="#C9FA49"/>
<stop offset="0.359375" stop-color="#7A972B"/>
<stop offset="0.682292" stop-color="#3D4C15"/>
<stop offset="1" stop-color="#1C2602"/>
</linearGradient>
<linearGradient id="paint8_linear_22_101" x1="61.4839" y1="43.101" x2="66.0726" y2="54.9123" gradientUnits="userSpaceOnUse">
<stop stop-color="#C9FA49"/>
<stop offset="0.359375" stop-color="#7A972B"/>
<stop offset="0.682292" stop-color="#3D4C15"/>
<stop offset="1" stop-color="#1C2602"/>
</linearGradient>
<linearGradient id="paint9_linear_22_101" x1="51.6105" y1="63.5176" x2="56.4012" y2="69.2903" gradientUnits="userSpaceOnUse">
<stop stop-color="#C9FA49"/>
<stop offset="0.359375" stop-color="#7A972B"/>
<stop offset="0.682292" stop-color="#3D4C15"/>
<stop offset="1" stop-color="#1C2602"/>
</linearGradient>
<linearGradient id="paint10_linear_22_101" x1="27.9759" y1="117.406" x2="28.4829" y2="119.323" gradientUnits="userSpaceOnUse">
<stop stop-color="#C9FA49"/>
<stop offset="0.359375" stop-color="#7A972B"/>
<stop offset="0.682292" stop-color="#3D4C15"/>
<stop offset="1" stop-color="#1C2602"/>
</linearGradient>
<linearGradient id="paint11_linear_22_101" x1="66.0379" y1="150.156" x2="70.9595" y2="169.198" gradientUnits="userSpaceOnUse">
<stop stop-color="#C9FA49"/>
<stop offset="0.359375" stop-color="#7A972B"/>
<stop offset="0.682292" stop-color="#3D4C15"/>
<stop offset="1" stop-color="#1C2602"/>
</linearGradient>
<linearGradient id="paint12_linear_22_101" x1="30.6396" y1="65.4759" x2="42.9265" y2="82.5369" gradientUnits="userSpaceOnUse">
<stop stop-color="#C9FA49"/>
<stop offset="0.359375" stop-color="#7A972B"/>
<stop offset="0.682292" stop-color="#3D4C15"/>
<stop offset="1" stop-color="#1C2602"/>
</linearGradient>
<linearGradient id="paint13_linear_22_101" x1="56.4771" y1="36.651" x2="122.868" y2="145.791" gradientUnits="userSpaceOnUse">
<stop stop-color="#C9FA49"/>
<stop offset="0.359375" stop-color="#7A972B"/>
<stop offset="0.682292" stop-color="#3D4C15"/>
<stop offset="1" stop-color="#1C2602"/>
</linearGradient>
<linearGradient id="paint14_linear_22_101" x1="81.8274" y1="58.3157" x2="115.51" y2="104.103" gradientUnits="userSpaceOnUse">
<stop stop-color="#C9FA49"/>
<stop offset="0.359375" stop-color="#7A972B"/>
<stop offset="0.682292" stop-color="#3D4C15"/>
<stop offset="1" stop-color="#1C2602"/>
</linearGradient>
<linearGradient id="paint15_linear_22_101" x1="110.336" y1="62.2649" x2="115.241" y2="67.1489" gradientUnits="userSpaceOnUse">
<stop stop-color="#C9FA49"/>
<stop offset="0.359375" stop-color="#7A972B"/>
<stop offset="0.682292" stop-color="#3D4C15"/>
<stop offset="1" stop-color="#1C2602"/>
</linearGradient>
<linearGradient id="paint16_linear_22_101" x1="75.7418" y1="57.2663" x2="81.3165" y2="71.3649" gradientUnits="userSpaceOnUse">
<stop stop-color="#C9FA49"/>
<stop offset="0.359375" stop-color="#7A972B"/>
<stop offset="0.682292" stop-color="#3D4C15"/>
<stop offset="1" stop-color="#1C2602"/>
</linearGradient>
<linearGradient id="paint17_linear_22_101" x1="97.2238" y1="98.3788" x2="104.544" y2="117.537" gradientUnits="userSpaceOnUse">
<stop stop-color="#C9FA49"/>
<stop offset="0.359375" stop-color="#7A972B"/>
<stop offset="0.682292" stop-color="#3D4C15"/>
<stop offset="1" stop-color="#1C2602"/>
</linearGradient>
<linearGradient id="paint18_linear_22_101" x1="111.811" y1="104.245" x2="136.044" y2="136.788" gradientUnits="userSpaceOnUse">
<stop stop-color="#C9FA49"/>
<stop offset="0.359375" stop-color="#7A972B"/>
<stop offset="0.682292" stop-color="#3D4C15"/>
<stop offset="1" stop-color="#1C2602"/>
</linearGradient>
<linearGradient id="paint19_linear_22_101" x1="110.011" y1="103.998" x2="134.531" y2="130.891" gradientUnits="userSpaceOnUse">
<stop stop-color="#C9FA49"/>
<stop offset="0.359375" stop-color="#7A972B"/>
<stop offset="0.682292" stop-color="#3D4C15"/>
<stop offset="1" stop-color="#1C2602"/>
</linearGradient>
<linearGradient id="paint20_linear_22_101" x1="56.7106" y1="36.6023" x2="121.091" y2="145.301" gradientUnits="userSpaceOnUse">
<stop stop-color="#C9FA49"/>
<stop offset="0.359375" stop-color="#7A972B"/>
<stop offset="0.682292" stop-color="#3D4C15"/>
<stop offset="1" stop-color="#1C2602"/>
</linearGradient>
<linearGradient id="paint21_linear_22_101" x1="62.1783" y1="71.2154" x2="68.8007" y2="84.3516" gradientUnits="userSpaceOnUse">
<stop stop-color="#C9FA49"/>
<stop offset="0.359375" stop-color="#7A972B"/>
<stop offset="0.682292" stop-color="#3D4C15"/>
<stop offset="1" stop-color="#1C2602"/>
</linearGradient>
<linearGradient id="paint22_linear_22_101" x1="65.8019" y1="49.7014" x2="69.5958" y2="58.1642" gradientUnits="userSpaceOnUse">
<stop stop-color="#C9FA49"/>
<stop offset="0.359375" stop-color="#7A972B"/>
<stop offset="0.682292" stop-color="#3D4C15"/>
<stop offset="1" stop-color="#1C2602"/>
</linearGradient>
<linearGradient id="paint23_linear_22_101" x1="119.106" y1="115.111" x2="131.312" y2="132.819" gradientUnits="userSpaceOnUse">
<stop stop-color="#C9FA49"/>
<stop offset="0.359375" stop-color="#7A972B"/>
<stop offset="0.682292" stop-color="#3D4C15"/>
<stop offset="1" stop-color="#1C2602"/>
</linearGradient>
<linearGradient id="paint24_linear_22_101" x1="10.458" y1="0.733486" x2="28.0795" y2="28.0292" gradientUnits="userSpaceOnUse">
<stop stop-color="#C9FA49"/>
<stop offset="0.359375" stop-color="#7A972B"/>
<stop offset="0.682292" stop-color="#3D4C15"/>
<stop offset="1" stop-color="#1C2602"/>
</linearGradient>
<linearGradient id="paint25_linear_22_101" x1="11.8941" y1="7.61223" x2="22.5859" y2="28.4824" gradientUnits="userSpaceOnUse">
<stop stop-color="#C9FA49"/>
<stop offset="0.359375" stop-color="#7A972B"/>
<stop offset="0.682292" stop-color="#3D4C15"/>
<stop offset="1" stop-color="#1C2602"/>
</linearGradient>
<linearGradient id="paint26_linear_22_101" x1="9.60926" y1="1.3331" x2="16.1048" y2="14.7612" gradientUnits="userSpaceOnUse">
<stop stop-color="#C9FA49"/>
<stop offset="0.359375" stop-color="#7A972B"/>
<stop offset="0.682292" stop-color="#3D4C15"/>
<stop offset="1" stop-color="#1C2602"/>
</linearGradient>
<linearGradient id="paint27_linear_22_101" x1="12.7726" y1="15.867" x2="18.7321" y2="29.5236" gradientUnits="userSpaceOnUse">
<stop stop-color="#C9FA49"/>
<stop offset="0.359375" stop-color="#7A972B"/>
<stop offset="0.682292" stop-color="#3D4C15"/>
<stop offset="1" stop-color="#1C2602"/>
</linearGradient>
<linearGradient id="paint28_linear_22_101" x1="9.65081" y1="15.6887" x2="14.378" y2="24.529" gradientUnits="userSpaceOnUse">
<stop stop-color="#C9FA49"/>
<stop offset="0.359375" stop-color="#7A972B"/>
<stop offset="0.682292" stop-color="#3D4C15"/>
<stop offset="1" stop-color="#1C2602"/>
</linearGradient>
<linearGradient id="paint29_linear_22_101" x1="12.0962" y1="2.66699" x2="19.9599" y2="10.2365" gradientUnits="userSpaceOnUse">
<stop stop-color="#C9FA49"/>
<stop offset="0.359375" stop-color="#7A972B"/>
<stop offset="0.682292" stop-color="#3D4C15"/>
<stop offset="1" stop-color="#1C2602"/>
</linearGradient>
<linearGradient id="paint30_linear_22_101" x1="13.3761" y1="1.35025" x2="21.8873" y2="8.10191" gradientUnits="userSpaceOnUse">
<stop stop-color="#C9FA49"/>
<stop offset="0.359375" stop-color="#7A972B"/>
<stop offset="0.682292" stop-color="#3D4C15"/>
<stop offset="1" stop-color="#1C2602"/>
</linearGradient>
<linearGradient id="paint31_linear_22_101" x1="20.6576" y1="15.8268" x2="27.0322" y2="25.9473" gradientUnits="userSpaceOnUse">
<stop stop-color="#C9FA49"/>
<stop offset="0.359375" stop-color="#7A972B"/>
<stop offset="0.682292" stop-color="#3D4C15"/>
<stop offset="1" stop-color="#1C2602"/>
</linearGradient>
<linearGradient id="paint32_linear_22_101" x1="12.2293" y1="5.04452" x2="25.9661" y2="25.7351" gradientUnits="userSpaceOnUse">
<stop stop-color="#C9FA49"/>
<stop offset="0.359375" stop-color="#7A972B"/>
<stop offset="0.682292" stop-color="#3D4C15"/>
<stop offset="1" stop-color="#1C2602"/>
</linearGradient>
<linearGradient id="paint33_linear_22_101" x1="157.891" y1="143.61" x2="169.73" y2="161.949" gradientUnits="userSpaceOnUse">
<stop stop-color="#C9FA49"/>
<stop offset="0.359375" stop-color="#7A972B"/>
<stop offset="0.682292" stop-color="#3D4C15"/>
<stop offset="1" stop-color="#1C2602"/>
</linearGradient>
<linearGradient id="paint34_linear_22_101" x1="158.855" y1="148.231" x2="166.039" y2="162.253" gradientUnits="userSpaceOnUse">
<stop stop-color="#C9FA49"/>
<stop offset="0.359375" stop-color="#7A972B"/>
<stop offset="0.682292" stop-color="#3D4C15"/>
<stop offset="1" stop-color="#1C2602"/>
</linearGradient>
<linearGradient id="paint35_linear_22_101" x1="157.32" y1="143.966" x2="161.721" y2="153.017" gradientUnits="userSpaceOnUse">
<stop stop-color="#C9FA49"/>
<stop offset="0.359375" stop-color="#7A972B"/>
<stop offset="0.682292" stop-color="#3D4C15"/>
<stop offset="1" stop-color="#1C2602"/>
</linearGradient>
<linearGradient id="paint36_linear_22_101" x1="159.445" y1="153.778" x2="163.448" y2="162.953" gradientUnits="userSpaceOnUse">
<stop stop-color="#C9FA49"/>
<stop offset="0.359375" stop-color="#7A972B"/>
<stop offset="0.682292" stop-color="#3D4C15"/>
<stop offset="1" stop-color="#1C2602"/>
</linearGradient>
<linearGradient id="paint37_linear_22_101" x1="157.348" y1="153.658" x2="160.524" y2="159.597" gradientUnits="userSpaceOnUse">
<stop stop-color="#C9FA49"/>
<stop offset="0.359375" stop-color="#7A972B"/>
<stop offset="0.682292" stop-color="#3D4C15"/>
<stop offset="1" stop-color="#1C2602"/>
</linearGradient>
<linearGradient id="paint38_linear_22_101" x1="158.99" y1="144.91" x2="164.274" y2="149.995" gradientUnits="userSpaceOnUse">
<stop stop-color="#C9FA49"/>
<stop offset="0.359375" stop-color="#7A972B"/>
<stop offset="0.682292" stop-color="#3D4C15"/>
<stop offset="1" stop-color="#1C2602"/>
</linearGradient>
<linearGradient id="paint39_linear_22_101" x1="159.851" y1="144.025" x2="165.569" y2="148.561" gradientUnits="userSpaceOnUse">
<stop stop-color="#C9FA49"/>
<stop offset="0.359375" stop-color="#7A972B"/>
<stop offset="0.682292" stop-color="#3D4C15"/>
<stop offset="1" stop-color="#1C2602"/>
</linearGradient>
<linearGradient id="paint40_linear_22_101" x1="164.743" y1="153.751" x2="169.025" y2="160.55" gradientUnits="userSpaceOnUse">
<stop stop-color="#C9FA49"/>
<stop offset="0.359375" stop-color="#7A972B"/>
<stop offset="0.682292" stop-color="#3D4C15"/>
<stop offset="1" stop-color="#1C2602"/>
</linearGradient>
<linearGradient id="paint41_linear_22_101" x1="159.081" y1="146.507" x2="168.31" y2="160.409" gradientUnits="userSpaceOnUse">
<stop stop-color="#C9FA49"/>
<stop offset="0.359375" stop-color="#7A972B"/>
<stop offset="0.682292" stop-color="#3D4C15"/>
<stop offset="1" stop-color="#1C2602"/>
</linearGradient>
<linearGradient id="paint42_linear_22_101" x1="2.50726" y1="120.445" x2="9.14268" y2="130.712" gradientUnits="userSpaceOnUse">
<stop stop-color="#C9FA49"/>
<stop offset="0.359375" stop-color="#7A972B"/>
<stop offset="0.682292" stop-color="#3D4C15"/>
<stop offset="1" stop-color="#1C2602"/>
</linearGradient>
<linearGradient id="paint43_linear_22_101" x1="3.15401" y1="122.71" x2="7.4761" y2="130.701" gradientUnits="userSpaceOnUse">
<stop stop-color="#C9FA49"/>
<stop offset="0.359375" stop-color="#7A972B"/>
<stop offset="0.682292" stop-color="#3D4C15"/>
<stop offset="1" stop-color="#1C2602"/>
</linearGradient>
<linearGradient id="paint44_linear_22_101" x1="2.05243" y1="120.71" x2="4.79652" y2="125.869" gradientUnits="userSpaceOnUse">
<stop stop-color="#C9FA49"/>
<stop offset="0.359375" stop-color="#7A972B"/>
<stop offset="0.682292" stop-color="#3D4C15"/>
<stop offset="1" stop-color="#1C2602"/>
</linearGradient>
<linearGradient id="paint45_linear_22_101" x1="3.77148" y1="126.183" x2="5.75766" y2="131.089" gradientUnits="userSpaceOnUse">
<stop stop-color="#C9FA49"/>
<stop offset="0.359375" stop-color="#7A972B"/>
<stop offset="0.682292" stop-color="#3D4C15"/>
<stop offset="1" stop-color="#1C2602"/>
</linearGradient>
<linearGradient id="paint46_linear_22_101" x1="2.4648" y1="126.133" x2="4.56585" y2="129.462" gradientUnits="userSpaceOnUse">
<stop stop-color="#C9FA49"/>
<stop offset="0.359375" stop-color="#7A972B"/>
<stop offset="0.682292" stop-color="#3D4C15"/>
<stop offset="1" stop-color="#1C2602"/>
</linearGradient>
<linearGradient id="paint47_linear_22_101" x1="2.82141" y1="121.472" x2="5.60532" y2="124.681" gradientUnits="userSpaceOnUse">
<stop stop-color="#C9FA49"/>
<stop offset="0.359375" stop-color="#7A972B"/>
<stop offset="0.682292" stop-color="#3D4C15"/>
<stop offset="1" stop-color="#1C2602"/>
</linearGradient>
<linearGradient id="paint48_linear_22_101" x1="3.31808" y1="120.904" x2="6.47712" y2="123.884" gradientUnits="userSpaceOnUse">
<stop stop-color="#C9FA49"/>
<stop offset="0.359375" stop-color="#7A972B"/>
<stop offset="0.682292" stop-color="#3D4C15"/>
<stop offset="1" stop-color="#1C2602"/>
</linearGradient>
<linearGradient id="paint49_linear_22_101" x1="6.43448" y1="126.155" x2="8.47391" y2="129.96" gradientUnits="userSpaceOnUse">
<stop stop-color="#C9FA49"/>
<stop offset="0.359375" stop-color="#7A972B"/>
<stop offset="0.682292" stop-color="#3D4C15"/>
<stop offset="1" stop-color="#1C2602"/>
</linearGradient>
<linearGradient id="paint50_linear_22_101" x1="3.35165" y1="122.135" x2="8.32401" y2="129.91" gradientUnits="userSpaceOnUse">
<stop stop-color="#C9FA49"/>
<stop offset="0.359375" stop-color="#7A972B"/>
<stop offset="0.682292" stop-color="#3D4C15"/>
<stop offset="1" stop-color="#1C2602"/>
</linearGradient>
<clipPath id="clip0_22_101">
<rect width="174" height="167" fill="white"/>
</clipPath>
</defs>
</svg>
