<svg width="236" height="50" viewBox="0 0 236 50" fill="none" xmlns="http://www.w3.org/2000/svg">
<g clip-path="url(#clip0_423_48)">
<path d="M12.0941 0.877197C5.42986 0.877197 0 5.66706 0 11.5458V36.6867C0 42.5655 5.42986 47.3553 12.0941 47.3553H40.5942C47.2584 47.3553 52.6883 42.5655 52.6883 36.6867V11.5458C52.6883 5.66706 47.2584 0.877197 40.5942 0.877197H12.0941ZM12.0941 3.2011H40.5942C45.8348 3.2011 50.0539 6.92287 50.0539 11.5458V36.6867C50.0539 41.3097 45.8348 45.0314 40.5942 45.0314H12.0941C6.85346 45.0314 2.63441 41.3097 2.63441 36.6867V11.5458C2.63441 6.92287 6.85346 3.2011 12.0941 3.2011Z" fill="black"/>
<path d="M22.4432 30.8182V30.6477C22.4621 28.839 22.6515 27.3996 23.0114 26.3295C23.3712 25.2595 23.8826 24.393 24.5455 23.7301C25.2083 23.0672 26.0038 22.4564 26.9318 21.8977C27.4905 21.5568 27.9924 21.1544 28.4375 20.6903C28.8826 20.2169 29.233 19.6723 29.4886 19.0568C29.7538 18.4413 29.8864 17.7595 29.8864 17.0114C29.8864 16.0833 29.6686 15.2784 29.233 14.5966C28.7973 13.9148 28.215 13.3892 27.4858 13.0199C26.7566 12.6506 25.947 12.4659 25.0568 12.4659C24.2803 12.4659 23.5322 12.6269 22.8125 12.9489C22.0928 13.2708 21.4915 13.7775 21.0085 14.4688C20.5256 15.16 20.2462 16.0644 20.1705 17.1818H16.5909C16.6667 15.572 17.0833 14.1941 17.8409 13.0483C18.608 11.9025 19.6165 11.0265 20.8665 10.4205C22.1259 9.81439 23.5227 9.51136 25.0568 9.51136C26.7235 9.51136 28.1723 9.8428 29.4034 10.5057C30.6439 11.1686 31.6004 12.0777 32.2727 13.233C32.9545 14.3883 33.2955 15.7045 33.2955 17.1818C33.2955 18.2235 33.1345 19.1657 32.8125 20.0085C32.5 20.8513 32.0455 21.6042 31.4489 22.267C30.8617 22.9299 30.1515 23.517 29.3182 24.0284C28.4848 24.5492 27.8172 25.0985 27.3153 25.6761C26.8134 26.2443 26.4489 26.9214 26.2216 27.7074C25.9943 28.4934 25.8712 29.4735 25.8523 30.6477V30.8182H22.4432ZM24.2614 39.2273C23.5606 39.2273 22.9593 38.9763 22.4574 38.4744C21.9555 37.9725 21.7045 37.3712 21.7045 36.6705C21.7045 35.9697 21.9555 35.3684 22.4574 34.8665C22.9593 34.3646 23.5606 34.1136 24.2614 34.1136C24.9621 34.1136 25.5634 34.3646 26.0653 34.8665C26.5672 35.3684 26.8182 35.9697 26.8182 36.6705C26.8182 37.1345 26.6998 37.5606 26.4631 37.9489C26.2358 38.3371 25.928 38.6496 25.5398 38.8864C25.161 39.1136 24.7348 39.2273 24.2614 39.2273Z" fill="black"/>
<mask id="path-3-outside-1_423_48" maskUnits="userSpaceOnUse" x="53.6865" y="7" width="179" height="41" fill="black">
<rect fill="white" x="53.6865" y="7" width="179" height="41"/>
<path d="M55.7093 8.90909H59.7433L67.8115 22.4886H68.1524L76.2206 8.90909H80.2547L69.7433 26.0114V38H66.2206V26.0114L55.7093 8.90909ZM90.134 38.4545C88.1643 38.4545 86.4361 37.9858 84.9493 37.0483C83.472 36.1108 82.3167 34.7992 81.4834 33.1136C80.6595 31.428 80.2476 29.4583 80.2476 27.2045C80.2476 24.9318 80.6595 22.9479 81.4834 21.2528C82.3167 19.5578 83.472 18.2415 84.9493 17.304C86.4361 16.3665 88.1643 15.8977 90.134 15.8977C92.1037 15.8977 93.8271 16.3665 95.3044 17.304C96.7912 18.2415 97.9465 19.5578 98.7703 21.2528C99.6037 22.9479 100.02 24.9318 100.02 27.2045C100.02 29.4583 99.6037 31.428 98.7703 33.1136C97.9465 34.7992 96.7912 36.1108 95.3044 37.0483C93.8271 37.9858 92.1037 38.4545 90.134 38.4545ZM90.134 35.4432C91.6302 35.4432 92.8612 35.0597 93.8271 34.2926C94.7931 33.5256 95.508 32.517 95.972 31.267C96.4361 30.017 96.6681 28.6629 96.6681 27.2045C96.6681 25.7462 96.4361 24.3873 95.972 23.1278C95.508 21.8684 94.7931 20.8504 93.8271 20.0739C92.8612 19.2973 91.6302 18.9091 90.134 18.9091C88.6378 18.9091 87.4067 19.2973 86.4408 20.0739C85.4749 20.8504 84.7599 21.8684 84.2959 23.1278C83.8319 24.3873 83.5999 25.7462 83.5999 27.2045C83.5999 28.6629 83.8319 30.017 84.2959 31.267C84.7599 32.517 85.4749 33.5256 86.4408 34.2926C87.4067 35.0597 88.6378 35.4432 90.134 35.4432ZM118.888 29.0795V16.1818H122.24V38H118.888V34.3068H118.66C118.149 35.4148 117.353 36.357 116.274 37.1335C115.194 37.9006 113.831 38.2841 112.183 38.2841C110.819 38.2841 109.607 37.9858 108.547 37.3892C107.486 36.7831 106.653 35.8741 106.047 34.6619C105.441 33.4403 105.138 31.9015 105.138 30.0455V16.1818H108.49V29.8182C108.49 31.4091 108.935 32.678 109.825 33.625C110.725 34.572 111.87 35.0455 113.263 35.0455C114.096 35.0455 114.943 34.8324 115.805 34.4062C116.676 33.9801 117.406 33.3267 117.993 32.446C118.589 31.5653 118.888 30.4432 118.888 29.0795ZM128.38 38V16.1818H131.618V19.4773H131.846C132.243 18.3977 132.963 17.5218 134.005 16.8494C135.046 16.1771 136.221 15.8409 137.527 15.8409C137.774 15.8409 138.081 15.8456 138.451 15.8551C138.82 15.8646 139.099 15.8788 139.289 15.8977V19.3068C139.175 19.2784 138.915 19.2358 138.508 19.179C138.11 19.1127 137.688 19.0795 137.243 19.0795C136.183 19.0795 135.236 19.3021 134.402 19.7472C133.579 20.1828 132.925 20.7888 132.442 21.5653C131.969 22.3324 131.732 23.2083 131.732 24.1932V38H128.38ZM157.865 8.90909V38H154.513V8.90909H157.865ZM172.868 38.4545C170.899 38.4545 169.17 37.9858 167.684 37.0483C166.206 36.1108 165.051 34.7992 164.218 33.1136C163.394 31.428 162.982 29.4583 162.982 27.2045C162.982 24.9318 163.394 22.9479 164.218 21.2528C165.051 19.5578 166.206 18.2415 167.684 17.304C169.17 16.3665 170.899 15.8977 172.868 15.8977C174.838 15.8977 176.562 16.3665 178.039 17.304C179.526 18.2415 180.681 19.5578 181.505 21.2528C182.338 22.9479 182.755 24.9318 182.755 27.2045C182.755 29.4583 182.338 31.428 181.505 33.1136C180.681 34.7992 179.526 36.1108 178.039 37.0483C176.562 37.9858 174.838 38.4545 172.868 38.4545ZM172.868 35.4432C174.365 35.4432 175.596 35.0597 176.562 34.2926C177.527 33.5256 178.242 32.517 178.706 31.267C179.17 30.017 179.402 28.6629 179.402 27.2045C179.402 25.7462 179.17 24.3873 178.706 23.1278C178.242 21.8684 177.527 20.8504 176.562 20.0739C175.596 19.2973 174.365 18.9091 172.868 18.9091C171.372 18.9091 170.141 19.2973 169.175 20.0739C168.209 20.8504 167.494 21.8684 167.03 23.1278C166.566 24.3873 166.334 25.7462 166.334 27.2045C166.334 28.6629 166.566 30.017 167.03 31.267C167.494 32.517 168.209 33.5256 169.175 34.2926C170.141 35.0597 171.372 35.4432 172.868 35.4432ZM196.679 46.6364C195.059 46.6364 193.667 46.428 192.503 46.0114C191.338 45.6042 190.367 45.0644 189.591 44.392C188.824 43.7292 188.213 43.0189 187.758 42.2614L190.429 40.3864C190.732 40.7841 191.115 41.2386 191.579 41.75C192.043 42.2708 192.678 42.7206 193.483 43.0994C194.297 43.4877 195.362 43.6818 196.679 43.6818C198.44 43.6818 199.894 43.2557 201.04 42.4034C202.185 41.5511 202.758 40.2159 202.758 38.3977V33.9659H202.474C202.228 34.3636 201.878 34.8561 201.423 35.4432C200.978 36.0208 200.334 36.5369 199.491 36.9915C198.658 37.4366 197.531 37.6591 196.111 37.6591C194.349 37.6591 192.768 37.2424 191.366 36.4091C189.974 35.5758 188.871 34.3636 188.057 32.7727C187.252 31.1818 186.849 29.25 186.849 26.9773C186.849 24.7424 187.242 22.7964 188.028 21.1392C188.814 19.4725 189.908 18.1847 191.309 17.2756C192.711 16.357 194.33 15.8977 196.167 15.8977C197.588 15.8977 198.715 16.1345 199.548 16.608C200.391 17.072 201.035 17.6023 201.48 18.1989C201.934 18.786 202.285 19.2689 202.531 19.6477H202.872V16.1818H206.111V38.625C206.111 40.5 205.684 42.0246 204.832 43.1989C203.989 44.3826 202.853 45.2491 201.423 45.7983C200.003 46.357 198.421 46.6364 196.679 46.6364ZM196.565 34.6477C197.91 34.6477 199.046 34.34 199.974 33.7244C200.902 33.1089 201.608 32.2235 202.091 31.0682C202.574 29.9129 202.815 28.5303 202.815 26.9205C202.815 25.3485 202.578 23.9612 202.105 22.7585C201.631 21.5559 200.931 20.6136 200.003 19.9318C199.075 19.25 197.929 18.9091 196.565 18.9091C195.145 18.9091 193.961 19.2689 193.014 19.9886C192.076 20.7083 191.371 21.6742 190.897 22.8864C190.433 24.0985 190.201 25.4432 190.201 26.9205C190.201 28.4356 190.438 29.7756 190.912 30.9403C191.395 32.0956 192.105 33.0047 193.042 33.6676C193.989 34.321 195.164 34.6477 196.565 34.6477ZM221.111 38.4545C219.141 38.4545 217.413 37.9858 215.926 37.0483C214.449 36.1108 213.293 34.7992 212.46 33.1136C211.636 31.428 211.224 29.4583 211.224 27.2045C211.224 24.9318 211.636 22.9479 212.46 21.2528C213.293 19.5578 214.449 18.2415 215.926 17.304C217.413 16.3665 219.141 15.8977 221.111 15.8977C223.08 15.8977 224.804 16.3665 226.281 17.304C227.768 18.2415 228.923 19.5578 229.747 21.2528C230.58 22.9479 230.997 24.9318 230.997 27.2045C230.997 29.4583 230.58 31.428 229.747 33.1136C228.923 34.7992 227.768 36.1108 226.281 37.0483C224.804 37.9858 223.08 38.4545 221.111 38.4545ZM221.111 35.4432C222.607 35.4432 223.838 35.0597 224.804 34.2926C225.77 33.5256 226.485 32.517 226.949 31.267C227.413 30.017 227.645 28.6629 227.645 27.2045C227.645 25.7462 227.413 24.3873 226.949 23.1278C226.485 21.8684 225.77 20.8504 224.804 20.0739C223.838 19.2973 222.607 18.9091 221.111 18.9091C219.614 18.9091 218.383 19.2973 217.417 20.0739C216.451 20.8504 215.736 21.8684 215.272 23.1278C214.808 24.3873 214.576 25.7462 214.576 27.2045C214.576 28.6629 214.808 30.017 215.272 31.267C215.736 32.517 216.451 33.5256 217.417 34.2926C218.383 35.0597 219.614 35.4432 221.111 35.4432Z"/>
</mask>
<path d="M55.7093 8.90909H59.7433L67.8115 22.4886H68.1524L76.2206 8.90909H80.2547L69.7433 26.0114V38H66.2206V26.0114L55.7093 8.90909ZM90.134 38.4545C88.1643 38.4545 86.4361 37.9858 84.9493 37.0483C83.472 36.1108 82.3167 34.7992 81.4834 33.1136C80.6595 31.428 80.2476 29.4583 80.2476 27.2045C80.2476 24.9318 80.6595 22.9479 81.4834 21.2528C82.3167 19.5578 83.472 18.2415 84.9493 17.304C86.4361 16.3665 88.1643 15.8977 90.134 15.8977C92.1037 15.8977 93.8271 16.3665 95.3044 17.304C96.7912 18.2415 97.9465 19.5578 98.7703 21.2528C99.6037 22.9479 100.02 24.9318 100.02 27.2045C100.02 29.4583 99.6037 31.428 98.7703 33.1136C97.9465 34.7992 96.7912 36.1108 95.3044 37.0483C93.8271 37.9858 92.1037 38.4545 90.134 38.4545ZM90.134 35.4432C91.6302 35.4432 92.8612 35.0597 93.8271 34.2926C94.7931 33.5256 95.508 32.517 95.972 31.267C96.4361 30.017 96.6681 28.6629 96.6681 27.2045C96.6681 25.7462 96.4361 24.3873 95.972 23.1278C95.508 21.8684 94.7931 20.8504 93.8271 20.0739C92.8612 19.2973 91.6302 18.9091 90.134 18.9091C88.6378 18.9091 87.4067 19.2973 86.4408 20.0739C85.4749 20.8504 84.7599 21.8684 84.2959 23.1278C83.8319 24.3873 83.5999 25.7462 83.5999 27.2045C83.5999 28.6629 83.8319 30.017 84.2959 31.267C84.7599 32.517 85.4749 33.5256 86.4408 34.2926C87.4067 35.0597 88.6378 35.4432 90.134 35.4432ZM118.888 29.0795V16.1818H122.24V38H118.888V34.3068H118.66C118.149 35.4148 117.353 36.357 116.274 37.1335C115.194 37.9006 113.831 38.2841 112.183 38.2841C110.819 38.2841 109.607 37.9858 108.547 37.3892C107.486 36.7831 106.653 35.8741 106.047 34.6619C105.441 33.4403 105.138 31.9015 105.138 30.0455V16.1818H108.49V29.8182C108.49 31.4091 108.935 32.678 109.825 33.625C110.725 34.572 111.87 35.0455 113.263 35.0455C114.096 35.0455 114.943 34.8324 115.805 34.4062C116.676 33.9801 117.406 33.3267 117.993 32.446C118.589 31.5653 118.888 30.4432 118.888 29.0795ZM128.38 38V16.1818H131.618V19.4773H131.846C132.243 18.3977 132.963 17.5218 134.005 16.8494C135.046 16.1771 136.221 15.8409 137.527 15.8409C137.774 15.8409 138.081 15.8456 138.451 15.8551C138.82 15.8646 139.099 15.8788 139.289 15.8977V19.3068C139.175 19.2784 138.915 19.2358 138.508 19.179C138.11 19.1127 137.688 19.0795 137.243 19.0795C136.183 19.0795 135.236 19.3021 134.402 19.7472C133.579 20.1828 132.925 20.7888 132.442 21.5653C131.969 22.3324 131.732 23.2083 131.732 24.1932V38H128.38ZM157.865 8.90909V38H154.513V8.90909H157.865ZM172.868 38.4545C170.899 38.4545 169.17 37.9858 167.684 37.0483C166.206 36.1108 165.051 34.7992 164.218 33.1136C163.394 31.428 162.982 29.4583 162.982 27.2045C162.982 24.9318 163.394 22.9479 164.218 21.2528C165.051 19.5578 166.206 18.2415 167.684 17.304C169.17 16.3665 170.899 15.8977 172.868 15.8977C174.838 15.8977 176.562 16.3665 178.039 17.304C179.526 18.2415 180.681 19.5578 181.505 21.2528C182.338 22.9479 182.755 24.9318 182.755 27.2045C182.755 29.4583 182.338 31.428 181.505 33.1136C180.681 34.7992 179.526 36.1108 178.039 37.0483C176.562 37.9858 174.838 38.4545 172.868 38.4545ZM172.868 35.4432C174.365 35.4432 175.596 35.0597 176.562 34.2926C177.527 33.5256 178.242 32.517 178.706 31.267C179.17 30.017 179.402 28.6629 179.402 27.2045C179.402 25.7462 179.17 24.3873 178.706 23.1278C178.242 21.8684 177.527 20.8504 176.562 20.0739C175.596 19.2973 174.365 18.9091 172.868 18.9091C171.372 18.9091 170.141 19.2973 169.175 20.0739C168.209 20.8504 167.494 21.8684 167.03 23.1278C166.566 24.3873 166.334 25.7462 166.334 27.2045C166.334 28.6629 166.566 30.017 167.03 31.267C167.494 32.517 168.209 33.5256 169.175 34.2926C170.141 35.0597 171.372 35.4432 172.868 35.4432ZM196.679 46.6364C195.059 46.6364 193.667 46.428 192.503 46.0114C191.338 45.6042 190.367 45.0644 189.591 44.392C188.824 43.7292 188.213 43.0189 187.758 42.2614L190.429 40.3864C190.732 40.7841 191.115 41.2386 191.579 41.75C192.043 42.2708 192.678 42.7206 193.483 43.0994C194.297 43.4877 195.362 43.6818 196.679 43.6818C198.44 43.6818 199.894 43.2557 201.04 42.4034C202.185 41.5511 202.758 40.2159 202.758 38.3977V33.9659H202.474C202.228 34.3636 201.878 34.8561 201.423 35.4432C200.978 36.0208 200.334 36.5369 199.491 36.9915C198.658 37.4366 197.531 37.6591 196.111 37.6591C194.349 37.6591 192.768 37.2424 191.366 36.4091C189.974 35.5758 188.871 34.3636 188.057 32.7727C187.252 31.1818 186.849 29.25 186.849 26.9773C186.849 24.7424 187.242 22.7964 188.028 21.1392C188.814 19.4725 189.908 18.1847 191.309 17.2756C192.711 16.357 194.33 15.8977 196.167 15.8977C197.588 15.8977 198.715 16.1345 199.548 16.608C200.391 17.072 201.035 17.6023 201.48 18.1989C201.934 18.786 202.285 19.2689 202.531 19.6477H202.872V16.1818H206.111V38.625C206.111 40.5 205.684 42.0246 204.832 43.1989C203.989 44.3826 202.853 45.2491 201.423 45.7983C200.003 46.357 198.421 46.6364 196.679 46.6364ZM196.565 34.6477C197.91 34.6477 199.046 34.34 199.974 33.7244C200.902 33.1089 201.608 32.2235 202.091 31.0682C202.574 29.9129 202.815 28.5303 202.815 26.9205C202.815 25.3485 202.578 23.9612 202.105 22.7585C201.631 21.5559 200.931 20.6136 200.003 19.9318C199.075 19.25 197.929 18.9091 196.565 18.9091C195.145 18.9091 193.961 19.2689 193.014 19.9886C192.076 20.7083 191.371 21.6742 190.897 22.8864C190.433 24.0985 190.201 25.4432 190.201 26.9205C190.201 28.4356 190.438 29.7756 190.912 30.9403C191.395 32.0956 192.105 33.0047 193.042 33.6676C193.989 34.321 195.164 34.6477 196.565 34.6477ZM221.111 38.4545C219.141 38.4545 217.413 37.9858 215.926 37.0483C214.449 36.1108 213.293 34.7992 212.46 33.1136C211.636 31.428 211.224 29.4583 211.224 27.2045C211.224 24.9318 211.636 22.9479 212.46 21.2528C213.293 19.5578 214.449 18.2415 215.926 17.304C217.413 16.3665 219.141 15.8977 221.111 15.8977C223.08 15.8977 224.804 16.3665 226.281 17.304C227.768 18.2415 228.923 19.5578 229.747 21.2528C230.58 22.9479 230.997 24.9318 230.997 27.2045C230.997 29.4583 230.58 31.428 229.747 33.1136C228.923 34.7992 227.768 36.1108 226.281 37.0483C224.804 37.9858 223.08 38.4545 221.111 38.4545ZM221.111 35.4432C222.607 35.4432 223.838 35.0597 224.804 34.2926C225.77 33.5256 226.485 32.517 226.949 31.267C227.413 30.017 227.645 28.6629 227.645 27.2045C227.645 25.7462 227.413 24.3873 226.949 23.1278C226.485 21.8684 225.77 20.8504 224.804 20.0739C223.838 19.2973 222.607 18.9091 221.111 18.9091C219.614 18.9091 218.383 19.2973 217.417 20.0739C216.451 20.8504 215.736 21.8684 215.272 23.1278C214.808 24.3873 214.576 25.7462 214.576 27.2045C214.576 28.6629 214.808 30.017 215.272 31.267C215.736 32.517 216.451 33.5256 217.417 34.2926C218.383 35.0597 219.614 35.4432 221.111 35.4432Z" fill="black"/>
<path d="M55.7093 8.90909V7.90909H53.9209L54.8573 9.43271L55.7093 8.90909ZM59.7433 8.90909L60.603 8.3983L60.3124 7.90909H59.7433V8.90909ZM67.8115 22.4886L66.9518 22.9994L67.2425 23.4886H67.8115V22.4886ZM68.1524 22.4886V23.4886H68.7215L69.0121 22.9994L68.1524 22.4886ZM76.2206 8.90909V7.90909H75.6516L75.3609 8.3983L76.2206 8.90909ZM80.2547 8.90909L81.1067 9.43271L82.0431 7.90909H80.2547V8.90909ZM69.7433 26.0114L68.8914 25.4877L68.7433 25.7286V26.0114H69.7433ZM69.7433 38V39H70.7433V38H69.7433ZM66.2206 38H65.2206V39H66.2206V38ZM66.2206 26.0114H67.2206V25.7286L67.0726 25.4877L66.2206 26.0114ZM55.7093 9.90909H59.7433V7.90909H55.7093V9.90909ZM58.8836 9.41988L66.9518 22.9994L68.6712 21.9778L60.603 8.3983L58.8836 9.41988ZM67.8115 23.4886H68.1524V21.4886H67.8115V23.4886ZM69.0121 22.9994L77.0803 9.41988L75.3609 8.3983L67.2927 21.9778L69.0121 22.9994ZM76.2206 9.90909H80.2547V7.90909H76.2206V9.90909ZM79.4028 8.38547L68.8914 25.4877L70.5953 26.535L81.1067 9.43271L79.4028 8.38547ZM68.7433 26.0114V38H70.7433V26.0114H68.7433ZM69.7433 37H66.2206V39H69.7433V37ZM67.2206 38V26.0114H65.2206V38H67.2206ZM67.0726 25.4877L56.5612 8.38547L54.8573 9.43271L65.3687 26.535L67.0726 25.4877ZM84.9493 37.0483L84.4135 37.8926L84.4159 37.8942L84.9493 37.0483ZM81.4834 33.1136L80.585 33.5528L80.587 33.5568L81.4834 33.1136ZM81.4834 21.2528L80.586 20.8116L80.584 20.8157L81.4834 21.2528ZM84.9493 17.304L84.4159 16.4581L84.4135 16.4596L84.9493 17.304ZM95.3044 17.304L94.7686 18.1483L94.771 18.1499L95.3044 17.304ZM98.7703 21.2528L97.8709 21.69L97.8729 21.694L98.7703 21.2528ZM98.7703 33.1136L97.8739 32.6705L97.8719 32.6745L98.7703 33.1136ZM95.3044 37.0483L94.771 36.2024L94.7686 36.204L95.3044 37.0483ZM93.8271 34.2926L93.2053 33.5095L93.2053 33.5095L93.8271 34.2926ZM95.972 31.267L96.9095 31.6151L96.9095 31.6151L95.972 31.267ZM95.972 23.1278L96.9104 22.7821L96.9104 22.7821L95.972 23.1278ZM93.8271 20.0739L94.4537 19.2945L94.4537 19.2945L93.8271 20.0739ZM86.4408 20.0739L85.8142 19.2945L85.8142 19.2945L86.4408 20.0739ZM84.2959 23.1278L83.3576 22.7821L83.3576 22.7821L84.2959 23.1278ZM84.2959 31.267L83.3584 31.6151L83.3584 31.6151L84.2959 31.267ZM86.4408 34.2926L87.0627 33.5095L87.0627 33.5095L86.4408 34.2926ZM90.134 37.4545C88.3296 37.4545 86.791 37.0274 85.4827 36.2024L84.4159 37.8942C86.0811 38.9442 87.999 39.4545 90.134 39.4545V37.4545ZM85.4851 36.204C84.1741 35.372 83.1383 34.2046 82.3798 32.6705L80.587 33.5568C81.4952 35.3939 82.77 36.8496 84.4135 37.8926L85.4851 36.204ZM82.3818 32.6745C81.6369 31.1505 81.2476 29.3364 81.2476 27.2045H79.2476C79.2476 29.5803 79.6821 31.7056 80.585 33.5528L82.3818 32.6745ZM81.2476 27.2045C81.2476 25.0525 81.6374 23.2236 82.3828 21.69L80.584 20.8157C79.6817 22.6722 79.2476 24.8111 79.2476 27.2045H81.2476ZM82.3808 21.694C83.1397 20.1504 84.1755 18.9794 85.4851 18.1483L84.4135 16.4596C82.7686 17.5035 81.4938 18.9651 80.586 20.8117L82.3808 21.694ZM85.4827 18.1499C86.791 17.3249 88.3296 16.8977 90.134 16.8977V14.8977C87.999 14.8977 86.0811 15.4081 84.4159 16.4581L85.4827 18.1499ZM90.134 16.8977C91.9385 16.8977 93.4711 17.3249 94.7686 18.1483L95.8402 16.4596C94.1832 15.4081 92.2689 14.8977 90.134 14.8977V16.8977ZM94.771 18.1499C96.0886 18.9807 97.1224 20.15 97.8709 21.69L99.6697 20.8157C98.7705 18.9655 97.4937 17.5023 95.8378 16.4581L94.771 18.1499ZM97.8729 21.694C98.6264 23.2267 99.0203 25.0541 99.0203 27.2045H101.02C101.02 24.8096 100.581 22.6691 99.6677 20.8117L97.8729 21.694ZM99.0203 27.2045C99.0203 29.3348 98.6269 31.1474 97.8739 32.6705L99.6668 33.5568C100.58 31.7087 101.02 29.5819 101.02 27.2045H99.0203ZM97.8719 32.6745C97.1239 34.205 96.09 35.3707 94.771 36.2024L95.8378 37.8942C97.4923 36.8509 98.7691 35.3935 99.6688 33.5528L97.8719 32.6745ZM94.7686 36.204C93.4711 37.0274 91.9385 37.4545 90.134 37.4545V39.4545C92.2689 39.4545 94.1832 38.9442 95.8402 37.8926L94.7686 36.204ZM90.134 36.4432C91.8064 36.4432 93.2709 36.0113 94.449 35.0757L93.2053 33.5095C92.4515 34.1081 91.454 34.4432 90.134 34.4432V36.4432ZM94.449 35.0757C95.5694 34.186 96.3873 33.0218 96.9095 31.6151L95.0345 30.919C94.6287 32.0123 94.0167 32.8651 93.2053 33.5095L94.449 35.0757ZM96.9095 31.6151C97.4186 30.2437 97.6681 28.7705 97.6681 27.2045H95.6681C95.6681 28.5552 95.4535 29.7904 95.0345 30.919L96.9095 31.6151ZM97.6681 27.2045C97.6681 25.6385 97.4186 24.1615 96.9104 22.7821L95.0337 23.4735C95.4535 24.6131 95.6681 25.854 95.6681 27.2045H97.6681ZM96.9104 22.7821C96.3891 21.3671 95.5726 20.194 94.4537 19.2945L93.2006 20.8532C94.0135 21.5068 94.627 22.3696 95.0337 23.4735L96.9104 22.7821ZM94.4537 19.2945C93.2755 18.3473 91.8092 17.9091 90.134 17.9091V19.9091C91.4512 19.9091 92.447 20.2474 93.2006 20.8532L94.4537 19.2945ZM90.134 17.9091C88.4588 17.9091 86.9924 18.3473 85.8142 19.2945L87.0673 20.8532C87.8209 20.2474 88.8167 19.9091 90.134 19.9091V17.9091ZM85.8142 19.2945C84.6953 20.194 83.8789 21.3671 83.3576 22.7821L85.2342 23.4735C85.641 22.3696 86.2544 21.5068 87.0673 20.8532L85.8142 19.2945ZM83.3576 22.7821C82.8494 24.1615 82.5999 25.6385 82.5999 27.2045H84.5999C84.5999 25.854 84.8144 24.6131 85.2342 23.4735L83.3576 22.7821ZM82.5999 27.2045C82.5999 28.7705 82.8493 30.2437 83.3584 31.6151L85.2334 30.919C84.8144 29.7904 84.5999 28.5552 84.5999 27.2045H82.5999ZM83.3584 31.6151C83.8806 33.0218 84.6985 34.186 85.8189 35.0757L87.0627 33.5095C86.2512 32.8651 85.6392 32.0123 85.2334 30.919L83.3584 31.6151ZM85.8189 35.0757C86.997 36.0113 88.4616 36.4432 90.134 36.4432V34.4432C88.8139 34.4432 87.8164 34.1081 87.0627 33.5095L85.8189 35.0757ZM118.888 16.1818V15.1818H117.888V16.1818H118.888ZM122.24 16.1818H123.24V15.1818H122.24V16.1818ZM122.24 38V39H123.24V38H122.24ZM118.888 38H117.888V39H118.888V38ZM118.888 34.3068H119.888V33.3068H118.888V34.3068ZM118.66 34.3068V33.3068H118.02L117.752 33.8878L118.66 34.3068ZM116.274 37.1335L116.853 37.9487L116.858 37.9453L116.274 37.1335ZM108.547 37.3892L108.05 38.2575L108.056 38.2608L108.547 37.3892ZM106.047 34.6619L105.151 35.1064L105.152 35.1091L106.047 34.6619ZM105.138 16.1818V15.1818H104.138V16.1818H105.138ZM108.49 16.1818H109.49V15.1818H108.49V16.1818ZM109.825 33.625L109.096 34.3099L109.1 34.3137L109.825 33.625ZM115.805 34.4062L115.366 33.5079L115.362 33.5099L115.805 34.4062ZM117.993 32.446L117.165 31.8852L117.161 31.8913L117.993 32.446ZM119.888 29.0795V16.1818H117.888V29.0795H119.888ZM118.888 17.1818H122.24V15.1818H118.888V17.1818ZM121.24 16.1818V38H123.24V16.1818H121.24ZM122.24 37H118.888V39H122.24V37ZM119.888 38V34.3068H117.888V38H119.888ZM118.888 33.3068H118.66V35.3068H118.888V33.3068ZM117.752 33.8878C117.32 34.8252 116.642 35.6367 115.69 36.3217L116.858 37.9453C118.065 37.0773 118.978 36.0044 119.568 34.7259L117.752 33.8878ZM115.695 36.3183C114.822 36.9386 113.674 37.2841 112.183 37.2841V39.2841C113.987 39.2841 115.567 38.8626 116.853 37.9487L115.695 36.3183ZM112.183 37.2841C110.97 37.2841 109.93 37.0202 109.037 36.5176L108.056 38.2608C109.284 38.9513 110.669 39.2841 112.183 39.2841V37.2841ZM109.043 36.521C108.172 36.0234 107.469 35.2703 106.941 34.2147L105.152 35.1091C105.836 36.4778 106.8 37.5429 108.05 38.2574L109.043 36.521ZM106.942 34.2175C106.425 33.1746 106.138 31.8001 106.138 30.0455H104.138C104.138 32.0029 104.456 33.706 105.151 35.1064L106.942 34.2175ZM106.138 30.0455V16.1818H104.138V30.0455H106.138ZM105.138 17.1818H108.49V15.1818H105.138V17.1818ZM107.49 16.1818V29.8182H109.49V16.1818H107.49ZM107.49 29.8182C107.49 31.6035 107.995 33.1379 109.096 34.3099L110.554 32.9401C109.875 32.2182 109.49 31.2147 109.49 29.8182H107.49ZM109.1 34.3137C110.202 35.4736 111.617 36.0455 113.263 36.0455V34.0455C112.124 34.0455 111.247 33.6703 110.55 32.9363L109.1 34.3137ZM113.263 36.0455C114.272 36.0455 115.27 35.7865 116.248 35.3026L115.362 33.5099C114.617 33.8783 113.92 34.0455 113.263 34.0455V36.0455ZM116.245 35.3045C117.289 34.7936 118.149 34.0148 118.825 33.0007L117.161 31.8913C116.662 32.6386 116.064 33.1666 115.366 33.508L116.245 35.3045ZM118.821 33.0069C119.557 31.9196 119.888 30.587 119.888 29.0795H117.888C117.888 30.2993 117.621 31.2111 117.165 31.8852L118.821 33.0069ZM128.38 38H127.38V39H128.38V38ZM128.38 16.1818V15.1818H127.38V16.1818H128.38ZM131.618 16.1818H132.618V15.1818H131.618V16.1818ZM131.618 19.4773H130.618V20.4773H131.618V19.4773ZM131.846 19.4773V20.4773H132.543L132.784 19.823L131.846 19.4773ZM134.005 16.8494L133.462 16.0092L133.462 16.0092L134.005 16.8494ZM139.289 15.8977H140.289V14.9927L139.388 14.9027L139.289 15.8977ZM139.289 19.3068L139.046 20.277L140.289 20.5876V19.3068H139.289ZM138.508 19.179L138.343 20.1654L138.356 20.1675L138.369 20.1694L138.508 19.179ZM134.402 19.7472L134.87 20.6312L134.874 20.6292L134.402 19.7472ZM132.442 21.5653L131.593 21.0372L131.591 21.0401L132.442 21.5653ZM131.732 38V39H132.732V38H131.732ZM129.38 38V16.1818H127.38V38H129.38ZM128.38 17.1818H131.618V15.1818H128.38V17.1818ZM130.618 16.1818V19.4773H132.618V16.1818H130.618ZM131.618 20.4773H131.846V18.4773H131.618V20.4773ZM132.784 19.823C133.101 18.963 133.672 18.2541 134.547 17.6896L133.462 16.0092C132.254 16.7895 131.386 17.8325 130.907 19.1316L132.784 19.823ZM134.547 17.6896C135.418 17.1274 136.402 16.8409 137.527 16.8409V14.8409C136.039 14.8409 134.675 15.2268 133.462 16.0092L134.547 17.6896ZM137.527 16.8409C137.762 16.8409 138.061 16.8454 138.425 16.8548L138.476 14.8554C138.102 14.8458 137.785 14.8409 137.527 14.8409V16.8409ZM138.425 16.8548C138.788 16.8641 139.038 16.8776 139.189 16.8928L139.388 14.9027C139.161 14.88 138.852 14.8651 138.476 14.8554L138.425 16.8548ZM138.289 15.8977V19.3068H140.289V15.8977H138.289ZM139.531 18.3367C139.356 18.2927 139.038 18.2433 138.646 18.1886L138.369 20.1694C138.569 20.1972 138.727 20.2209 138.847 20.2404C138.906 20.2502 138.954 20.2585 138.99 20.2653C139.007 20.2687 139.021 20.2715 139.031 20.2736C139.042 20.2759 139.046 20.277 139.046 20.277L139.531 18.3367ZM138.672 18.1926C138.215 18.1164 137.738 18.0795 137.243 18.0795V20.0795C137.639 20.0795 138.005 20.109 138.343 20.1654L138.672 18.1926ZM137.243 18.0795C136.039 18.0795 134.927 18.3335 133.931 18.8651L134.874 20.6292C135.545 20.2707 136.327 20.0795 137.243 20.0795V18.0795ZM133.935 18.8631C132.958 19.3798 132.171 20.1074 131.593 21.0372L133.291 22.0935C133.679 21.4703 134.199 20.9857 134.87 20.6312L133.935 18.8631ZM131.591 21.0401C131.011 21.9795 130.732 23.0406 130.732 24.1932H132.732C132.732 23.3761 132.926 22.6853 133.293 22.0906L131.591 21.0401ZM130.732 24.1932V38H132.732V24.1932H130.732ZM131.732 37H128.38V39H131.732V37ZM157.865 8.90909H158.865V7.90909H157.865V8.90909ZM157.865 38V39H158.865V38H157.865ZM154.513 38H153.513V39H154.513V38ZM154.513 8.90909V7.90909H153.513V8.90909H154.513ZM156.865 8.90909V38H158.865V8.90909H156.865ZM157.865 37H154.513V39H157.865V37ZM155.513 38V8.90909H153.513V38H155.513ZM154.513 9.90909H157.865V7.90909H154.513V9.90909ZM167.684 37.0483L167.148 37.8926L167.15 37.8942L167.684 37.0483ZM164.218 33.1136L163.319 33.5528L163.321 33.5568L164.218 33.1136ZM164.218 21.2528L163.32 20.8116L163.318 20.8157L164.218 21.2528ZM167.684 17.304L167.15 16.4581L167.148 16.4596L167.684 17.304ZM178.039 17.304L177.503 18.1483L177.505 18.1499L178.039 17.304ZM181.505 21.2528L180.605 21.69L180.607 21.694L181.505 21.2528ZM181.505 33.1136L180.608 32.6705L180.606 32.6745L181.505 33.1136ZM178.039 37.0483L177.505 36.2024L177.503 36.204L178.039 37.0483ZM176.562 34.2926L175.94 33.5095L175.94 33.5095L176.562 34.2926ZM178.706 31.267L179.644 31.6151L179.644 31.6151L178.706 31.267ZM178.706 23.1278L179.645 22.7821L179.645 22.7821L178.706 23.1278ZM176.562 20.0739L177.188 19.2945L177.188 19.2945L176.562 20.0739ZM169.175 20.0739L168.549 19.2945L168.549 19.2945L169.175 20.0739ZM167.03 23.1278L166.092 22.7821L166.092 22.7821L167.03 23.1278ZM167.03 31.267L166.093 31.6151L166.093 31.6151L167.03 31.267ZM169.175 34.2926L169.797 33.5095L169.797 33.5095L169.175 34.2926ZM172.868 37.4545C171.064 37.4545 169.525 37.0274 168.217 36.2024L167.15 37.8942C168.815 38.9442 170.733 39.4545 172.868 39.4545V37.4545ZM168.22 36.204C166.908 35.372 165.873 34.2046 165.114 32.6705L163.321 33.5568C164.23 35.3939 165.504 36.8496 167.148 37.8926L168.22 36.204ZM165.116 32.6745C164.371 31.1505 163.982 29.3364 163.982 27.2045H161.982C161.982 29.5803 162.417 31.7056 163.319 33.5528L165.116 32.6745ZM163.982 27.2045C163.982 25.0525 164.372 23.2236 165.117 21.69L163.318 20.8157C162.416 22.6722 161.982 24.8111 161.982 27.2045H163.982ZM165.115 21.694C165.874 20.1504 166.91 18.9794 168.22 18.1483L167.148 16.4596C165.503 17.5035 164.228 18.9651 163.32 20.8117L165.115 21.694ZM168.217 18.1499C169.525 17.3249 171.064 16.8977 172.868 16.8977V14.8977C170.733 14.8977 168.815 15.4081 167.15 16.4581L168.217 18.1499ZM172.868 16.8977C174.673 16.8977 176.205 17.3249 177.503 18.1483L178.575 16.4596C176.918 15.4081 175.003 14.8977 172.868 14.8977V16.8977ZM177.505 18.1499C178.823 18.9807 179.857 20.15 180.605 21.69L182.404 20.8157C181.505 18.9655 180.228 17.5023 178.572 16.4581L177.505 18.1499ZM180.607 21.694C181.361 23.2267 181.755 25.0541 181.755 27.2045H183.755C183.755 24.8096 183.315 22.6691 182.402 20.8117L180.607 21.694ZM181.755 27.2045C181.755 29.3348 181.361 31.1474 180.608 32.6705L182.401 33.5568C183.315 31.7087 183.755 29.5819 183.755 27.2045H181.755ZM180.606 32.6745C179.858 34.205 178.824 35.3707 177.505 36.2024L178.572 37.8942C180.227 36.8509 181.503 35.3935 182.403 33.5528L180.606 32.6745ZM177.503 36.204C176.205 37.0274 174.673 37.4545 172.868 37.4545V39.4545C175.003 39.4545 176.918 38.9442 178.575 37.8926L177.503 36.204ZM172.868 36.4432C174.541 36.4432 176.005 36.0113 177.183 35.0757L175.94 33.5095C175.186 34.1081 174.188 34.4432 172.868 34.4432V36.4432ZM177.183 35.0757C178.304 34.186 179.122 33.0218 179.644 31.6151L177.769 30.919C177.363 32.0123 176.751 32.8651 175.94 33.5095L177.183 35.0757ZM179.644 31.6151C180.153 30.2437 180.402 28.7705 180.402 27.2045H178.402C178.402 28.5552 178.188 29.7904 177.769 30.919L179.644 31.6151ZM180.402 27.2045C180.402 25.6385 180.153 24.1615 179.645 22.7821L177.768 23.4735C178.188 24.6131 178.402 25.854 178.402 27.2045H180.402ZM179.645 22.7821C179.123 21.3671 178.307 20.194 177.188 19.2945L175.935 20.8532C176.748 21.5068 177.361 22.3696 177.768 23.4735L179.645 22.7821ZM177.188 19.2945C176.01 18.3473 174.544 17.9091 172.868 17.9091V19.9091C174.186 19.9091 175.181 20.2474 175.935 20.8532L177.188 19.2945ZM172.868 17.9091C171.193 17.9091 169.727 18.3473 168.549 19.2945L169.802 20.8532C170.555 20.2474 171.551 19.9091 172.868 19.9091V17.9091ZM168.549 19.2945C167.43 20.194 166.613 21.3671 166.092 22.7821L167.969 23.4735C168.375 22.3696 168.989 21.5068 169.802 20.8532L168.549 19.2945ZM166.092 22.7821C165.584 24.1615 165.334 25.6385 165.334 27.2045H167.334C167.334 25.854 167.549 24.6131 167.969 23.4735L166.092 22.7821ZM165.334 27.2045C165.334 28.7705 165.584 30.2437 166.093 31.6151L167.968 30.919C167.549 29.7904 167.334 28.5552 167.334 27.2045H165.334ZM166.093 31.6151C166.615 33.0218 167.433 34.186 168.553 35.0757L169.797 33.5095C168.986 32.8651 168.374 32.0123 167.968 30.919L166.093 31.6151ZM168.553 35.0757C169.731 36.0113 171.196 36.4432 172.868 36.4432V34.4432C171.548 34.4432 170.551 34.1081 169.797 33.5095L168.553 35.0757ZM192.503 46.0114L192.839 45.0698L192.833 45.0674L192.503 46.0114ZM189.591 44.392L190.245 43.6361L190.245 43.6354L189.591 44.392ZM187.758 42.2614L187.184 41.443L186.422 41.9778L186.901 42.7759L187.758 42.2614ZM190.429 40.3864L191.224 39.7803L190.641 39.0153L189.854 39.568L190.429 40.3864ZM191.579 41.75L192.326 41.0848L192.32 41.078L191.579 41.75ZM193.483 43.0994L193.913 42.1968L193.908 42.1946L193.483 43.0994ZM201.04 42.4034L201.636 43.2058L201.636 43.2058L201.04 42.4034ZM202.758 33.9659H203.758V32.9659H202.758V33.9659ZM202.474 33.9659V32.9659H201.917L201.624 33.4396L202.474 33.9659ZM201.423 35.4432L200.632 34.831L200.631 34.8328L201.423 35.4432ZM199.491 36.9915L199.962 37.8736L199.966 37.8716L199.491 36.9915ZM191.366 36.4091L190.853 37.2671L190.855 37.2686L191.366 36.4091ZM188.057 32.7727L187.164 33.2242L187.166 33.2284L188.057 32.7727ZM188.028 21.1392L188.932 21.5677L188.933 21.5657L188.028 21.1392ZM191.309 17.2756L191.854 18.1145L191.858 18.1119L191.309 17.2756ZM199.548 16.608L199.054 17.4775L199.066 17.484L199.548 16.608ZM201.48 18.1989L200.678 18.7968L200.684 18.804L200.689 18.811L201.48 18.1989ZM202.531 19.6477L201.693 20.1927L201.988 20.6477H202.531V19.6477ZM202.872 19.6477V20.6477H203.872V19.6477H202.872ZM202.872 16.1818V15.1818H201.872V16.1818H202.872ZM206.111 16.1818H207.111V15.1818H206.111V16.1818ZM204.832 43.1989L204.023 42.6114L204.018 42.6189L204.832 43.1989ZM201.423 45.7983L201.064 44.8648L201.057 44.8677L201.423 45.7983ZM199.974 33.7244L199.421 32.8911L199.421 32.8911L199.974 33.7244ZM202.091 31.0682L203.013 31.4539L203.013 31.4539L202.091 31.0682ZM202.105 22.7585L203.035 22.3922L203.035 22.3922L202.105 22.7585ZM200.003 19.9318L199.41 20.7377L199.41 20.7377L200.003 19.9318ZM193.014 19.9886L192.409 19.1925L192.405 19.1954L193.014 19.9886ZM190.897 22.8864L189.966 22.5225L189.964 22.5289L190.897 22.8864ZM190.912 30.9403L189.985 31.3169L189.989 31.326L190.912 30.9403ZM193.042 33.6676L192.465 34.4842L192.474 34.4907L193.042 33.6676ZM196.679 45.6364C195.141 45.6364 193.868 45.4379 192.839 45.0698L192.166 46.9529C193.466 47.4181 194.978 47.6364 196.679 47.6364V45.6364ZM192.833 45.0674C191.763 44.6936 190.909 44.211 190.245 43.6361L188.936 45.148C189.825 45.9178 190.912 46.5147 192.173 46.9553L192.833 45.0674ZM190.245 43.6354C189.546 43.0319 189.008 42.4011 188.616 41.7469L186.901 42.7759C187.417 43.6367 188.101 44.4264 188.937 45.1487L190.245 43.6354ZM188.333 43.0798L191.003 41.2048L189.854 39.568L187.184 41.443L188.333 43.0798ZM189.633 40.9924C189.959 41.4196 190.362 41.8968 190.839 42.422L192.32 41.078C191.868 40.5805 191.505 40.1486 191.224 39.7803L189.633 40.9924ZM190.833 42.4152C191.407 43.0603 192.162 43.5832 193.057 44.0043L193.908 42.1946C193.193 41.8581 192.679 41.4813 192.326 41.0848L190.833 42.4152ZM193.052 44.0021C194.048 44.4769 195.277 44.6818 196.679 44.6818V42.6818C195.448 42.6818 194.546 42.4984 193.913 42.1968L193.052 44.0021ZM196.679 44.6818C198.604 44.6818 200.281 44.2139 201.636 43.2058L200.443 41.601C199.506 42.2975 198.276 42.6818 196.679 42.6818V44.6818ZM201.636 43.2058C203.104 42.1144 203.758 40.4367 203.758 38.3977H201.758C201.758 39.9951 201.267 40.9879 200.443 41.601L201.636 43.2058ZM203.758 38.3977V33.9659H201.758V38.3977H203.758ZM202.758 32.9659H202.474V34.9659H202.758V32.9659ZM201.624 33.4396C201.403 33.7957 201.076 34.2575 200.632 34.831L202.214 36.0554C202.679 35.4546 203.052 34.9316 203.324 34.4923L201.624 33.4396ZM200.631 34.8328C200.294 35.2703 199.773 35.7035 199.017 36.1113L199.966 37.8716C200.895 37.3703 201.662 36.7714 202.215 36.0535L200.631 34.8328ZM199.02 36.1094C198.387 36.4478 197.443 36.6591 196.111 36.6591V38.6591C197.619 38.6591 198.929 38.4253 199.962 37.8736L199.02 36.1094ZM196.111 36.6591C194.514 36.6591 193.112 36.2836 191.877 35.5496L190.855 37.2686C192.424 38.2012 194.184 38.6591 196.111 38.6591V36.6591ZM191.88 35.5511C190.665 34.8236 189.685 33.7588 188.947 32.3171L187.166 33.2284C188.057 34.9685 189.284 36.3279 190.853 37.2671L191.88 35.5511ZM188.949 32.3213C188.231 30.9034 187.849 29.135 187.849 26.9773H185.849C185.849 29.365 186.272 31.4602 187.164 33.2242L188.949 32.3213ZM187.849 26.9773C187.849 24.8589 188.222 23.065 188.932 21.5677L187.125 20.7107C186.263 22.5278 185.849 24.626 185.849 26.9773H187.849ZM188.933 21.5657C189.648 20.0495 190.624 18.9121 191.854 18.1145L190.765 16.4366C189.192 17.4572 187.981 18.8956 187.124 20.7127L188.933 21.5657ZM191.858 18.1119C193.081 17.3104 194.505 16.8977 196.167 16.8977V14.8977C194.155 14.8977 192.341 15.4037 190.761 16.4392L191.858 18.1119ZM196.167 16.8977C197.492 16.8977 198.427 17.121 199.054 17.4774L200.042 15.7385C199.003 15.1479 197.683 14.8977 196.167 14.8977V16.8977ZM199.066 17.484C199.819 17.8985 200.34 18.3429 200.678 18.7968L202.281 17.6009C201.73 16.8616 200.963 16.2455 200.03 15.7319L199.066 17.484ZM200.689 18.811C201.136 19.3883 201.468 19.8468 201.693 20.1927L203.369 19.1027C203.102 18.691 202.733 18.1837 202.271 17.5867L200.689 18.811ZM202.531 20.6477H202.872V18.6477H202.531V20.6477ZM203.872 19.6477V16.1818H201.872V19.6477H203.872ZM202.872 17.1818H206.111V15.1818H202.872V17.1818ZM205.111 16.1818V38.625H207.111V16.1818H205.111ZM205.111 38.625C205.111 40.3507 204.719 41.6519 204.023 42.6115L205.641 43.7863C206.65 42.3973 207.111 40.6493 207.111 38.625H205.111ZM204.018 42.6189C203.295 43.6336 202.321 44.382 201.064 44.8648L201.782 46.7318C203.385 46.1161 204.684 45.1316 205.647 43.7789L204.018 42.6189ZM201.057 44.8677C199.768 45.3745 198.313 45.6364 196.679 45.6364V47.6364C198.529 47.6364 200.237 47.3395 201.789 46.7289L201.057 44.8677ZM196.565 35.6477C198.065 35.6477 199.404 35.3028 200.527 34.5578L199.421 32.8911C198.689 33.3771 197.754 33.6477 196.565 33.6477V35.6477ZM200.527 34.5578C201.64 33.8196 202.464 32.7682 203.013 31.4539L201.168 30.6825C200.752 31.6788 200.165 32.3982 199.421 32.8911L200.527 34.5578ZM203.013 31.4539C203.56 30.1469 203.815 28.6265 203.815 26.9205H201.815C201.815 28.4341 201.588 29.6788 201.168 30.6825L203.013 31.4539ZM203.815 26.9205C203.815 25.2494 203.564 23.7337 203.035 22.3922L201.174 23.1249C201.593 24.1886 201.815 25.4475 201.815 26.9205H203.815ZM203.035 22.3922C202.501 21.0362 201.693 19.9327 200.595 19.1259L199.41 20.7377C200.168 21.2946 200.761 22.0756 201.174 23.1249L203.035 22.3922ZM200.595 19.1259C199.465 18.296 198.101 17.9091 196.565 17.9091V19.9091C197.756 19.9091 198.684 20.204 199.41 20.7377L200.595 19.1259ZM196.565 17.9091C194.97 17.9091 193.562 18.3163 192.409 19.1925L193.619 20.7848C194.36 20.2216 195.319 19.9091 196.565 19.9091V17.9091ZM192.405 19.1954C191.308 20.0372 190.499 21.1582 189.966 22.5225L191.829 23.2502C192.243 22.1902 192.844 21.3795 193.623 20.7819L192.405 19.1954ZM189.964 22.5289C189.45 23.8697 189.201 25.3377 189.201 26.9205H191.201C191.201 25.5487 191.417 24.3272 191.831 23.2439L189.964 22.5289ZM189.201 26.9205C189.201 28.5389 189.454 30.0107 189.985 31.3169L191.838 30.5638C191.422 29.5404 191.201 28.3323 191.201 26.9205H189.201ZM189.989 31.326C190.538 32.6382 191.36 33.7031 192.465 34.4841L193.62 32.8511C192.849 32.3063 192.252 31.5531 191.834 30.5547L189.989 31.326ZM192.474 34.4907C193.622 35.2824 195.006 35.6477 196.565 35.6477V33.6477C195.322 33.6477 194.357 33.3596 193.61 32.8445L192.474 34.4907ZM215.926 37.0483L215.39 37.8926L215.392 37.8942L215.926 37.0483ZM212.46 33.1136L211.562 33.5528L211.564 33.5568L212.46 33.1136ZM212.46 21.2528L211.563 20.8116L211.561 20.8157L212.46 21.2528ZM215.926 17.304L215.392 16.4581L215.39 16.4596L215.926 17.304ZM226.281 17.304L225.745 18.1483L225.748 18.1499L226.281 17.304ZM229.747 21.2528L228.847 21.69L228.849 21.694L229.747 21.2528ZM229.747 33.1136L228.85 32.6705L228.848 32.6745L229.747 33.1136ZM226.281 37.0483L225.748 36.2024L225.745 36.204L226.281 37.0483ZM224.804 34.2926L224.182 33.5095L224.182 33.5095L224.804 34.2926ZM226.949 31.267L227.886 31.6151L227.886 31.6151L226.949 31.267ZM226.949 23.1278L227.887 22.7821L227.887 22.7821L226.949 23.1278ZM224.804 20.0739L225.43 19.2945L225.43 19.2945L224.804 20.0739ZM217.417 20.0739L216.791 19.2945L216.791 19.2945L217.417 20.0739ZM215.272 23.1278L214.334 22.7821L214.334 22.7821L215.272 23.1278ZM215.272 31.267L214.335 31.6151L214.335 31.6151L215.272 31.267ZM217.417 34.2926L218.039 33.5095L218.039 33.5095L217.417 34.2926ZM221.111 37.4545C219.306 37.4545 217.768 37.0274 216.459 36.2024L215.392 37.8942C217.058 38.9442 218.976 39.4545 221.111 39.4545V37.4545ZM216.462 36.204C215.151 35.372 214.115 34.2046 213.356 32.6705L211.564 33.5568C212.472 35.3939 213.747 36.8496 215.39 37.8926L216.462 36.204ZM213.358 32.6745C212.613 31.1505 212.224 29.3364 212.224 27.2045H210.224C210.224 29.5803 210.659 31.7056 211.562 33.5528L213.358 32.6745ZM212.224 27.2045C212.224 25.0525 212.614 23.2236 213.359 21.69L211.561 20.8157C210.658 22.6722 210.224 24.8111 210.224 27.2045H212.224ZM213.357 21.694C214.116 20.1504 215.152 18.9794 216.462 18.1483L215.39 16.4596C213.745 17.5035 212.47 18.9651 211.563 20.8117L213.357 21.694ZM216.459 18.1499C217.768 17.3249 219.306 16.8977 221.111 16.8977V14.8977C218.976 14.8977 217.058 15.4081 215.392 16.4581L216.459 18.1499ZM221.111 16.8977C222.915 16.8977 224.448 17.3249 225.745 18.1483L226.817 16.4596C225.16 15.4081 223.245 14.8977 221.111 14.8977V16.8977ZM225.748 18.1499C227.065 18.9807 228.099 20.15 228.847 21.69L230.646 20.8157C229.747 18.9655 228.47 17.5023 226.814 16.4581L225.748 18.1499ZM228.849 21.694C229.603 23.2267 229.997 25.0541 229.997 27.2045H231.997C231.997 24.8096 231.557 22.6691 230.644 20.8117L228.849 21.694ZM229.997 27.2045C229.997 29.3348 229.603 31.1474 228.85 32.6705L230.643 33.5568C231.557 31.7087 231.997 29.5819 231.997 27.2045H229.997ZM228.848 32.6745C228.1 34.205 227.067 35.3707 225.748 36.2024L226.814 37.8942C228.469 36.8509 229.746 35.3935 230.645 33.5528L228.848 32.6745ZM225.745 36.204C224.448 37.0274 222.915 37.4545 221.111 37.4545V39.4545C223.245 39.4545 225.16 38.9442 226.817 37.8926L225.745 36.204ZM221.111 36.4432C222.783 36.4432 224.248 36.0113 225.426 35.0757L224.182 33.5095C223.428 34.1081 222.431 34.4432 221.111 34.4432V36.4432ZM225.426 35.0757C226.546 34.186 227.364 33.0218 227.886 31.6151L226.011 30.919C225.605 32.0123 224.993 32.8651 224.182 33.5095L225.426 35.0757ZM227.886 31.6151C228.395 30.2437 228.645 28.7705 228.645 27.2045H226.645C226.645 28.5552 226.43 29.7904 226.011 30.919L227.886 31.6151ZM228.645 27.2045C228.645 25.6385 228.395 24.1615 227.887 22.7821L226.01 23.4735C226.43 24.6131 226.645 25.854 226.645 27.2045H228.645ZM227.887 22.7821C227.366 21.3671 226.549 20.194 225.43 19.2945L224.177 20.8532C224.99 21.5068 225.604 22.3696 226.01 23.4735L227.887 22.7821ZM225.43 19.2945C224.252 18.3473 222.786 17.9091 221.111 17.9091V19.9091C222.428 19.9091 223.424 20.2474 224.177 20.8532L225.43 19.2945ZM221.111 17.9091C219.435 17.9091 217.969 18.3473 216.791 19.2945L218.044 20.8532C218.798 20.2474 219.793 19.9091 221.111 19.9091V17.9091ZM216.791 19.2945C215.672 20.194 214.855 21.3671 214.334 22.7821L216.211 23.4735C216.618 22.3696 217.231 21.5068 218.044 20.8532L216.791 19.2945ZM214.334 22.7821C213.826 24.1615 213.576 25.6385 213.576 27.2045H215.576C215.576 25.854 215.791 24.6131 216.211 23.4735L214.334 22.7821ZM213.576 27.2045C213.576 28.7705 213.826 30.2437 214.335 31.6151L216.21 30.919C215.791 29.7904 215.576 28.5552 215.576 27.2045H213.576ZM214.335 31.6151C214.857 33.0218 215.675 34.186 216.795 35.0757L218.039 33.5095C217.228 32.8651 216.616 32.0123 216.21 30.919L214.335 31.6151ZM216.795 35.0757C217.974 36.0113 219.438 36.4432 221.111 36.4432V34.4432C219.79 34.4432 218.793 34.1081 218.039 33.5095L216.795 35.0757Z" fill="black" mask="url(#path-3-outside-1_423_48)"/>
</g>
<defs>
<clipPath id="clip0_423_48">
<rect width="236" height="50" fill="white"/>
</clipPath>
</defs>
</svg>
