<svg width="244" height="52" viewBox="0 0 244 52" fill="none" xmlns="http://www.w3.org/2000/svg">
<g clip-path="url(#clip0_423_70)">
<path d="M12.5041 0.912292C5.61393 0.912292 0 5.89375 0 12.0077V38.1542C0 44.2681 5.61393 49.2496 12.5041 49.2496H41.9702C48.8604 49.2496 54.4743 44.2681 54.4743 38.1542V12.0077C54.4743 5.89375 48.8604 0.912292 41.9702 0.912292H12.5041ZM12.5041 3.32916H41.9702C47.3885 3.32916 51.7506 7.19979 51.7506 12.0077V38.1542C51.7506 42.9621 47.3885 46.8327 41.9702 46.8327H12.5041C7.08578 46.8327 2.72372 42.9621 2.72372 38.1542V12.0077C2.72372 7.19979 7.08578 3.32916 12.5041 3.32916Z" fill="black"/>
<mask id="path-2-outside-1_423_70" maskUnits="userSpaceOnUse" x="63" y="7" width="181" height="41" fill="black">
<rect fill="white" x="63" y="7" width="181" height="41"/>
<path d="M64.892 8.90909H70.8438L75.8295 21.7784H76.142L85.3608 8.90909H91.3125L77.7045 27.1477L75.9006 38H70.6449L72.4489 27.1477L64.892 8.90909ZM95.4993 38.4261C93.3497 38.4261 91.5599 37.9527 90.13 37.0057C88.7095 36.0587 87.7105 34.7282 87.1328 33.0142C86.5552 31.3002 86.451 29.3116 86.8203 27.0483C87.1896 24.8134 87.9283 22.858 89.0362 21.1818C90.1536 19.5057 91.5599 18.2083 93.255 17.2898C94.9595 16.3617 96.8677 15.8977 98.9794 15.8977C101.129 15.8977 102.914 16.3759 104.335 17.3324C105.755 18.2794 106.754 19.6098 107.332 21.3239C107.919 23.0379 108.028 25.036 107.658 27.3182C107.299 29.5436 106.555 31.4896 105.428 33.1562C104.311 34.8229 102.905 36.1203 101.21 37.0483C99.5144 37.9669 97.611 38.4261 95.4993 38.4261ZM95.9254 34.3068C97.1186 34.3068 98.165 33.9848 99.0646 33.3409C99.9737 32.6875 100.717 31.8116 101.295 30.7131C101.882 29.6051 102.289 28.3741 102.516 27.0199C102.725 25.7131 102.729 24.5294 102.531 23.4688C102.332 22.3987 101.906 21.5511 101.252 20.9261C100.608 20.2917 99.7133 19.9744 98.5675 19.9744C97.3743 19.9744 96.3184 20.3059 95.3999 20.9688C94.4908 21.6222 93.7474 22.5028 93.1697 23.6108C92.5921 24.7093 92.1944 25.9356 91.9766 27.2898C91.7588 28.5966 91.7493 29.7803 91.9482 30.8409C92.147 31.9015 92.5732 32.7443 93.2266 33.3693C93.88 33.9943 94.7796 34.3068 95.9254 34.3068ZM125.688 28.8239L127.804 16.1818H132.946L129.31 38H124.324L124.977 34.1222H124.75C124.068 35.3437 123.093 36.3428 121.824 37.1193C120.564 37.8958 119.116 38.2841 117.477 38.2841C116.047 38.2841 114.84 37.9669 113.855 37.3324C112.87 36.6884 112.17 35.7557 111.753 34.5341C111.346 33.303 111.284 31.8163 111.568 30.0739L113.898 16.1818H119.04L116.852 29.2784C116.634 30.661 116.833 31.7595 117.449 32.5739C118.074 33.3883 119.002 33.7955 120.233 33.7955C120.991 33.7955 121.753 33.6108 122.52 33.2415C123.296 32.8722 123.973 32.3229 124.551 31.5938C125.129 30.8551 125.508 29.9318 125.688 28.8239ZM134.597 38L138.234 16.1818H143.219L142.609 19.8182H142.836C143.433 18.5587 144.275 17.5881 145.364 16.9062C146.463 16.215 147.637 15.8693 148.887 15.8693C149.181 15.8693 149.498 15.8835 149.839 15.9119C150.18 15.9309 150.473 15.964 150.719 16.0114L149.924 20.7415C149.706 20.6657 149.365 20.5994 148.901 20.5426C148.447 20.4763 147.997 20.4432 147.552 20.4432C146.614 20.4432 145.743 20.6468 144.938 21.054C144.143 21.4517 143.47 22.0057 142.921 22.7159C142.372 23.4261 142.017 24.2453 141.856 25.1733L139.739 38H134.597ZM170.389 8.90909L165.56 38H160.418L165.247 8.90909H170.389ZM180.421 38.4261C178.272 38.4261 176.482 37.9527 175.052 37.0057C173.631 36.0587 172.632 34.7282 172.055 33.0142C171.477 31.3002 171.373 29.3116 171.742 27.0483C172.112 24.8134 172.85 22.858 173.958 21.1818C175.076 19.5057 176.482 18.2083 178.177 17.2898C179.881 16.3617 181.79 15.8977 183.901 15.8977C186.051 15.8977 187.836 16.3759 189.256 17.3324C190.677 18.2794 191.676 19.6098 192.254 21.3239C192.841 23.0379 192.95 25.036 192.58 27.3182C192.22 29.5436 191.477 31.4896 190.35 33.1562C189.233 34.8229 187.826 36.1203 186.131 37.0483C184.436 37.9669 182.533 38.4261 180.421 38.4261ZM180.847 34.3068C182.04 34.3068 183.087 33.9848 183.987 33.3409C184.896 32.6875 185.639 31.8116 186.217 30.7131C186.804 29.6051 187.211 28.3741 187.438 27.0199C187.647 25.7131 187.651 24.5294 187.452 23.4688C187.254 22.3987 186.827 21.5511 186.174 20.9261C185.53 20.2917 184.635 19.9744 183.489 19.9744C182.296 19.9744 181.24 20.3059 180.322 20.9688C179.413 21.6222 178.669 22.5028 178.092 23.6108C177.514 24.7093 177.116 25.9356 176.898 27.2898C176.681 28.5966 176.671 29.7803 176.87 30.8409C177.069 31.9015 177.495 32.7443 178.148 33.3693C178.802 33.9943 179.701 34.3068 180.847 34.3068ZM203.308 46.6364C201.452 46.6364 199.904 46.3854 198.663 45.8835C197.423 45.3911 196.466 44.7282 195.794 43.8949C195.122 43.0616 194.705 42.1383 194.544 41.125L199.374 40.0028C199.516 40.429 199.743 40.8504 200.055 41.267C200.377 41.6932 200.851 42.0436 201.476 42.3182C202.101 42.6023 202.934 42.7443 203.976 42.7443C205.434 42.7443 206.708 42.3892 207.797 41.679C208.886 40.9688 209.558 39.8134 209.814 38.2131L210.467 34.0795H210.212C209.871 34.6098 209.402 35.1544 208.805 35.7131C208.218 36.2718 207.475 36.7405 206.575 37.1193C205.685 37.4981 204.615 37.6875 203.365 37.6875C201.689 37.6875 200.235 37.2945 199.004 36.5085C197.773 35.7131 196.888 34.5294 196.348 32.9574C195.818 31.3759 195.751 29.3968 196.149 27.0199C196.537 24.6241 197.267 22.6023 198.337 20.9545C199.416 19.2973 200.709 18.0426 202.214 17.1903C203.72 16.3286 205.311 15.8977 206.987 15.8977C208.266 15.8977 209.284 16.1155 210.041 16.5511C210.799 16.9773 211.372 17.4934 211.76 18.0994C212.148 18.696 212.432 19.2595 212.612 19.7898H212.882L213.479 16.1818H218.55L214.885 38.3551C214.582 40.2206 213.886 41.7642 212.797 42.9858C211.708 44.2169 210.339 45.1307 208.692 45.7273C207.054 46.3333 205.259 46.6364 203.308 46.6364ZM205.411 33.6534C206.5 33.6534 207.475 33.3883 208.337 32.858C209.198 32.3277 209.918 31.5653 210.496 30.571C211.073 29.5767 211.476 28.3835 211.703 26.9915C211.93 25.6184 211.921 24.4157 211.675 23.3835C211.438 22.3513 210.979 21.5511 210.297 20.983C209.615 20.4053 208.725 20.1165 207.626 20.1165C206.481 20.1165 205.477 20.4148 204.615 21.0114C203.763 21.608 203.062 22.4271 202.513 23.4688C201.973 24.5009 201.594 25.6752 201.376 26.9915C201.168 28.3267 201.168 29.4962 201.376 30.5C201.594 31.4943 202.035 32.2708 202.697 32.8295C203.37 33.3788 204.274 33.6534 205.411 33.6534ZM229.757 38.4261C227.607 38.4261 225.818 37.9527 224.388 37.0057C222.967 36.0587 221.968 34.7282 221.391 33.0142C220.813 31.3002 220.709 29.3116 221.078 27.0483C221.447 24.8134 222.186 22.858 223.294 21.1818C224.411 19.5057 225.818 18.2083 227.513 17.2898C229.217 16.3617 231.125 15.8977 233.237 15.8977C235.387 15.8977 237.172 16.3759 238.592 17.3324C240.013 18.2794 241.012 19.6098 241.589 21.3239C242.177 23.0379 242.286 25.036 241.916 27.3182C241.556 29.5436 240.813 31.4896 239.686 33.1562C238.569 34.8229 237.162 36.1203 235.467 37.0483C233.772 37.9669 231.869 38.4261 229.757 38.4261ZM230.183 34.3068C231.376 34.3068 232.423 33.9848 233.322 33.3409C234.232 32.6875 234.975 31.8116 235.553 30.7131C236.14 29.6051 236.547 28.3741 236.774 27.0199C236.982 25.7131 236.987 24.5294 236.788 23.4688C236.589 22.3987 236.163 21.5511 235.51 20.9261C234.866 20.2917 233.971 19.9744 232.825 19.9744C231.632 19.9744 230.576 20.3059 229.658 20.9688C228.749 21.6222 228.005 22.5028 227.428 23.6108C226.85 24.7093 226.452 25.9356 226.234 27.2898C226.017 28.5966 226.007 29.7803 226.206 30.8409C226.405 31.9015 226.831 32.7443 227.484 33.3693C228.138 33.9943 229.037 34.3068 230.183 34.3068Z"/>
</mask>
<path d="M64.892 8.90909H70.8438L75.8295 21.7784H76.142L85.3608 8.90909H91.3125L77.7045 27.1477L75.9006 38H70.6449L72.4489 27.1477L64.892 8.90909ZM95.4993 38.4261C93.3497 38.4261 91.5599 37.9527 90.13 37.0057C88.7095 36.0587 87.7105 34.7282 87.1328 33.0142C86.5552 31.3002 86.451 29.3116 86.8203 27.0483C87.1896 24.8134 87.9283 22.858 89.0362 21.1818C90.1536 19.5057 91.5599 18.2083 93.255 17.2898C94.9595 16.3617 96.8677 15.8977 98.9794 15.8977C101.129 15.8977 102.914 16.3759 104.335 17.3324C105.755 18.2794 106.754 19.6098 107.332 21.3239C107.919 23.0379 108.028 25.036 107.658 27.3182C107.299 29.5436 106.555 31.4896 105.428 33.1562C104.311 34.8229 102.905 36.1203 101.21 37.0483C99.5144 37.9669 97.611 38.4261 95.4993 38.4261ZM95.9254 34.3068C97.1186 34.3068 98.165 33.9848 99.0646 33.3409C99.9737 32.6875 100.717 31.8116 101.295 30.7131C101.882 29.6051 102.289 28.3741 102.516 27.0199C102.725 25.7131 102.729 24.5294 102.531 23.4688C102.332 22.3987 101.906 21.5511 101.252 20.9261C100.608 20.2917 99.7133 19.9744 98.5675 19.9744C97.3743 19.9744 96.3184 20.3059 95.3999 20.9688C94.4908 21.6222 93.7474 22.5028 93.1697 23.6108C92.5921 24.7093 92.1944 25.9356 91.9766 27.2898C91.7588 28.5966 91.7493 29.7803 91.9482 30.8409C92.147 31.9015 92.5732 32.7443 93.2266 33.3693C93.88 33.9943 94.7796 34.3068 95.9254 34.3068ZM125.688 28.8239L127.804 16.1818H132.946L129.31 38H124.324L124.977 34.1222H124.75C124.068 35.3437 123.093 36.3428 121.824 37.1193C120.564 37.8958 119.116 38.2841 117.477 38.2841C116.047 38.2841 114.84 37.9669 113.855 37.3324C112.87 36.6884 112.17 35.7557 111.753 34.5341C111.346 33.303 111.284 31.8163 111.568 30.0739L113.898 16.1818H119.04L116.852 29.2784C116.634 30.661 116.833 31.7595 117.449 32.5739C118.074 33.3883 119.002 33.7955 120.233 33.7955C120.991 33.7955 121.753 33.6108 122.52 33.2415C123.296 32.8722 123.973 32.3229 124.551 31.5938C125.129 30.8551 125.508 29.9318 125.688 28.8239ZM134.597 38L138.234 16.1818H143.219L142.609 19.8182H142.836C143.433 18.5587 144.275 17.5881 145.364 16.9062C146.463 16.215 147.637 15.8693 148.887 15.8693C149.181 15.8693 149.498 15.8835 149.839 15.9119C150.18 15.9309 150.473 15.964 150.719 16.0114L149.924 20.7415C149.706 20.6657 149.365 20.5994 148.901 20.5426C148.447 20.4763 147.997 20.4432 147.552 20.4432C146.614 20.4432 145.743 20.6468 144.938 21.054C144.143 21.4517 143.47 22.0057 142.921 22.7159C142.372 23.4261 142.017 24.2453 141.856 25.1733L139.739 38H134.597ZM170.389 8.90909L165.56 38H160.418L165.247 8.90909H170.389ZM180.421 38.4261C178.272 38.4261 176.482 37.9527 175.052 37.0057C173.631 36.0587 172.632 34.7282 172.055 33.0142C171.477 31.3002 171.373 29.3116 171.742 27.0483C172.112 24.8134 172.85 22.858 173.958 21.1818C175.076 19.5057 176.482 18.2083 178.177 17.2898C179.881 16.3617 181.79 15.8977 183.901 15.8977C186.051 15.8977 187.836 16.3759 189.256 17.3324C190.677 18.2794 191.676 19.6098 192.254 21.3239C192.841 23.0379 192.95 25.036 192.58 27.3182C192.22 29.5436 191.477 31.4896 190.35 33.1562C189.233 34.8229 187.826 36.1203 186.131 37.0483C184.436 37.9669 182.533 38.4261 180.421 38.4261ZM180.847 34.3068C182.04 34.3068 183.087 33.9848 183.987 33.3409C184.896 32.6875 185.639 31.8116 186.217 30.7131C186.804 29.6051 187.211 28.3741 187.438 27.0199C187.647 25.7131 187.651 24.5294 187.452 23.4688C187.254 22.3987 186.827 21.5511 186.174 20.9261C185.53 20.2917 184.635 19.9744 183.489 19.9744C182.296 19.9744 181.24 20.3059 180.322 20.9688C179.413 21.6222 178.669 22.5028 178.092 23.6108C177.514 24.7093 177.116 25.9356 176.898 27.2898C176.681 28.5966 176.671 29.7803 176.87 30.8409C177.069 31.9015 177.495 32.7443 178.148 33.3693C178.802 33.9943 179.701 34.3068 180.847 34.3068ZM203.308 46.6364C201.452 46.6364 199.904 46.3854 198.663 45.8835C197.423 45.3911 196.466 44.7282 195.794 43.8949C195.122 43.0616 194.705 42.1383 194.544 41.125L199.374 40.0028C199.516 40.429 199.743 40.8504 200.055 41.267C200.377 41.6932 200.851 42.0436 201.476 42.3182C202.101 42.6023 202.934 42.7443 203.976 42.7443C205.434 42.7443 206.708 42.3892 207.797 41.679C208.886 40.9688 209.558 39.8134 209.814 38.2131L210.467 34.0795H210.212C209.871 34.6098 209.402 35.1544 208.805 35.7131C208.218 36.2718 207.475 36.7405 206.575 37.1193C205.685 37.4981 204.615 37.6875 203.365 37.6875C201.689 37.6875 200.235 37.2945 199.004 36.5085C197.773 35.7131 196.888 34.5294 196.348 32.9574C195.818 31.3759 195.751 29.3968 196.149 27.0199C196.537 24.6241 197.267 22.6023 198.337 20.9545C199.416 19.2973 200.709 18.0426 202.214 17.1903C203.72 16.3286 205.311 15.8977 206.987 15.8977C208.266 15.8977 209.284 16.1155 210.041 16.5511C210.799 16.9773 211.372 17.4934 211.76 18.0994C212.148 18.696 212.432 19.2595 212.612 19.7898H212.882L213.479 16.1818H218.55L214.885 38.3551C214.582 40.2206 213.886 41.7642 212.797 42.9858C211.708 44.2169 210.339 45.1307 208.692 45.7273C207.054 46.3333 205.259 46.6364 203.308 46.6364ZM205.411 33.6534C206.5 33.6534 207.475 33.3883 208.337 32.858C209.198 32.3277 209.918 31.5653 210.496 30.571C211.073 29.5767 211.476 28.3835 211.703 26.9915C211.93 25.6184 211.921 24.4157 211.675 23.3835C211.438 22.3513 210.979 21.5511 210.297 20.983C209.615 20.4053 208.725 20.1165 207.626 20.1165C206.481 20.1165 205.477 20.4148 204.615 21.0114C203.763 21.608 203.062 22.4271 202.513 23.4688C201.973 24.5009 201.594 25.6752 201.376 26.9915C201.168 28.3267 201.168 29.4962 201.376 30.5C201.594 31.4943 202.035 32.2708 202.697 32.8295C203.37 33.3788 204.274 33.6534 205.411 33.6534ZM229.757 38.4261C227.607 38.4261 225.818 37.9527 224.388 37.0057C222.967 36.0587 221.968 34.7282 221.391 33.0142C220.813 31.3002 220.709 29.3116 221.078 27.0483C221.447 24.8134 222.186 22.858 223.294 21.1818C224.411 19.5057 225.818 18.2083 227.513 17.2898C229.217 16.3617 231.125 15.8977 233.237 15.8977C235.387 15.8977 237.172 16.3759 238.592 17.3324C240.013 18.2794 241.012 19.6098 241.589 21.3239C242.177 23.0379 242.286 25.036 241.916 27.3182C241.556 29.5436 240.813 31.4896 239.686 33.1562C238.569 34.8229 237.162 36.1203 235.467 37.0483C233.772 37.9669 231.869 38.4261 229.757 38.4261ZM230.183 34.3068C231.376 34.3068 232.423 33.9848 233.322 33.3409C234.232 32.6875 234.975 31.8116 235.553 30.7131C236.14 29.6051 236.547 28.3741 236.774 27.0199C236.982 25.7131 236.987 24.5294 236.788 23.4688C236.589 22.3987 236.163 21.5511 235.51 20.9261C234.866 20.2917 233.971 19.9744 232.825 19.9744C231.632 19.9744 230.576 20.3059 229.658 20.9688C228.749 21.6222 228.005 22.5028 227.428 23.6108C226.85 24.7093 226.452 25.9356 226.234 27.2898C226.017 28.5966 226.007 29.7803 226.206 30.8409C226.405 31.9015 226.831 32.7443 227.484 33.3693C228.138 33.9943 229.037 34.3068 230.183 34.3068Z" fill="black"/>
<path d="M64.892 8.90909V7.90909H63.3953L63.9682 9.29187L64.892 8.90909ZM70.8438 8.90909L71.7762 8.54784L71.5288 7.90909H70.8438V8.90909ZM75.8295 21.7784L74.8971 22.1397L75.1445 22.7784H75.8295V21.7784ZM76.142 21.7784V22.7784H76.6558L76.955 22.3607L76.142 21.7784ZM85.3608 8.90909V7.90909H84.847L84.5479 8.32675L85.3608 8.90909ZM91.3125 8.90909L92.114 9.50709L93.3063 7.90909H91.3125V8.90909ZM77.7045 27.1477L76.9031 26.5497L76.7579 26.7443L76.7181 26.9837L77.7045 27.1477ZM75.9006 38V39H76.7481L76.887 38.164L75.9006 38ZM70.6449 38L69.6584 37.836L69.4649 39H70.6449V38ZM72.4489 27.1477L73.4353 27.3117L73.4823 27.0294L73.3727 26.765L72.4489 27.1477ZM64.892 9.90909H70.8438V7.90909H64.892V9.90909ZM69.9113 9.27034L74.8971 22.1397L76.762 21.4172L71.7762 8.54784L69.9113 9.27034ZM75.8295 22.7784H76.142V20.7784H75.8295V22.7784ZM76.955 22.3607L86.1737 9.49143L84.5479 8.32675L75.3291 21.1961L76.955 22.3607ZM85.3608 9.90909H91.3125V7.90909H85.3608V9.90909ZM90.511 8.31109L76.9031 26.5497L78.506 27.7457L92.114 9.50709L90.511 8.31109ZM76.7181 26.9837L74.9141 37.836L76.887 38.164L78.691 27.3117L76.7181 26.9837ZM75.9006 37H70.6449V39H75.9006V37ZM71.6314 38.164L73.4353 27.3117L71.4624 26.9837L69.6584 37.836L71.6314 38.164ZM73.3727 26.765L65.8159 8.52631L63.9682 9.29187L71.525 27.5305L73.3727 26.765ZM90.13 37.0057L89.5753 37.8377L89.5778 37.8394L90.13 37.0057ZM87.1328 33.0142L86.1852 33.3336L86.1852 33.3336L87.1328 33.0142ZM86.8203 27.0483L85.8337 26.8853L85.8334 26.8872L86.8203 27.0483ZM89.0362 21.1818L88.2042 20.6271L88.202 20.6304L89.0362 21.1818ZM93.255 17.2898L93.7314 18.169L93.7331 18.168L93.255 17.2898ZM104.335 17.3324L103.776 18.1619L103.78 18.1644L104.335 17.3324ZM107.332 21.3239L106.384 21.6432L106.386 21.6479L107.332 21.3239ZM107.658 27.3182L106.671 27.1584L106.671 27.1586L107.658 27.3182ZM105.428 33.1562L104.6 32.5961L104.598 32.5994L105.428 33.1562ZM101.21 37.0483L101.686 37.9275L101.69 37.9254L101.21 37.0483ZM99.0646 33.3409L99.6467 34.1541L99.6483 34.1529L99.0646 33.3409ZM101.295 30.7131L100.411 30.2448L100.41 30.2476L101.295 30.7131ZM102.516 27.0199L103.503 27.1854L103.504 27.1773L102.516 27.0199ZM102.531 23.4688L101.547 23.6515L101.548 23.653L102.531 23.4688ZM101.252 20.9261L100.55 21.6385L100.556 21.6437L100.561 21.6488L101.252 20.9261ZM95.3999 20.9688L95.9835 21.7808L95.985 21.7796L95.3999 20.9688ZM93.1697 23.6108L94.0548 24.0762L94.0565 24.0731L93.1697 23.6108ZM91.9766 27.2898L92.963 27.4542L92.9639 27.4486L91.9766 27.2898ZM91.9482 30.8409L92.931 30.6566L92.931 30.6566L91.9482 30.8409ZM93.2266 33.3693L92.5353 34.092L92.5353 34.092L93.2266 33.3693ZM95.4993 37.4261C93.4963 37.4261 91.9112 36.9859 90.6821 36.1719L89.5778 37.8394C91.2086 38.9194 93.2031 39.4261 95.4993 39.4261V37.4261ZM90.6847 36.1736C89.4597 35.357 88.5919 34.2125 88.0804 32.6948L86.1852 33.3336C86.829 35.2439 87.9593 36.7604 89.5753 37.8377L90.6847 36.1736ZM88.0804 32.6948C87.567 31.1713 87.4573 29.3538 87.8073 27.2093L85.8334 26.8872C85.4447 29.2694 85.5433 31.4291 86.1852 33.3336L88.0804 32.6948ZM87.8069 27.2113C88.1562 25.0975 88.8493 23.278 89.8704 21.7333L88.202 20.6304C87.0072 22.4379 86.223 24.5294 85.8337 26.8853L87.8069 27.2113ZM89.8683 21.7365C90.8995 20.1896 92.186 19.0064 93.7314 18.169L92.7785 16.4106C90.9338 17.4102 89.4077 18.8218 88.2042 20.6271L89.8683 21.7365ZM93.7331 18.168C95.2783 17.3268 97.0196 16.8977 98.9794 16.8977V14.8977C96.7157 14.8977 94.6408 15.3967 92.7768 16.4115L93.7331 18.168ZM98.9794 16.8977C100.981 16.8977 102.558 17.3419 103.776 18.1619L104.893 16.5029C103.27 15.4099 101.277 14.8977 98.9794 14.8977V16.8977ZM103.78 18.1644C105.005 18.9811 105.873 20.1255 106.384 21.6432L108.279 21.0045C107.635 19.0942 106.505 17.5776 104.889 16.5003L103.78 18.1644ZM106.386 21.6479C106.907 23.1694 107.021 24.9948 106.671 27.1584L108.646 27.4779C109.034 25.0772 108.931 22.9063 108.278 20.9998L106.386 21.6479ZM106.671 27.1586C106.332 29.2579 105.636 31.0636 104.6 32.5961L106.257 33.7164C107.474 31.9156 108.265 29.8293 108.646 27.4778L106.671 27.1586ZM104.598 32.5994C103.566 34.138 102.278 35.3232 100.729 36.1711L101.69 37.9254C103.531 36.9173 105.056 35.5078 106.259 33.7131L104.598 32.5994ZM100.733 36.1691C99.1979 37.001 97.4609 37.4261 95.4993 37.4261V39.4261C97.7612 39.4261 99.831 38.9327 101.686 37.9275L100.733 36.1691ZM95.9254 35.3068C97.3101 35.3068 98.5638 34.9292 99.6467 34.1541L98.4826 32.5278C97.7663 33.0405 96.9271 33.3068 95.9254 33.3068V35.3068ZM99.6483 34.1529C100.697 33.3995 101.538 32.3992 102.18 31.1785L100.41 30.2476C99.8963 31.2239 99.2509 31.9755 98.481 32.5289L99.6483 34.1529ZM102.178 31.1813C102.82 29.97 103.259 28.6353 103.503 27.1854L101.53 26.8544C101.319 28.1128 100.944 29.2402 100.411 30.2448L102.178 31.1813ZM103.504 27.1773C103.726 25.7819 103.738 24.4801 103.513 23.2845L101.548 23.653C101.721 24.5786 101.723 25.6442 101.529 26.8625L103.504 27.1773ZM103.514 23.286C103.285 22.0528 102.777 21.0009 101.943 20.2035L100.561 21.6488C101.034 22.1013 101.379 22.7446 101.547 23.6515L103.514 23.286ZM101.954 20.2138C101.076 19.349 99.9023 18.9744 98.5675 18.9744V20.9744C99.5244 20.9744 100.14 21.2343 100.55 21.6385L101.954 20.2138ZM98.5675 18.9744C97.1761 18.9744 95.913 19.3652 94.8147 20.1579L95.985 21.7796C96.7238 21.2465 97.5725 20.9744 98.5675 20.9744V18.9744ZM94.8162 20.1567C93.766 20.9116 92.9245 21.9182 92.283 23.1485L94.0565 24.0731C94.5703 23.0875 95.2155 22.3328 95.9835 21.7808L94.8162 20.1567ZM92.2847 23.1454C91.6515 24.3494 91.2225 25.6809 90.9893 27.131L92.9639 27.4486C93.1663 26.1903 93.5327 25.0692 94.0548 24.0762L92.2847 23.1454ZM90.9902 27.1254C90.7573 28.5223 90.7405 29.8266 90.9653 31.0252L92.931 30.6566C92.758 29.734 92.7602 28.6709 92.963 27.4542L90.9902 27.1254ZM90.9653 31.0252C91.195 32.2506 91.7034 33.2962 92.5353 34.092L93.9178 32.6467C93.4429 32.1925 93.099 31.5524 92.931 30.6566L90.9653 31.0252ZM92.5353 34.092C93.421 34.9391 94.5939 35.3068 95.9254 35.3068V33.3068C94.9652 33.3068 94.3389 33.0495 93.9178 32.6467L92.5353 34.092ZM125.688 28.8239L124.701 28.6587L124.7 28.6636L125.688 28.8239ZM127.804 16.1818V15.1818H126.957L126.818 16.0167L127.804 16.1818ZM132.946 16.1818L133.932 16.3462L134.126 15.1818H132.946V16.1818ZM129.31 38V39H130.157L130.296 38.1644L129.31 38ZM124.324 38L123.338 37.8338L123.141 39H124.324V38ZM124.977 34.1222L125.963 34.2883L126.16 33.1222H124.977V34.1222ZM124.75 34.1222V33.1222H124.163L123.877 33.6348L124.75 34.1222ZM121.824 37.1193L121.302 36.2663L121.299 36.2681L121.824 37.1193ZM113.855 37.3324L113.308 38.1694L113.314 38.173L113.855 37.3324ZM111.753 34.5341L110.803 34.8481L110.806 34.8569L111.753 34.5341ZM111.568 30.0739L110.582 29.9085L110.581 29.9129L111.568 30.0739ZM113.898 16.1818V15.1818H113.051L112.911 16.0164L113.898 16.1818ZM119.04 16.1818L120.026 16.3466L120.221 15.1818H119.04V16.1818ZM116.852 29.2784L115.866 29.1137L115.864 29.1228L116.852 29.2784ZM117.449 32.5739L116.651 33.1768L116.656 33.1827L117.449 32.5739ZM122.52 33.2415L122.09 32.3384L122.086 32.3405L122.52 33.2415ZM124.551 31.5938L125.335 32.2147L125.339 32.2098L124.551 31.5938ZM126.674 28.989L128.79 16.3469L126.818 16.0167L124.701 28.6587L126.674 28.989ZM127.804 17.1818H132.946V15.1818H127.804V17.1818ZM131.96 16.0174L128.323 37.8356L130.296 38.1644L133.932 16.3462L131.96 16.0174ZM129.31 37H124.324V39H129.31V37ZM125.31 38.1662L125.963 34.2883L123.991 33.956L123.338 37.8338L125.31 38.1662ZM124.977 33.1222H124.75V35.1222H124.977V33.1222ZM123.877 33.6348C123.284 34.6968 122.434 35.5736 121.302 36.2664L122.346 37.9723C123.752 37.112 124.852 35.9907 125.623 34.6095L123.877 33.6348ZM121.299 36.2681C120.214 36.9371 118.951 37.2841 117.477 37.2841V39.2841C119.28 39.2841 120.915 38.8545 122.349 37.9705L121.299 36.2681ZM117.477 37.2841C116.197 37.2841 115.188 37.0013 114.397 36.4917L113.314 38.173C114.492 38.9324 115.898 39.2841 117.477 39.2841V37.2841ZM114.402 36.4954C113.623 35.9855 113.051 35.2435 112.699 34.2113L110.806 34.8569C111.288 36.2679 112.118 37.3914 113.308 38.1694L114.402 36.4954ZM112.702 34.2201C112.361 33.1871 112.288 31.8729 112.555 30.2348L110.581 29.9129C110.28 31.7597 110.331 33.4189 110.803 34.8481L112.702 34.2201ZM112.554 30.2392L114.884 16.3472L112.911 16.0164L110.582 29.9085L112.554 30.2392ZM113.898 17.1818H119.04V15.1818H113.898V17.1818ZM118.053 16.0171L115.866 29.1137L117.839 29.4432L120.026 16.3466L118.053 16.0171ZM115.864 29.1228C115.621 30.6712 115.818 32.0752 116.651 33.1768L118.247 31.9709C117.848 31.4438 117.648 30.6508 117.84 29.434L115.864 29.1228ZM116.656 33.1827C117.508 34.2939 118.76 34.7955 120.233 34.7955V32.7955C119.243 32.7955 118.639 32.4826 118.242 31.965L116.656 33.1827ZM120.233 34.7955C121.158 34.7955 122.068 34.5688 122.954 34.1425L122.086 32.3405C121.437 32.6528 120.823 32.7955 120.233 32.7955V34.7955ZM122.949 34.1445C123.875 33.7043 124.67 33.0538 125.335 32.2147L123.767 30.9728C123.277 31.5921 122.718 32.0401 122.09 32.3384L122.949 34.1445ZM125.339 32.2098C126.039 31.3146 126.473 30.2257 126.675 28.9842L124.7 28.6636C124.542 29.6379 124.219 30.3956 123.763 30.9777L125.339 32.2098ZM134.597 38L133.611 37.8356L133.417 39H134.597V38ZM138.234 16.1818V15.1818H137.387L137.247 16.0174L138.234 16.1818ZM143.219 16.1818L144.206 16.3475L144.401 15.1818H143.219V16.1818ZM142.609 19.8182L141.622 19.6525L141.427 20.8182H142.609V19.8182ZM142.836 19.8182V20.8182H143.469L143.74 20.2463L142.836 19.8182ZM145.364 16.9062L145.895 17.7538L145.897 17.7526L145.364 16.9062ZM149.839 15.9119L149.756 16.9085L149.77 16.9096L149.783 16.9104L149.839 15.9119ZM150.719 16.0114L151.706 16.1772L151.868 15.2138L150.908 15.0294L150.719 16.0114ZM149.924 20.7415L149.595 21.686L150.714 22.075L150.91 20.9073L149.924 20.7415ZM148.901 20.5426L148.757 21.5321L148.768 21.5338L148.78 21.5352L148.901 20.5426ZM144.938 21.054L145.385 21.9484L145.39 21.9463L144.938 21.054ZM141.856 25.1733L140.871 25.0024L140.869 25.0105L141.856 25.1733ZM139.739 38V39H140.588L140.726 38.1628L139.739 38ZM135.584 38.1644L139.22 16.3462L137.247 16.0174L133.611 37.8356L135.584 38.1644ZM138.234 17.1818H143.219V15.1818H138.234V17.1818ZM142.233 16.0162L141.622 19.6525L143.595 19.9838L144.206 16.3475L142.233 16.0162ZM142.609 20.8182H142.836V18.8182H142.609V20.8182ZM143.74 20.2463C144.262 19.1442 144.982 18.3257 145.895 17.7538L144.834 16.0587C143.569 16.8504 142.603 17.9733 141.932 19.3901L143.74 20.2463ZM145.897 17.7526C146.842 17.1577 147.833 16.8693 148.887 16.8693V14.8693C147.441 14.8693 146.083 15.2723 144.832 16.0599L145.897 17.7526ZM148.887 16.8693C149.149 16.8693 149.438 16.882 149.756 16.9085L149.922 14.9154C149.558 14.885 149.212 14.8693 148.887 14.8693V16.8693ZM149.783 16.9104C150.094 16.9277 150.341 16.9569 150.531 16.9934L150.908 15.0294C150.606 14.9711 150.265 14.9341 149.894 14.9135L149.783 16.9104ZM149.733 15.8455L148.938 20.5756L150.91 20.9073L151.706 16.1772L149.733 15.8455ZM150.253 19.797C149.93 19.6846 149.501 19.6086 149.023 19.55L148.78 21.5352C149.23 21.5903 149.483 21.6468 149.595 21.686L150.253 19.797ZM149.046 19.5531C148.545 19.48 148.047 19.4432 147.552 19.4432V21.4432C147.947 21.4432 148.349 21.4726 148.757 21.5321L149.046 19.5531ZM147.552 19.4432C146.464 19.4432 145.437 19.6809 144.487 20.1617L145.39 21.9463C146.049 21.6127 146.765 21.4432 147.552 21.4432V19.4432ZM144.491 20.1595C143.56 20.6251 142.77 21.2762 142.13 22.1042L143.712 23.3277C144.17 22.7351 144.726 22.2783 145.385 21.9484L144.491 20.1595ZM142.13 22.1042C141.476 22.9497 141.058 23.9219 140.871 25.0024L142.841 25.3442C142.976 24.5686 143.268 23.9026 143.712 23.3277L142.13 22.1042ZM140.869 25.0105L138.753 37.8372L140.726 38.1628L142.842 25.3361L140.869 25.0105ZM139.739 37H134.597V39H139.739V37ZM170.389 8.90909L171.376 9.07286L171.569 7.90909H170.389V8.90909ZM165.56 38V39H166.407L166.546 38.1638L165.56 38ZM160.418 38L159.431 37.8362L159.238 39H160.418V38ZM165.247 8.90909V7.90909H164.399L164.261 8.74532L165.247 8.90909ZM169.403 8.74532L164.573 37.8362L166.546 38.1638L171.376 9.07286L169.403 8.74532ZM165.56 37H160.418V39H165.56V37ZM161.404 38.1638L166.234 9.07286L164.261 8.74532L159.431 37.8362L161.404 38.1638ZM165.247 9.90909H170.389V7.90909H165.247V9.90909ZM175.052 37.0057L174.497 37.8377L174.5 37.8394L175.052 37.0057ZM172.055 33.0142L171.107 33.3336L171.107 33.3336L172.055 33.0142ZM171.742 27.0483L170.756 26.8853L170.755 26.8872L171.742 27.0483ZM173.958 21.1818L173.126 20.6271L173.124 20.6304L173.958 21.1818ZM178.177 17.2898L178.653 18.169L178.655 18.168L178.177 17.2898ZM189.256 17.3324L188.698 18.1619L188.702 18.1644L189.256 17.3324ZM192.254 21.3239L191.306 21.6432L191.308 21.6479L192.254 21.3239ZM192.58 27.3182L191.593 27.1584L191.593 27.1586L192.58 27.3182ZM190.35 33.1562L189.522 32.5961L189.52 32.5994L190.35 33.1562ZM186.131 37.0483L186.608 37.9275L186.612 37.9254L186.131 37.0483ZM183.987 33.3409L184.569 34.1541L184.57 34.1529L183.987 33.3409ZM186.217 30.7131L185.333 30.2448L185.332 30.2476L186.217 30.7131ZM187.438 27.0199L188.424 27.1854L188.426 27.1773L187.438 27.0199ZM187.452 23.4688L186.469 23.6515L186.47 23.653L187.452 23.4688ZM186.174 20.9261L185.472 21.6385L185.477 21.6437L185.483 21.6488L186.174 20.9261ZM180.322 20.9688L180.905 21.7808L180.907 21.7796L180.322 20.9688ZM178.092 23.6108L178.977 24.0762L178.978 24.0731L178.092 23.6108ZM176.898 27.2898L177.885 27.4542L177.886 27.4486L176.898 27.2898ZM176.87 30.8409L177.853 30.6566L177.853 30.6566L176.87 30.8409ZM178.148 33.3693L177.457 34.092L177.457 34.092L178.148 33.3693ZM180.421 37.4261C178.418 37.4261 176.833 36.9859 175.604 36.1719L174.5 37.8394C176.13 38.9194 178.125 39.4261 180.421 39.4261V37.4261ZM175.607 36.1736C174.382 35.357 173.514 34.2125 173.002 32.6948L171.107 33.3336C171.751 35.2439 172.881 36.7604 174.497 37.8377L175.607 36.1736ZM173.002 32.6948C172.489 31.1713 172.379 29.3538 172.729 27.2093L170.755 26.8872C170.367 29.2694 170.465 31.4291 171.107 33.3336L173.002 32.6948ZM172.729 27.2113C173.078 25.0975 173.771 23.278 174.792 21.7333L173.124 20.6304C171.929 22.4379 171.145 24.5294 170.756 26.8853L172.729 27.2113ZM174.79 21.7365C175.821 20.1896 177.108 19.0064 178.653 18.169L177.7 16.4106C175.856 17.4102 174.33 18.8218 173.126 20.6271L174.79 21.7365ZM178.655 18.168C180.2 17.3268 181.942 16.8977 183.901 16.8977V14.8977C181.638 14.8977 179.563 15.3967 177.699 16.4115L178.655 18.168ZM183.901 16.8977C185.903 16.8977 187.48 17.3419 188.698 18.1619L189.815 16.5029C188.192 15.4099 186.199 14.8977 183.901 14.8977V16.8977ZM188.702 18.1644C189.927 18.9811 190.794 20.1255 191.306 21.6432L193.201 21.0045C192.557 19.0942 191.427 17.5776 189.811 16.5003L188.702 18.1644ZM191.308 21.6479C191.829 23.1694 191.943 24.9948 191.593 27.1584L193.567 27.4779C193.956 25.0772 193.853 22.9063 193.2 20.9998L191.308 21.6479ZM191.593 27.1586C191.254 29.2579 190.558 31.0636 189.522 32.5961L191.179 33.7164C192.396 31.9156 193.187 29.8293 193.567 27.4778L191.593 27.1586ZM189.52 32.5994C188.488 34.138 187.2 35.3232 185.651 36.1711L186.612 37.9254C188.453 36.9173 189.977 35.5078 191.181 33.7131L189.52 32.5994ZM185.655 36.1691C184.12 37.001 182.383 37.4261 180.421 37.4261V39.4261C182.683 39.4261 184.753 38.9327 186.608 37.9275L185.655 36.1691ZM180.847 35.3068C182.232 35.3068 183.486 34.9292 184.569 34.1541L183.404 32.5278C182.688 33.0405 181.849 33.3068 180.847 33.3068V35.3068ZM184.57 34.1529C185.618 33.3995 186.46 32.3992 187.102 31.1785L185.332 30.2476C184.818 31.2239 184.173 31.9755 183.403 32.5289L184.57 34.1529ZM187.1 31.1813C187.742 29.97 188.181 28.6353 188.424 27.1854L186.452 26.8544C186.241 28.1128 185.865 29.2402 185.333 30.2448L187.1 31.1813ZM188.426 27.1773C188.648 25.7819 188.659 24.4801 188.435 23.2845L186.47 23.653C186.643 24.5786 186.645 25.6442 186.451 26.8625L188.426 27.1773ZM188.436 23.286C188.206 22.0528 187.699 21.0009 186.865 20.2035L185.483 21.6488C185.956 22.1013 186.301 22.7446 186.469 23.6515L188.436 23.286ZM186.876 20.2138C185.998 19.349 184.824 18.9744 183.489 18.9744V20.9744C184.446 20.9744 185.062 21.2343 185.472 21.6385L186.876 20.2138ZM183.489 18.9744C182.098 18.9744 180.835 19.3652 179.737 20.1579L180.907 21.7796C181.646 21.2465 182.494 20.9744 183.489 20.9744V18.9744ZM179.738 20.1567C178.688 20.9116 177.846 21.9182 177.205 23.1485L178.978 24.0731C179.492 23.0875 180.137 22.3328 180.905 21.7808L179.738 20.1567ZM177.207 23.1454C176.573 24.3494 176.144 25.6809 175.911 27.131L177.886 27.4486C178.088 26.1903 178.455 25.0692 178.977 24.0762L177.207 23.1454ZM175.912 27.1254C175.679 28.5223 175.662 29.8266 175.887 31.0252L177.853 30.6566C177.68 29.734 177.682 28.6709 177.885 27.4542L175.912 27.1254ZM175.887 31.0252C176.117 32.2506 176.625 33.2962 177.457 34.092L178.84 32.6467C178.365 32.1925 178.021 31.5524 177.853 30.6566L175.887 31.0252ZM177.457 34.092C178.343 34.9391 179.516 35.3068 180.847 35.3068V33.3068C179.887 33.3068 179.261 33.0495 178.84 32.6467L177.457 34.092ZM198.663 45.8835L199.038 44.9565L199.032 44.9541L198.663 45.8835ZM195.794 43.8949L196.572 43.267L196.572 43.267L195.794 43.8949ZM194.544 41.125L194.318 40.1509L193.41 40.3618L193.556 41.2819L194.544 41.125ZM199.374 40.0028L200.322 39.6866L200.034 38.8227L199.147 39.0288L199.374 40.0028ZM200.055 41.267L199.255 41.867L199.258 41.8699L200.055 41.267ZM201.476 42.3182L201.89 41.4077L201.878 41.4027L201.476 42.3182ZM207.797 41.679L207.251 40.8414L207.251 40.8414L207.797 41.679ZM209.814 38.2131L210.801 38.3708L210.802 38.3692L209.814 38.2131ZM210.467 34.0795L211.455 34.2357L211.638 33.0795H210.467V34.0795ZM210.212 34.0795V33.0795H209.666L209.37 33.5388L210.212 34.0795ZM208.805 35.7131L208.122 34.9831L208.116 34.9887L208.805 35.7131ZM206.575 37.1193L206.187 36.1977L206.184 36.1992L206.575 37.1193ZM199.004 36.5085L198.462 37.3485L198.466 37.3514L199.004 36.5085ZM196.348 32.9574L195.4 33.2753L195.402 33.2821L196.348 32.9574ZM196.149 27.0199L197.135 27.1849L197.136 27.1799L196.149 27.0199ZM198.337 20.9545L197.499 20.4087L197.498 20.4099L198.337 20.9545ZM202.214 17.1903L202.707 18.0606L202.711 18.0582L202.214 17.1903ZM210.041 16.5511L209.543 17.4181L209.551 17.4227L210.041 16.5511ZM211.76 18.0994L210.918 18.6389L210.922 18.6449L211.76 18.0994ZM212.612 19.7898L211.665 20.1111L211.896 20.7898H212.612V19.7898ZM212.882 19.7898V20.7898H213.73L213.869 19.9529L212.882 19.7898ZM213.479 16.1818V15.1818H212.63L212.492 16.0187L213.479 16.1818ZM218.55 16.1818L219.536 16.3449L219.729 15.1818H218.55V16.1818ZM214.885 38.3551L213.898 38.192L213.898 38.1948L214.885 38.3551ZM212.797 42.9858L212.05 42.3204L212.048 42.3232L212.797 42.9858ZM208.692 45.7273L208.351 44.787L208.345 44.7894L208.692 45.7273ZM208.337 32.858L208.861 33.7096L208.861 33.7096L208.337 32.858ZM211.703 26.9915L210.717 26.8282L210.716 26.8303L211.703 26.9915ZM211.675 23.3835L210.7 23.6071L210.702 23.6155L211.675 23.3835ZM210.297 20.983L209.65 21.746L209.657 21.7512L210.297 20.983ZM204.615 21.0114L204.046 20.1892L204.042 20.1921L204.615 21.0114ZM202.513 23.4688L201.628 23.0023L201.627 23.0054L202.513 23.4688ZM201.376 26.9915L200.39 26.8282L200.388 26.8373L201.376 26.9915ZM201.376 30.5L200.397 30.7032L200.4 30.714L201.376 30.5ZM202.697 32.8295L202.053 33.5942L202.059 33.5991L202.065 33.604L202.697 32.8295ZM203.308 45.6364C201.534 45.6364 200.123 45.3954 199.038 44.9565L198.288 46.8105C199.684 47.3754 201.37 47.6364 203.308 47.6364V45.6364ZM199.032 44.9541C197.913 44.5097 197.113 43.937 196.572 43.267L195.016 44.5228C195.82 45.5195 196.933 46.2725 198.294 46.813L199.032 44.9541ZM196.572 43.267C196.005 42.5635 195.664 41.8011 195.532 40.9681L193.556 41.2819C193.746 42.4754 194.239 43.5596 195.016 44.5228L196.572 43.267ZM194.77 42.0991L199.6 40.9769L199.147 39.0288L194.318 40.1509L194.77 42.0991ZM198.425 40.3191C198.606 40.862 198.888 41.3778 199.255 41.867L200.855 40.667C200.597 40.3229 200.425 39.996 200.322 39.6866L198.425 40.3191ZM199.258 41.8699C199.707 42.4651 200.335 42.9091 201.074 43.2337L201.878 41.4027C201.367 41.1781 201.047 40.9212 200.853 40.6642L199.258 41.8699ZM201.062 43.2285C201.867 43.5942 202.858 43.7443 203.976 43.7443V41.7443C203.01 41.7443 202.335 41.6103 201.89 41.4078L201.062 43.2285ZM203.976 43.7443C205.604 43.7443 207.072 43.3454 208.343 42.5166L207.251 40.8414C206.343 41.433 205.265 41.7443 203.976 41.7443V43.7443ZM208.343 42.5166C209.725 41.6156 210.513 40.1761 210.801 38.3708L208.826 38.0553C208.604 39.4508 208.047 40.3219 207.251 40.8414L208.343 42.5166ZM210.802 38.3692L211.455 34.2357L209.48 33.9234L208.826 38.0569L210.802 38.3692ZM210.467 33.0795H210.212V35.0795H210.467V33.0795ZM209.37 33.5388C209.085 33.9829 208.675 34.4651 208.122 34.9832L209.489 36.443C210.129 35.8436 210.656 35.2368 211.053 34.6203L209.37 33.5388ZM208.116 34.9887C207.632 35.4488 206.997 35.8565 206.187 36.1977L206.963 38.041C207.952 37.6245 208.804 37.0947 209.495 36.4375L208.116 34.9887ZM206.184 36.1992C205.448 36.5123 204.518 36.6875 203.365 36.6875V38.6875C204.712 38.6875 205.922 38.4839 206.967 38.0395L206.184 36.1992ZM203.365 36.6875C201.851 36.6875 200.59 36.3345 199.542 35.6657L198.466 37.3514C199.881 38.2545 201.527 38.6875 203.365 38.6875V36.6875ZM199.547 35.6686C198.529 35.0109 197.771 34.0224 197.294 32.6326L195.402 33.2821C196.005 35.0363 197.017 36.4152 198.462 37.3484L199.547 35.6686ZM197.296 32.6395C196.836 31.2672 196.754 29.4672 197.135 27.1849L195.163 26.8549C194.749 29.3263 194.799 31.4847 195.4 33.2753L197.296 32.6395ZM197.136 27.1799C197.507 24.8898 198.197 23.0064 199.175 21.4992L197.498 20.4099C196.337 22.1982 195.567 24.3583 195.162 26.8599L197.136 27.1799ZM199.175 21.5004C200.179 19.9581 201.36 18.8233 202.707 18.0606L201.722 16.3201C200.058 17.2619 198.653 18.6366 197.499 20.4087L199.175 21.5004ZM202.711 18.0582C204.071 17.2799 205.492 16.8977 206.987 16.8977V14.8977C205.131 14.8977 203.369 15.3773 201.718 16.3224L202.711 18.0582ZM206.987 16.8977C208.166 16.8977 208.991 17.1009 209.543 17.418L210.54 15.6842C209.576 15.1302 208.365 14.8977 206.987 14.8977V16.8977ZM209.551 17.4227C210.195 17.7851 210.635 18.1965 210.918 18.6389L212.602 17.56C212.109 16.7903 211.402 16.1694 210.531 15.6796L209.551 17.4227ZM210.922 18.6449C211.276 19.1895 211.518 19.6777 211.665 20.1111L213.559 19.4685C213.346 18.8413 213.02 18.2026 212.598 17.554L210.922 18.6449ZM212.612 20.7898H212.882V18.7898H212.612V20.7898ZM213.869 19.9529L214.465 16.345L212.492 16.0187L211.895 19.6266L213.869 19.9529ZM213.479 17.1818H218.55V15.1818H213.479V17.1818ZM217.563 16.0188L213.898 38.192L215.872 38.5182L219.536 16.3449L217.563 16.0188ZM213.898 38.1948C213.621 39.9022 212.994 41.2617 212.05 42.3204L213.543 43.6512C214.778 42.2667 215.543 40.5391 215.872 38.5154L213.898 38.1948ZM212.048 42.3232C211.077 43.4207 209.853 44.2435 208.351 44.787L209.032 46.6675C210.826 46.0179 212.339 45.013 213.546 43.6484L212.048 42.3232ZM208.345 44.7894C206.83 45.3499 205.154 45.6364 203.308 45.6364V47.6364C205.364 47.6364 207.277 47.3168 209.039 46.6652L208.345 44.7894ZM205.411 34.6534C206.67 34.6534 207.829 34.3443 208.861 33.7096L207.813 32.0063C207.12 32.4322 206.329 32.6534 205.411 32.6534V34.6534ZM208.861 33.7096C209.881 33.0816 210.711 32.1907 211.36 31.0734L209.631 30.0687C209.125 30.9399 208.515 31.5737 207.813 32.0063L208.861 33.7096ZM211.36 31.0734C212.011 29.9528 212.447 28.6385 212.69 27.1526L210.716 26.8303C210.504 28.1285 210.135 29.2006 209.631 30.0687L211.36 31.0734ZM212.69 27.1548C212.932 25.6892 212.933 24.3468 212.647 23.1515L210.702 23.6155C210.909 24.4847 210.929 25.5475 210.717 26.8282L212.69 27.1548ZM212.649 23.16C212.374 21.957 211.818 20.9486 210.937 20.2147L209.657 21.7512C210.14 22.1537 210.502 22.7456 210.7 23.6071L212.649 23.16ZM210.943 20.22C210.042 19.4565 208.905 19.1165 207.626 19.1165V21.1165C208.544 21.1165 209.188 21.3541 209.65 21.7459L210.943 20.22ZM207.626 19.1165C206.297 19.1165 205.09 19.466 204.046 20.1892L205.184 21.8336C205.863 21.3636 206.664 21.1165 207.626 21.1165V19.1165ZM204.042 20.1921C203.043 20.8913 202.242 21.8387 201.628 23.0023L203.397 23.9352C203.882 23.0154 204.483 22.3246 205.189 21.8306L204.042 20.1921ZM201.627 23.0054C201.031 24.1442 200.622 25.4222 200.39 26.8282L202.363 27.1547C202.566 25.9282 202.915 24.8577 203.399 23.9321L201.627 23.0054ZM200.388 26.8373C200.167 28.2556 200.158 29.551 200.397 30.7032L202.356 30.2968C202.178 29.4414 202.169 28.3978 202.364 27.1456L200.388 26.8373ZM200.4 30.714C200.656 31.8845 201.194 32.8698 202.053 33.5942L203.342 32.0649C202.876 31.6718 202.532 31.1041 202.353 30.286L200.4 30.714ZM202.065 33.604C202.964 34.3389 204.116 34.6534 205.411 34.6534V32.6534C204.433 32.6534 203.775 32.4187 203.33 32.0551L202.065 33.604ZM224.388 37.0057L223.833 37.8377L223.836 37.8394L224.388 37.0057ZM221.391 33.0142L220.443 33.3336L220.443 33.3336L221.391 33.0142ZM221.078 27.0483L220.092 26.8853L220.091 26.8872L221.078 27.0483ZM223.294 21.1818L222.462 20.6271L222.46 20.6304L223.294 21.1818ZM227.513 17.2898L227.989 18.169L227.991 18.168L227.513 17.2898ZM238.592 17.3324L238.034 18.1619L238.038 18.1644L238.592 17.3324ZM241.589 21.3239L240.642 21.6432L240.643 21.6479L241.589 21.3239ZM241.916 27.3182L240.929 27.1584L240.929 27.1586L241.916 27.3182ZM239.686 33.1562L238.858 32.5961L238.855 32.5994L239.686 33.1562ZM235.467 37.0483L235.944 37.9275L235.948 37.9254L235.467 37.0483ZM233.322 33.3409L233.904 34.1541L233.906 34.1529L233.322 33.3409ZM235.553 30.7131L234.669 30.2448L234.667 30.2476L235.553 30.7131ZM236.774 27.0199L237.76 27.1854L237.762 27.1773L236.774 27.0199ZM236.788 23.4688L235.805 23.6515L235.805 23.653L236.788 23.4688ZM235.51 20.9261L234.808 21.6385L234.813 21.6437L234.819 21.6488L235.51 20.9261ZM229.658 20.9688L230.241 21.7808L230.243 21.7796L229.658 20.9688ZM227.428 23.6108L228.313 24.0762L228.314 24.0731L227.428 23.6108ZM226.234 27.2898L227.221 27.4542L227.222 27.4486L226.234 27.2898ZM226.206 30.8409L227.189 30.6566L227.189 30.6566L226.206 30.8409ZM227.484 33.3693L226.793 34.092L226.793 34.092L227.484 33.3693ZM229.757 37.4261C227.754 37.4261 226.169 36.9859 224.94 36.1719L223.836 37.8394C225.466 38.9194 227.461 39.4261 229.757 39.4261V37.4261ZM224.942 36.1736C223.718 35.357 222.85 34.2125 222.338 32.6948L220.443 33.3336C221.087 35.2439 222.217 36.7604 223.833 37.8377L224.942 36.1736ZM222.338 32.6948C221.825 31.1713 221.715 29.3538 222.065 27.2093L220.091 26.8872C219.702 29.2694 219.801 31.4291 220.443 33.3336L222.338 32.6948ZM222.065 27.2113C222.414 25.0975 223.107 23.278 224.128 21.7333L222.46 20.6304C221.265 22.4379 220.481 24.5294 220.092 26.8853L222.065 27.2113ZM224.126 21.7365C225.157 20.1896 226.444 19.0064 227.989 18.169L227.036 16.4106C225.192 17.4102 223.666 18.8218 222.462 20.6271L224.126 21.7365ZM227.991 18.168C229.536 17.3268 231.277 16.8977 233.237 16.8977V14.8977C230.974 14.8977 228.899 15.3967 227.035 16.4115L227.991 18.168ZM233.237 16.8977C235.239 16.8977 236.816 17.3419 238.034 18.1619L239.151 16.5029C237.528 15.4099 235.535 14.8977 233.237 14.8977V16.8977ZM238.038 18.1644C239.263 18.9811 240.13 20.1255 240.642 21.6432L242.537 21.0045C241.893 19.0942 240.763 17.5776 239.147 16.5003L238.038 18.1644ZM240.643 21.6479C241.165 23.1694 241.279 24.9948 240.929 27.1584L242.903 27.4779C243.292 25.0772 243.189 22.9063 242.536 20.9998L240.643 21.6479ZM240.929 27.1586C240.59 29.2579 239.894 31.0636 238.858 32.5961L240.514 33.7164C241.732 31.9156 242.523 29.8293 242.903 27.4778L240.929 27.1586ZM238.855 32.5994C237.824 34.138 236.536 35.3232 234.987 36.1711L235.948 37.9254C237.789 36.9173 239.313 35.5078 240.517 33.7131L238.855 32.5994ZM234.991 36.1691C233.456 37.001 231.719 37.4261 229.757 37.4261V39.4261C232.019 39.4261 234.089 38.9327 235.944 37.9275L234.991 36.1691ZM230.183 35.3068C231.568 35.3068 232.822 34.9292 233.904 34.1541L232.74 32.5278C232.024 33.0405 231.185 33.3068 230.183 33.3068V35.3068ZM233.906 34.1529C234.954 33.3995 235.796 32.3992 236.438 31.1785L234.667 30.2476C234.154 31.2239 233.509 31.9755 232.739 32.5289L233.906 34.1529ZM236.436 31.1813C237.078 29.97 237.517 28.6353 237.76 27.1854L235.788 26.8544C235.577 28.1128 235.201 29.2402 234.669 30.2448L236.436 31.1813ZM237.762 27.1773C237.984 25.7819 237.995 24.4801 237.771 23.2845L235.805 23.653C235.979 24.5786 235.981 25.6442 235.787 26.8625L237.762 27.1773ZM237.772 23.286C237.542 22.0528 237.035 21.0009 236.201 20.2035L234.819 21.6488C235.292 22.1013 235.637 22.7446 235.805 23.6515L237.772 23.286ZM236.212 20.2138C235.334 19.349 234.16 18.9744 232.825 18.9744V20.9744C233.782 20.9744 234.398 21.2343 234.808 21.6385L236.212 20.2138ZM232.825 18.9744C231.434 18.9744 230.171 19.3652 229.072 20.1579L230.243 21.7796C230.982 21.2465 231.83 20.9744 232.825 20.9744V18.9744ZM229.074 20.1567C228.024 20.9116 227.182 21.9182 226.541 23.1485L228.314 24.0731C228.828 23.0875 229.473 22.3328 230.241 21.7808L229.074 20.1567ZM226.542 23.1454C225.909 24.3494 225.48 25.6809 225.247 27.131L227.222 27.4486C227.424 26.1903 227.79 25.0692 228.313 24.0762L226.542 23.1454ZM225.248 27.1254C225.015 28.5223 224.998 29.8266 225.223 31.0252L227.189 30.6566C227.016 29.734 227.018 28.6709 227.221 27.4542L225.248 27.1254ZM225.223 31.0252C225.453 32.2506 225.961 33.2962 226.793 34.092L228.176 32.6467C227.701 32.1925 227.357 31.5524 227.189 30.6566L225.223 31.0252ZM226.793 34.092C227.679 34.9391 228.852 35.3068 230.183 35.3068V33.3068C229.223 33.3068 228.597 33.0495 228.176 32.6467L226.793 34.092Z" fill="black" mask="url(#path-2-outside-1_423_70)"/>
<path d="M43.3916 4.16134C43.1992 4.15709 43.0028 4.16267 42.8031 4.1793H42.8009C41.6734 4.27383 40.6885 4.61801 40.0092 5.13258C39.3295 5.64747 38.9335 6.29703 38.6963 7.02671C38.6209 7.25857 38.6459 7.55698 38.5993 7.8073C37.6495 7.65111 36.5806 7.39993 35.3505 6.97974C24.4549 3.2584 15.6466 5.536 15.6466 5.536C15.5069 5.56869 15.3789 5.61915 15.2703 5.68434C15.1617 5.74954 15.0749 5.82812 15.0149 5.91538C14.9549 6.00264 14.9231 6.09677 14.9213 6.19211C14.9195 6.28745 14.9478 6.38204 15.0045 6.47019C15.0612 6.55834 15.1452 6.63824 15.2513 6.70507C15.3574 6.77191 15.4835 6.82432 15.622 6.85913C15.7605 6.89395 15.9085 6.91047 16.0573 6.90769C16.206 6.90491 16.3523 6.88289 16.4874 6.84296C16.4874 6.84296 24.165 4.76321 34.3114 8.22867C35.8165 8.74282 37.1737 9.05511 38.4204 9.23446C38.4125 10.2111 38.498 11.2633 38.6791 12.419C39.3367 16.6166 40.8672 21.8606 40.8672 26.5524C40.8672 33.6751 35.9787 38.531 30.1184 41.5756C29.7422 38.8945 28.607 36.5153 27.3827 34.5779C27.2268 34.3312 27.1367 34.1544 26.9882 33.9189C28.5218 32.3642 29.654 30.8348 29.9589 29.4675C30.3291 27.8082 29.0656 26.4293 27.1219 26.2167C26.15 26.1104 25.0961 26.3485 24.3366 26.855C23.5771 27.3614 23.067 28.105 22.8427 29.0834C22.5098 30.5321 23.4093 32.0499 24.4573 33.6813C23.3623 34.731 22.2172 35.803 20.7386 36.8147C17.877 38.7727 14.4515 40.5098 11.2036 41.5286C13.5496 39.0627 14.7326 36.4984 15.084 33.702C15.5255 30.1883 14.7904 26.3128 13.8509 21.6603C13.2645 18.7555 12.6667 16.2534 13.0187 14.3684C13.3708 12.4833 14.4371 11.2475 17.6062 10.377C24.8778 8.37983 31.026 10.3591 31.026 10.3591C31.1557 10.4006 31.2969 10.4254 31.4415 10.432C31.5861 10.4386 31.7313 10.4269 31.8689 10.3975C32.0064 10.3681 32.1336 10.3217 32.2431 10.2608C32.3526 10.1999 32.4424 10.1258 32.5072 10.0427C32.5721 9.95962 32.6107 9.86915 32.621 9.77647C32.6313 9.68379 32.6129 9.59072 32.5671 9.50258C32.5212 9.41443 32.4487 9.33294 32.3537 9.26276C32.2587 9.19258 32.1431 9.13507 32.0134 9.09354C32.0134 9.09354 24.9164 6.82858 16.7353 9.07558C12.9618 10.1121 11.238 11.9966 10.8263 14.2012C10.4146 16.4058 11.0792 18.9626 11.6606 21.8426C12.5986 26.4878 13.298 30.2855 12.8829 33.5887C12.4679 36.892 10.9872 39.6997 7.4762 42.533C7.33301 42.6488 7.24994 42.7903 7.23863 42.9378C7.22733 43.0854 7.28837 43.2315 7.41318 43.3556C7.53799 43.4798 7.72032 43.5758 7.9346 43.6302C8.14887 43.6846 8.38435 43.6947 8.60799 43.659C13.3822 42.8941 18.3485 40.5206 22.3511 37.7818C23.5514 36.9605 24.4189 36.0933 25.4059 35.237C26.8024 37.4573 28.2084 39.9872 28.2084 42.9724C28.2084 43.1021 28.264 43.2294 28.3692 43.3402C28.4745 43.4511 28.6252 43.5413 28.8051 43.6009C28.9849 43.6605 29.1869 43.6873 29.3888 43.6783C29.5908 43.6693 29.7851 43.6248 29.9503 43.5498C36.9659 40.3656 43.0747 34.7231 43.0747 26.5524C43.0747 21.6659 41.5173 16.3727 40.8758 12.2781C40.7066 11.1978 40.6212 10.2189 40.6193 9.34636C40.8927 9.34516 41.2241 9.40825 41.4816 9.39057C43.4164 9.25774 44.8722 8.64907 45.694 7.88052C46.5158 7.11197 46.7597 6.19369 46.2847 5.40199C45.8692 4.70958 44.7383 4.19106 43.3916 4.16134ZM43.5943 5.56639C43.9941 5.588 44.1065 5.71493 44.2238 5.9104C44.3801 6.17104 44.329 6.65352 43.8724 7.08059C43.4157 7.50766 42.6108 7.8891 41.2466 7.98276C41.1198 7.99146 40.9202 7.95482 40.7831 7.95789C40.8201 7.75878 40.8021 7.4893 40.8586 7.31546C41.0477 6.7337 41.3423 6.31271 41.6929 6.04718C42.0434 5.78165 42.4297 5.63656 43.0877 5.58159C43.2955 5.56419 43.461 5.55919 43.5943 5.56639ZM26.5679 27.6038C26.6296 27.6018 26.6892 27.6055 26.7489 27.6121C27.2266 27.6643 28.0275 28.1261 27.7729 29.2672C27.5912 30.0821 26.9091 31.1184 25.9729 32.2182C25.3196 31.0557 24.8577 30.0238 25.0265 29.2893C25.2033 28.5181 25.5896 28.0599 25.9276 27.8345C26.1811 27.6655 26.3825 27.6099 26.5679 27.6038Z" fill="black"/>
</g>
<defs>
<clipPath id="clip0_423_70">
<rect width="244" height="52" fill="white"/>
</clipPath>
</defs>
</svg>
