<svg width="268" height="85" viewBox="0 0 268 85" fill="none" xmlns="http://www.w3.org/2000/svg">
<path d="M61.6207 21.3794C66.3914 26.15 69.3603 32.4273 70.0216 39.1416C70.6829 45.8559 68.9956 52.5918 65.2473 58.2016C61.499 63.8113 55.9215 67.9478 49.4653 69.9063C43.009 71.8648 36.0734 71.5241 29.8402 68.9422C23.607 66.3603 18.4618 61.697 15.2814 55.7469C12.101 49.7967 11.0821 42.9279 12.3983 36.3108C13.7146 29.6936 17.2845 23.7376 22.4998 19.4575C27.7152 15.1773 34.2532 12.838 41 12.838" stroke="#97E30B" stroke-width="1.67598"/>
<path d="M40.6082 44.0717C40.0886 43.9662 39.6259 43.6734 39.308 43.2489C38.9902 42.8245 38.8394 42.2981 38.8843 41.7698C38.9292 41.2414 39.1667 40.748 39.5516 40.3834C39.9366 40.0187 40.4421 39.8082 40.9721 39.7919C41.5021 39.7756 42.0196 39.9547 42.4262 40.295C42.8328 40.6354 43.1002 41.1133 43.1774 41.6378C43.2547 42.1624 43.1365 42.6971 42.8453 43.1402C42.5541 43.5834 42.1103 43.904 41.5981 44.0413" stroke="#97E30B" stroke-width="1.67598"/>
<path d="M45.6666 44.2262C45.1397 45.298 44.2574 46.1538 43.1702 46.648C42.083 47.1422 40.858 47.2441 39.7041 46.9363C38.5502 46.6286 37.5386 45.9303 36.8419 44.9604C36.1451 43.9905 35.8062 42.8089 35.8829 41.6172C35.9595 40.4254 36.4471 39.297 37.2624 38.4244C38.0778 37.5518 39.1705 36.9889 40.3543 36.8316C41.5382 36.6743 42.74 36.9324 43.7549 37.5618C44.7698 38.1912 45.5351 39.1531 45.9203 40.2835" stroke="#97E30B" stroke-width="1.67598"/>
<path d="M32.8679 41.9444C32.8679 37.4366 36.5222 33.7824 41.0299 33.7824C45.5377 33.7824 49.1919 37.4366 49.1919 41.9444C49.1919 46.4521 45.5377 50.1064 41.0299 50.1064C36.5222 50.1064 32.8679 46.4521 32.8679 41.9444Z" stroke="#97E30B" stroke-width="1.67598"/>
<path d="M35.0912 51.3938C32.8127 49.9635 31.1274 47.7584 30.3455 45.1843C29.5636 42.6102 29.7377 39.8403 30.8357 37.3843C31.9337 34.9284 33.8818 32.9516 36.3214 31.8178C38.7611 30.684 41.5281 30.4694 44.1134 31.2136C46.6986 31.9578 48.9281 33.6107 50.3916 35.868C51.8551 38.1254 52.454 40.8354 52.0782 43.4992C51.7025 46.1631 50.3772 48.6016 48.3464 50.366C46.3156 52.1305 43.7159 53.1021 41.0257 53.1021" stroke="#97E30B" stroke-width="1.67598"/>
<path d="M52.0844 50.7773C49.9364 53.465 46.8834 55.2789 43.4957 55.88C40.108 56.4811 36.6173 55.8284 33.6757 54.0438C30.7341 52.2592 28.5428 49.4648 27.5111 46.1825C26.4794 42.9002 26.6778 39.3546 28.0694 36.2079C29.461 33.0613 31.9505 30.5289 35.0728 29.0837C38.1952 27.6385 41.7369 27.3794 45.0364 28.3548C48.3358 29.3303 51.1673 31.4735 53.002 34.3841C54.8366 37.2948 55.549 40.7738 55.0059 44.1713" stroke="#97E30B" stroke-width="1.67598"/>
<path d="M57.2034 36.2272C58.5231 39.972 58.5036 44.0585 57.1481 47.7905C55.7926 51.5225 53.185 54.669 49.7696 56.6939C46.3543 58.7189 42.3425 59.4969 38.4177 58.8956C34.493 58.2942 30.8983 56.3506 28.2459 53.3959C25.5936 50.4412 24.0478 46.6582 23.8719 42.6916C23.6961 38.725 24.9011 34.8201 27.2815 31.6423C29.662 28.4645 33.0707 26.2104 36.9268 25.2641C40.7829 24.3178 44.8478 24.7378 48.429 26.4525" stroke="#97E30B" stroke-width="1.67598"/>
<path d="M21.4687 46.8804C20.3324 42.3969 20.7722 37.659 22.7144 33.4612C24.6565 29.2634 27.9829 25.8611 32.1358 23.8246C36.2887 21.7882 41.0154 21.2415 45.5235 22.2763C50.0316 23.3111 54.0468 25.8644 56.8958 29.508C59.7449 33.1517 61.2545 37.6641 61.1716 42.2887C61.0887 46.9132 59.4182 51.3687 56.4404 54.9079C53.4626 58.447 49.3584 60.8548 44.8161 61.7273C40.2739 62.5998 35.5698 61.884 31.4926 59.7" stroke="#97E30B" stroke-width="1.67598"/>
<path d="M32.4446 20.4023C37.8096 18.2674 43.7786 18.2133 49.1813 20.2508C54.5841 22.2882 59.031 26.2702 61.6503 31.4161C64.2697 36.562 64.8725 42.5007 63.3405 48.0679C61.8086 53.6352 58.2525 58.4295 53.3693 61.511C48.4861 64.5924 42.6281 65.7389 36.9435 64.7255C31.259 63.7121 26.1579 60.612 22.6404 56.0329C19.1229 51.4538 17.4425 45.726 17.9288 39.9723C18.4151 34.2187 21.0329 28.8541 25.2691 24.9304" stroke="#97E30B" stroke-width="1.67598"/>
<path d="M22.3863 60.2986C18.2357 56.0942 15.6303 50.6088 14.9943 44.7352C14.3583 38.8615 15.729 32.9455 18.8834 27.9501C22.0379 22.9548 26.7902 19.1741 32.3669 17.2236C37.9436 15.2731 44.0163 15.2676 49.5966 17.2079C55.1768 19.1482 59.936 22.9202 63.0996 27.9098C66.2631 32.8994 67.6446 38.8129 67.0193 44.6877C66.394 50.5625 63.7987 56.0526 59.6558 60.2646C55.5129 64.4765 50.0663 67.1622 44.2027 67.8845" stroke="#97E30B" stroke-width="1.67598"/>
<mask id="mask0_18_601" style="mask-type:alpha" maskUnits="userSpaceOnUse" x="9" y="12" width="64" height="61">
<path d="M48.8992 12L73 73H55.7506L35.4383 20.1914L45.5945 20.1914L24.7985 73L9 73L33.1814 12L48.8992 12Z" fill="#C9FA49"/>
</mask>
<g mask="url(#mask0_18_601)">
<path d="M61.6207 21.3794C66.3914 26.15 69.3603 32.4273 70.0216 39.1416C70.6829 45.8559 68.9956 52.5918 65.2473 58.2016C61.499 63.8113 55.9215 67.9478 49.4653 69.9063C43.009 71.8648 36.0734 71.5241 29.8402 68.9422C23.607 66.3603 18.4618 61.697 15.2814 55.7469C12.101 49.7967 11.0821 42.9279 12.3983 36.3108C13.7146 29.6936 17.2845 23.7376 22.4998 19.4575C27.7152 15.1773 34.2532 12.838 41 12.838" stroke="#C9FA49" stroke-width="1.67598"/>
<path d="M40.6082 44.0717C40.0886 43.9662 39.6259 43.6734 39.308 43.2489C38.9902 42.8245 38.8394 42.2981 38.8843 41.7698C38.9292 41.2414 39.1667 40.748 39.5516 40.3834C39.9366 40.0187 40.4421 39.8082 40.9721 39.7919C41.5021 39.7756 42.0196 39.9547 42.4262 40.295C42.8328 40.6354 43.1002 41.1133 43.1774 41.6378C43.2547 42.1624 43.1365 42.6971 42.8453 43.1402C42.5541 43.5834 42.1103 43.904 41.5981 44.0413" stroke="#C9FA49" stroke-width="1.67598"/>
<path d="M45.6666 44.2262C45.1397 45.298 44.2575 46.1538 43.1702 46.648C42.083 47.1422 40.8581 47.2441 39.7041 46.9363C38.5502 46.6286 37.5387 45.9303 36.8419 44.9604C36.1451 43.9905 35.8062 42.8089 35.8829 41.6172C35.9596 40.4254 36.4471 39.297 37.2625 38.4244C38.0778 37.5518 39.1705 36.9889 40.3544 36.8316C41.5382 36.6743 42.74 36.9324 43.7549 37.5618C44.7698 38.1912 45.5351 39.1531 45.9203 40.2835" stroke="#C9FA49" stroke-width="1.67598"/>
<path d="M32.868 41.9444C32.868 37.4366 36.5222 33.7824 41.03 33.7824C45.5377 33.7824 49.192 37.4366 49.192 41.9444C49.192 46.4521 45.5377 50.1064 41.03 50.1064C36.5222 50.1064 32.868 46.4521 32.868 41.9444Z" stroke="#C9FA49" stroke-width="1.67598"/>
<path d="M35.0913 51.3938C32.8127 49.9635 31.1275 47.7584 30.3455 45.1843C29.5636 42.6102 29.7377 39.8403 30.8357 37.3843C31.9337 34.9284 33.8818 32.9516 36.3214 31.8178C38.7611 30.684 41.5281 30.4694 44.1134 31.2136C46.6987 31.9578 48.9282 33.6107 50.3916 35.868C51.8551 38.1254 52.4541 40.8354 52.0783 43.4992C51.7025 46.1631 50.3773 48.6016 48.3465 50.366C46.3157 52.1305 43.7159 53.1021 41.0257 53.1021" stroke="#C9FA49" stroke-width="1.67598"/>
<path d="M52.0844 50.7773C49.9364 53.465 46.8834 55.2789 43.4957 55.88C40.108 56.4811 36.6173 55.8284 33.6757 54.0438C30.7341 52.2592 28.5428 49.4648 27.5111 46.1825C26.4794 42.9002 26.6778 39.3546 28.0694 36.2079C29.461 33.0613 31.9505 30.5289 35.0728 29.0837C38.1952 27.6385 41.7369 27.3794 45.0364 28.3548C48.3358 29.3303 51.1673 31.4735 53.002 34.3841C54.8366 37.2948 55.549 40.7738 55.0059 44.1713" stroke="#C9FA49" stroke-width="1.67598"/>
<path d="M57.2034 36.2272C58.5231 39.972 58.5036 44.0585 57.1481 47.7905C55.7926 51.5225 53.185 54.669 49.7696 56.6939C46.3543 58.7189 42.3425 59.4969 38.4177 58.8956C34.493 58.2942 30.8983 56.3506 28.2459 53.3959C25.5936 50.4412 24.0478 46.6582 23.8719 42.6916C23.6961 38.725 24.9011 34.8201 27.2815 31.6423C29.662 28.4645 33.0707 26.2104 36.9268 25.2641C40.7829 24.3178 44.8478 24.7378 48.429 26.4525" stroke="#C9FA49" stroke-width="1.67598"/>
<path d="M21.4687 46.8804C20.3324 42.3969 20.7722 37.659 22.7144 33.4612C24.6566 29.2634 27.983 25.8611 32.1358 23.8246C36.2887 21.7882 41.0155 21.2415 45.5235 22.2763C50.0316 23.3111 54.0468 25.8644 56.8958 29.508C59.7449 33.1517 61.2545 37.6641 61.1716 42.2887C61.0887 46.9132 59.4183 51.3687 56.4404 54.9079C53.4626 58.447 49.3584 60.8548 44.8162 61.7273C40.2739 62.5998 35.5698 61.884 31.4926 59.7" stroke="#C9FA49" stroke-width="1.67598"/>
<path d="M32.4446 20.4023C37.8096 18.2674 43.7786 18.2133 49.1813 20.2508C54.5841 22.2882 59.031 26.2702 61.6503 31.4161C64.2697 36.562 64.8725 42.5007 63.3405 48.0679C61.8086 53.6352 58.2525 58.4295 53.3693 61.511C48.4861 64.5924 42.6281 65.7389 36.9435 64.7255C31.259 63.7121 26.1579 60.612 22.6404 56.0329C19.1229 51.4538 17.4425 45.726 17.9288 39.9723C18.4151 34.2187 21.0329 28.8541 25.2691 24.9304" stroke="#C9FA49" stroke-width="1.67598"/>
<path d="M22.3863 60.2986C18.2357 56.0942 15.6303 50.6088 14.9943 44.7352C14.3583 38.8615 15.729 32.9455 18.8834 27.9501C22.0379 22.9548 26.7902 19.1741 32.3669 17.2236C37.9436 15.2731 44.0163 15.2676 49.5966 17.2079C55.1768 19.1482 59.936 22.9202 63.0996 27.9098C66.2631 32.8994 67.6446 38.8129 67.0193 44.6877C66.394 50.5625 63.7987 56.0526 59.6558 60.2646C55.5129 64.4765 50.0663 67.1622 44.2027 67.8845" stroke="#C9FA49" stroke-width="1.67598"/>
</g>
<path d="M93.4531 22.1719H107.023L107 51.6328H120.312V57H93.4531V22.1719ZM128.652 39.5156C128.652 36.875 129.073 34.4609 129.917 32.2734C130.761 30.0703 132.019 28.1797 133.691 26.6016C135.362 25.0234 137.448 23.7969 139.948 22.9219C142.448 22.0469 145.355 21.6094 148.667 21.6094C151.98 21.6094 154.886 22.0469 157.386 22.9219C159.886 23.7969 161.972 25.0234 163.644 26.6016C165.316 28.1797 166.573 30.0703 167.417 32.2734C168.261 34.4609 168.683 36.875 168.683 39.5156C168.683 42.1875 168.261 44.6328 167.417 46.8516C166.573 49.0703 165.316 50.9688 163.644 52.5469C161.972 54.125 159.886 55.3516 157.386 56.2266C154.886 57.1016 151.98 57.5391 148.667 57.5391C145.355 57.5391 142.448 57.1016 139.948 56.2266C137.448 55.3516 135.362 54.125 133.691 52.5469C132.019 50.9688 130.761 49.0703 129.917 46.8516C129.073 44.6328 128.652 42.1875 128.652 39.5156ZM148.667 52.6875C149.605 52.6875 150.433 52.5234 151.152 52.1953C151.87 51.8672 152.472 51.2266 152.956 50.2734C153.441 49.3203 153.808 47.9844 154.058 46.2656C154.308 44.5469 154.433 42.2969 154.433 39.5156C154.433 36.7656 154.308 34.5391 154.058 32.8359C153.808 31.1328 153.441 29.8125 152.956 28.875C152.472 27.9375 151.87 27.3047 151.152 26.9766C150.433 26.6484 149.605 26.4844 148.667 26.4844C147.73 26.4844 146.894 26.6484 146.159 26.9766C145.441 27.3047 144.839 27.9375 144.355 28.875C143.87 29.8125 143.503 31.1328 143.253 32.8359C143.003 34.5391 142.878 36.7656 142.878 39.5156C142.878 42.2969 143.003 44.5469 143.253 46.2656C143.503 47.9844 143.87 49.3203 144.355 50.2734C144.839 51.2266 145.441 51.8672 146.159 52.1953C146.894 52.5234 147.73 52.6875 148.667 52.6875ZM178.311 39.6094C178.311 37.9531 178.522 36.3594 178.944 34.8281C179.381 33.2812 180.014 31.8438 180.842 30.5156C181.67 29.1875 182.686 27.9766 183.889 26.8828C185.092 25.7891 186.459 24.8516 187.991 24.0703C189.537 23.2891 191.241 22.6875 193.1 22.2656C194.959 21.8281 196.959 21.6094 199.1 21.6094C200.475 21.6094 201.787 21.6953 203.037 21.8672C204.303 22.0391 205.491 22.2812 206.6 22.5938C207.709 22.8906 208.733 23.2422 209.67 23.6484C210.623 24.0391 211.483 24.4531 212.248 24.8906L210.233 28.8281C209.358 28.4062 208.358 28.0547 207.233 27.7734C206.123 27.4766 204.967 27.3281 203.764 27.3281C202.155 27.3281 200.662 27.6172 199.287 28.1953C197.912 28.7734 196.725 29.5938 195.725 30.6562C194.725 31.7188 193.936 33.0078 193.358 34.5234C192.795 36.0234 192.514 37.7109 192.514 39.5859C192.514 41.4453 192.795 43.1328 193.358 44.6484C193.92 46.1484 194.694 47.4375 195.678 48.5156C196.678 49.5781 197.858 50.4062 199.217 51C200.592 51.5781 202.077 51.8672 203.67 51.8672V40.0781H217.334L214.897 44.5078V53.9766L214.92 54.0234C214.155 54.4766 213.209 54.9141 212.084 55.3359C210.959 55.7578 209.702 56.1406 208.311 56.4844C206.936 56.8125 205.467 57.0781 203.905 57.2812C202.342 57.4844 200.741 57.5859 199.1 57.5859C195.897 57.5859 193.006 57.1172 190.428 56.1797C187.866 55.2266 185.686 53.9375 183.889 52.3125C182.092 50.6719 180.709 48.7656 179.741 46.5938C178.787 44.4062 178.311 42.0781 178.311 39.6094ZM225.345 39.5156C225.345 36.875 225.767 34.4609 226.611 32.2734C227.455 30.0703 228.712 28.1797 230.384 26.6016C232.056 25.0234 234.142 23.7969 236.642 22.9219C239.142 22.0469 242.048 21.6094 245.361 21.6094C248.673 21.6094 251.58 22.0469 254.08 22.9219C256.58 23.7969 258.666 25.0234 260.337 26.6016C262.009 28.1797 263.267 30.0703 264.111 32.2734C264.955 34.4609 265.377 36.875 265.377 39.5156C265.377 42.1875 264.955 44.6328 264.111 46.8516C263.267 49.0703 262.009 50.9688 260.337 52.5469C258.666 54.125 256.58 55.3516 254.08 56.2266C251.58 57.1016 248.673 57.5391 245.361 57.5391C242.048 57.5391 239.142 57.1016 236.642 56.2266C234.142 55.3516 232.056 54.125 230.384 52.5469C228.712 50.9688 227.455 49.0703 226.611 46.8516C225.767 44.6328 225.345 42.1875 225.345 39.5156ZM245.361 52.6875C246.298 52.6875 247.127 52.5234 247.845 52.1953C248.564 51.8672 249.166 51.2266 249.65 50.2734C250.134 49.3203 250.502 47.9844 250.752 46.2656C251.002 44.5469 251.127 42.2969 251.127 39.5156C251.127 36.7656 251.002 34.5391 250.752 32.8359C250.502 31.1328 250.134 29.8125 249.65 28.875C249.166 27.9375 248.564 27.3047 247.845 26.9766C247.127 26.6484 246.298 26.4844 245.361 26.4844C244.423 26.4844 243.587 26.6484 242.853 26.9766C242.134 27.3047 241.533 27.9375 241.048 28.875C240.564 29.8125 240.197 31.1328 239.947 32.8359C239.697 34.5391 239.572 36.7656 239.572 39.5156C239.572 42.2969 239.697 44.5469 239.947 46.2656C240.197 47.9844 240.564 49.3203 241.048 50.2734C241.533 51.2266 242.134 51.8672 242.853 52.1953C243.587 52.5234 244.423 52.6875 245.361 52.6875Z" fill="#97E30B"/>
<mask id="mask1_18_601" style="mask-type:alpha" maskUnits="userSpaceOnUse" x="11" y="12" width="64" height="61">
<path d="M35.1008 73L11 12H28.2494L48.5617 64.8086H38.4055L59.2015 12H75L50.8186 73H35.1008Z" fill="#C9FA49"/>
</mask>
<g mask="url(#mask1_18_601)">
</g>
</svg>
