<svg width="236" height="50" viewBox="0 0 236 50" fill="none" xmlns="http://www.w3.org/2000/svg">
<g clip-path="url(#clip0_423_57)">
<path d="M12.0941 0.877197C5.42986 0.877197 0 5.66706 0 11.5458V36.6867C0 42.5655 5.42986 47.3553 12.0941 47.3553H40.5942C47.2584 47.3553 52.6883 42.5655 52.6883 36.6867V11.5458C52.6883 5.66706 47.2584 0.877197 40.5942 0.877197H12.0941ZM12.0941 3.2011H40.5942C45.8348 3.2011 50.0539 6.92287 50.0539 11.5458V36.6867C50.0539 41.3097 45.8348 45.0314 40.5942 45.0314H12.0941C6.85346 45.0314 2.63441 41.3097 2.63441 36.6867V11.5458C2.63441 6.92287 6.85346 3.2011 12.0941 3.2011Z" fill="black"/>
<mask id="path-2-outside-1_423_57" maskUnits="userSpaceOnUse" x="56.6865" y="7" width="181" height="41" fill="black">
<rect fill="white" x="56.6865" y="7" width="181" height="41"/>
<path d="M58.5786 8.90909H64.5303L69.5161 21.7784H69.8286L79.0473 8.90909H84.999L71.3911 27.1477L69.5871 38H64.3314L66.1354 27.1477L58.5786 8.90909ZM89.1858 38.4261C87.0362 38.4261 85.2464 37.9527 83.8165 37.0057C82.396 36.0587 81.397 34.7282 80.8193 33.0142C80.2417 31.3002 80.1375 29.3116 80.5068 27.0483C80.8762 24.8134 81.6148 22.858 82.7227 21.1818C83.8402 19.5057 85.2464 18.2083 86.9415 17.2898C88.646 16.3617 90.5542 15.8977 92.6659 15.8977C94.8155 15.8977 96.6006 16.3759 98.021 17.3324C99.4415 18.2794 100.441 19.6098 101.018 21.3239C101.605 23.0379 101.714 25.036 101.345 27.3182C100.985 29.5436 100.242 31.4896 99.1148 33.1562C97.9974 34.8229 96.5911 36.1203 94.896 37.0483C93.201 37.9669 91.2976 38.4261 89.1858 38.4261ZM89.6119 34.3068C90.8051 34.3068 91.8515 33.9848 92.7512 33.3409C93.6602 32.6875 94.4036 31.8116 94.9813 30.7131C95.5684 29.6051 95.9756 28.3741 96.2029 27.0199C96.4112 25.7131 96.4159 24.5294 96.2171 23.4688C96.0182 22.3987 95.5921 21.5511 94.9387 20.9261C94.2947 20.2917 93.3998 19.9744 92.254 19.9744C91.0608 19.9744 90.0049 20.3059 89.0864 20.9688C88.1773 21.6222 87.4339 22.5028 86.8563 23.6108C86.2786 24.7093 85.8809 25.9356 85.6631 27.2898C85.4453 28.5966 85.4358 29.7803 85.6347 30.8409C85.8335 31.9015 86.2597 32.7443 86.9131 33.3693C87.5665 33.9943 88.4661 34.3068 89.6119 34.3068ZM119.374 28.8239L121.491 16.1818H126.633L122.996 38H118.01L118.664 34.1222H118.437C117.755 35.3437 116.779 36.3428 115.51 37.1193C114.251 37.8958 112.802 38.2841 111.164 38.2841C109.734 38.2841 108.526 37.9669 107.542 37.3324C106.557 36.6884 105.856 35.7557 105.439 34.5341C105.032 33.303 104.971 31.8163 105.255 30.0739L107.584 16.1818H112.726L110.539 29.2784C110.321 30.661 110.52 31.7595 111.135 32.5739C111.76 33.3883 112.688 33.7955 113.919 33.7955C114.677 33.7955 115.439 33.6108 116.206 33.2415C116.983 32.8722 117.66 32.3229 118.238 31.5938C118.815 30.8551 119.194 29.9318 119.374 28.8239ZM128.284 38L131.92 16.1818H136.906L136.295 19.8182H136.522C137.119 18.5587 137.962 17.5881 139.051 16.9062C140.149 16.215 141.324 15.8693 142.574 15.8693C142.867 15.8693 143.184 15.8835 143.525 15.9119C143.866 15.9309 144.16 15.964 144.406 16.0114L143.611 20.7415C143.393 20.6657 143.052 20.5994 142.588 20.5426C142.133 20.4763 141.683 20.4432 141.238 20.4432C140.301 20.4432 139.43 20.6468 138.625 21.054C137.829 21.4517 137.157 22.0057 136.608 22.7159C136.058 23.4261 135.703 24.2453 135.542 25.1733L133.426 38H128.284ZM164.076 8.90909L159.246 38H154.104L158.934 8.90909H164.076ZM174.108 38.4261C171.958 38.4261 170.168 37.9527 168.738 37.0057C167.318 36.0587 166.319 34.7282 165.741 33.0142C165.164 31.3002 165.059 29.3116 165.429 27.0483C165.798 24.8134 166.537 22.858 167.645 21.1818C168.762 19.5057 170.168 18.2083 171.863 17.2898C173.568 16.3617 175.476 15.8977 177.588 15.8977C179.737 15.8977 181.522 16.3759 182.943 17.3324C184.363 18.2794 185.362 19.6098 185.94 21.3239C186.527 23.0379 186.636 25.036 186.267 27.3182C185.907 29.5436 185.164 31.4896 184.037 33.1562C182.919 34.8229 181.513 36.1203 179.818 37.0483C178.123 37.9669 176.219 38.4261 174.108 38.4261ZM174.534 34.3068C175.727 34.3068 176.773 33.9848 177.673 33.3409C178.582 32.6875 179.325 31.8116 179.903 30.7131C180.49 29.6051 180.897 28.3741 181.125 27.0199C181.333 25.7131 181.338 24.5294 181.139 23.4688C180.94 22.3987 180.514 21.5511 179.861 20.9261C179.217 20.2917 178.322 19.9744 177.176 19.9744C175.983 19.9744 174.927 20.3059 174.008 20.9688C173.099 21.6222 172.356 22.5028 171.778 23.6108C171.2 24.7093 170.803 25.9356 170.585 27.2898C170.367 28.5966 170.358 29.7803 170.557 30.8409C170.755 31.9015 171.182 32.7443 171.835 33.3693C172.488 33.9943 173.388 34.3068 174.534 34.3068ZM196.995 46.6364C195.139 46.6364 193.59 46.3854 192.35 45.8835C191.109 45.3911 190.153 44.7282 189.481 43.8949C188.808 43.0616 188.392 42.1383 188.231 41.125L193.06 40.0028C193.202 40.429 193.429 40.8504 193.742 41.267C194.064 41.6932 194.537 42.0436 195.162 42.3182C195.787 42.6023 196.621 42.7443 197.662 42.7443C199.121 42.7443 200.394 42.3892 201.483 41.679C202.572 40.9688 203.245 39.8134 203.5 38.2131L204.154 34.0795H203.898C203.557 34.6098 203.089 35.1544 202.492 35.7131C201.905 36.2718 201.161 36.7405 200.262 37.1193C199.372 37.4981 198.302 37.6875 197.052 37.6875C195.375 37.6875 193.922 37.2945 192.691 36.5085C191.46 35.7131 190.574 34.5294 190.035 32.9574C189.504 31.3759 189.438 29.3968 189.836 27.0199C190.224 24.6241 190.953 22.6023 192.023 20.9545C193.103 19.2973 194.395 18.0426 195.901 17.1903C197.407 16.3286 198.998 15.8977 200.674 15.8977C201.952 15.8977 202.97 16.1155 203.728 16.5511C204.485 16.9773 205.058 17.4934 205.446 18.0994C205.835 18.696 206.119 19.2595 206.299 19.7898H206.569L207.165 16.1818H212.236L208.571 38.3551C208.268 40.2206 207.572 41.7642 206.483 42.9858C205.394 44.2169 204.026 45.1307 202.378 45.7273C200.74 46.3333 198.946 46.6364 196.995 46.6364ZM199.097 33.6534C200.186 33.6534 201.161 33.3883 202.023 32.858C202.885 32.3277 203.605 31.5653 204.182 30.571C204.76 29.5767 205.162 28.3835 205.39 26.9915C205.617 25.6184 205.607 24.4157 205.361 23.3835C205.124 22.3513 204.665 21.5511 203.983 20.983C203.302 20.4053 202.411 20.1165 201.313 20.1165C200.167 20.1165 199.163 20.4148 198.302 21.0114C197.449 21.608 196.749 22.4271 196.199 23.4688C195.66 24.5009 195.281 25.6752 195.063 26.9915C194.855 28.3267 194.855 29.4962 195.063 30.5C195.281 31.4943 195.721 32.2708 196.384 32.8295C197.056 33.3788 197.961 33.6534 199.097 33.6534ZM223.444 38.4261C221.294 38.4261 219.504 37.9527 218.074 37.0057C216.654 36.0587 215.655 34.7282 215.077 33.0142C214.499 31.3002 214.395 29.3116 214.765 27.0483C215.134 24.8134 215.873 22.858 216.981 21.1818C218.098 19.5057 219.504 18.2083 221.199 17.2898C222.904 16.3617 224.812 15.8977 226.924 15.8977C229.073 15.8977 230.858 16.3759 232.279 17.3324C233.699 18.2794 234.698 19.6098 235.276 21.3239C235.863 23.0379 235.972 25.036 235.603 27.3182C235.243 29.5436 234.499 31.4896 233.373 33.1562C232.255 34.8229 230.849 36.1203 229.154 37.0483C227.459 37.9669 225.555 38.4261 223.444 38.4261ZM223.87 34.3068C225.063 34.3068 226.109 33.9848 227.009 33.3409C227.918 32.6875 228.661 31.8116 229.239 30.7131C229.826 29.6051 230.233 28.3741 230.461 27.0199C230.669 25.7131 230.674 24.5294 230.475 23.4688C230.276 22.3987 229.85 21.5511 229.196 20.9261C228.553 20.2917 227.658 19.9744 226.512 19.9744C225.319 19.9744 224.263 20.3059 223.344 20.9688C222.435 21.6222 221.692 22.5028 221.114 23.6108C220.536 24.7093 220.139 25.9356 219.921 27.2898C219.703 28.5966 219.694 29.7803 219.892 30.8409C220.091 31.9015 220.517 32.7443 221.171 33.3693C221.824 33.9943 222.724 34.3068 223.87 34.3068Z"/>
</mask>
<path d="M58.5786 8.90909H64.5303L69.5161 21.7784H69.8286L79.0473 8.90909H84.999L71.3911 27.1477L69.5871 38H64.3314L66.1354 27.1477L58.5786 8.90909ZM89.1858 38.4261C87.0362 38.4261 85.2464 37.9527 83.8165 37.0057C82.396 36.0587 81.397 34.7282 80.8193 33.0142C80.2417 31.3002 80.1375 29.3116 80.5068 27.0483C80.8762 24.8134 81.6148 22.858 82.7227 21.1818C83.8402 19.5057 85.2464 18.2083 86.9415 17.2898C88.646 16.3617 90.5542 15.8977 92.6659 15.8977C94.8155 15.8977 96.6006 16.3759 98.021 17.3324C99.4415 18.2794 100.441 19.6098 101.018 21.3239C101.605 23.0379 101.714 25.036 101.345 27.3182C100.985 29.5436 100.242 31.4896 99.1148 33.1562C97.9974 34.8229 96.5911 36.1203 94.896 37.0483C93.201 37.9669 91.2976 38.4261 89.1858 38.4261ZM89.6119 34.3068C90.8051 34.3068 91.8515 33.9848 92.7512 33.3409C93.6602 32.6875 94.4036 31.8116 94.9813 30.7131C95.5684 29.6051 95.9756 28.3741 96.2029 27.0199C96.4112 25.7131 96.4159 24.5294 96.2171 23.4688C96.0182 22.3987 95.5921 21.5511 94.9387 20.9261C94.2947 20.2917 93.3998 19.9744 92.254 19.9744C91.0608 19.9744 90.0049 20.3059 89.0864 20.9688C88.1773 21.6222 87.4339 22.5028 86.8563 23.6108C86.2786 24.7093 85.8809 25.9356 85.6631 27.2898C85.4453 28.5966 85.4358 29.7803 85.6347 30.8409C85.8335 31.9015 86.2597 32.7443 86.9131 33.3693C87.5665 33.9943 88.4661 34.3068 89.6119 34.3068ZM119.374 28.8239L121.491 16.1818H126.633L122.996 38H118.01L118.664 34.1222H118.437C117.755 35.3437 116.779 36.3428 115.51 37.1193C114.251 37.8958 112.802 38.2841 111.164 38.2841C109.734 38.2841 108.526 37.9669 107.542 37.3324C106.557 36.6884 105.856 35.7557 105.439 34.5341C105.032 33.303 104.971 31.8163 105.255 30.0739L107.584 16.1818H112.726L110.539 29.2784C110.321 30.661 110.52 31.7595 111.135 32.5739C111.76 33.3883 112.688 33.7955 113.919 33.7955C114.677 33.7955 115.439 33.6108 116.206 33.2415C116.983 32.8722 117.66 32.3229 118.238 31.5938C118.815 30.8551 119.194 29.9318 119.374 28.8239ZM128.284 38L131.92 16.1818H136.906L136.295 19.8182H136.522C137.119 18.5587 137.962 17.5881 139.051 16.9062C140.149 16.215 141.324 15.8693 142.574 15.8693C142.867 15.8693 143.184 15.8835 143.525 15.9119C143.866 15.9309 144.16 15.964 144.406 16.0114L143.611 20.7415C143.393 20.6657 143.052 20.5994 142.588 20.5426C142.133 20.4763 141.683 20.4432 141.238 20.4432C140.301 20.4432 139.43 20.6468 138.625 21.054C137.829 21.4517 137.157 22.0057 136.608 22.7159C136.058 23.4261 135.703 24.2453 135.542 25.1733L133.426 38H128.284ZM164.076 8.90909L159.246 38H154.104L158.934 8.90909H164.076ZM174.108 38.4261C171.958 38.4261 170.168 37.9527 168.738 37.0057C167.318 36.0587 166.319 34.7282 165.741 33.0142C165.164 31.3002 165.059 29.3116 165.429 27.0483C165.798 24.8134 166.537 22.858 167.645 21.1818C168.762 19.5057 170.168 18.2083 171.863 17.2898C173.568 16.3617 175.476 15.8977 177.588 15.8977C179.737 15.8977 181.522 16.3759 182.943 17.3324C184.363 18.2794 185.362 19.6098 185.94 21.3239C186.527 23.0379 186.636 25.036 186.267 27.3182C185.907 29.5436 185.164 31.4896 184.037 33.1562C182.919 34.8229 181.513 36.1203 179.818 37.0483C178.123 37.9669 176.219 38.4261 174.108 38.4261ZM174.534 34.3068C175.727 34.3068 176.773 33.9848 177.673 33.3409C178.582 32.6875 179.325 31.8116 179.903 30.7131C180.49 29.6051 180.897 28.3741 181.125 27.0199C181.333 25.7131 181.338 24.5294 181.139 23.4688C180.94 22.3987 180.514 21.5511 179.861 20.9261C179.217 20.2917 178.322 19.9744 177.176 19.9744C175.983 19.9744 174.927 20.3059 174.008 20.9688C173.099 21.6222 172.356 22.5028 171.778 23.6108C171.2 24.7093 170.803 25.9356 170.585 27.2898C170.367 28.5966 170.358 29.7803 170.557 30.8409C170.755 31.9015 171.182 32.7443 171.835 33.3693C172.488 33.9943 173.388 34.3068 174.534 34.3068ZM196.995 46.6364C195.139 46.6364 193.59 46.3854 192.35 45.8835C191.109 45.3911 190.153 44.7282 189.481 43.8949C188.808 43.0616 188.392 42.1383 188.231 41.125L193.06 40.0028C193.202 40.429 193.429 40.8504 193.742 41.267C194.064 41.6932 194.537 42.0436 195.162 42.3182C195.787 42.6023 196.621 42.7443 197.662 42.7443C199.121 42.7443 200.394 42.3892 201.483 41.679C202.572 40.9688 203.245 39.8134 203.5 38.2131L204.154 34.0795H203.898C203.557 34.6098 203.089 35.1544 202.492 35.7131C201.905 36.2718 201.161 36.7405 200.262 37.1193C199.372 37.4981 198.302 37.6875 197.052 37.6875C195.375 37.6875 193.922 37.2945 192.691 36.5085C191.46 35.7131 190.574 34.5294 190.035 32.9574C189.504 31.3759 189.438 29.3968 189.836 27.0199C190.224 24.6241 190.953 22.6023 192.023 20.9545C193.103 19.2973 194.395 18.0426 195.901 17.1903C197.407 16.3286 198.998 15.8977 200.674 15.8977C201.952 15.8977 202.97 16.1155 203.728 16.5511C204.485 16.9773 205.058 17.4934 205.446 18.0994C205.835 18.696 206.119 19.2595 206.299 19.7898H206.569L207.165 16.1818H212.236L208.571 38.3551C208.268 40.2206 207.572 41.7642 206.483 42.9858C205.394 44.2169 204.026 45.1307 202.378 45.7273C200.74 46.3333 198.946 46.6364 196.995 46.6364ZM199.097 33.6534C200.186 33.6534 201.161 33.3883 202.023 32.858C202.885 32.3277 203.605 31.5653 204.182 30.571C204.76 29.5767 205.162 28.3835 205.39 26.9915C205.617 25.6184 205.607 24.4157 205.361 23.3835C205.124 22.3513 204.665 21.5511 203.983 20.983C203.302 20.4053 202.411 20.1165 201.313 20.1165C200.167 20.1165 199.163 20.4148 198.302 21.0114C197.449 21.608 196.749 22.4271 196.199 23.4688C195.66 24.5009 195.281 25.6752 195.063 26.9915C194.855 28.3267 194.855 29.4962 195.063 30.5C195.281 31.4943 195.721 32.2708 196.384 32.8295C197.056 33.3788 197.961 33.6534 199.097 33.6534ZM223.444 38.4261C221.294 38.4261 219.504 37.9527 218.074 37.0057C216.654 36.0587 215.655 34.7282 215.077 33.0142C214.499 31.3002 214.395 29.3116 214.765 27.0483C215.134 24.8134 215.873 22.858 216.981 21.1818C218.098 19.5057 219.504 18.2083 221.199 17.2898C222.904 16.3617 224.812 15.8977 226.924 15.8977C229.073 15.8977 230.858 16.3759 232.279 17.3324C233.699 18.2794 234.698 19.6098 235.276 21.3239C235.863 23.0379 235.972 25.036 235.603 27.3182C235.243 29.5436 234.499 31.4896 233.373 33.1562C232.255 34.8229 230.849 36.1203 229.154 37.0483C227.459 37.9669 225.555 38.4261 223.444 38.4261ZM223.87 34.3068C225.063 34.3068 226.109 33.9848 227.009 33.3409C227.918 32.6875 228.661 31.8116 229.239 30.7131C229.826 29.6051 230.233 28.3741 230.461 27.0199C230.669 25.7131 230.674 24.5294 230.475 23.4688C230.276 22.3987 229.85 21.5511 229.196 20.9261C228.553 20.2917 227.658 19.9744 226.512 19.9744C225.319 19.9744 224.263 20.3059 223.344 20.9688C222.435 21.6222 221.692 22.5028 221.114 23.6108C220.536 24.7093 220.139 25.9356 219.921 27.2898C219.703 28.5966 219.694 29.7803 219.892 30.8409C220.091 31.9015 220.517 32.7443 221.171 33.3693C221.824 33.9943 222.724 34.3068 223.87 34.3068Z" fill="black"/>
<path d="M58.5786 8.90909V7.90909H57.0818L57.6547 9.29187L58.5786 8.90909ZM64.5303 8.90909L65.4627 8.54784L65.2153 7.90909H64.5303V8.90909ZM69.5161 21.7784L68.5836 22.1397L68.8311 22.7784H69.5161V21.7784ZM69.8286 21.7784V22.7784H70.3423L70.6415 22.3607L69.8286 21.7784ZM79.0473 8.90909V7.90909H78.5336L78.2344 8.32675L79.0473 8.90909ZM84.999 8.90909L85.8005 9.50709L86.9928 7.90909H84.999V8.90909ZM71.3911 27.1477L70.5896 26.5497L70.4444 26.7443L70.4046 26.9837L71.3911 27.1477ZM69.5871 38V39H70.4346L70.5736 38.164L69.5871 38ZM64.3314 38L63.3449 37.836L63.1515 39H64.3314V38ZM66.1354 27.1477L67.1219 27.3117L67.1688 27.0294L67.0592 26.765L66.1354 27.1477ZM58.5786 9.90909H64.5303V7.90909H58.5786V9.90909ZM63.5978 9.27034L68.5836 22.1397L70.4485 21.4172L65.4627 8.54784L63.5978 9.27034ZM69.5161 22.7784H69.8286V20.7784H69.5161V22.7784ZM70.6415 22.3607L79.8603 9.49143L78.2344 8.32675L69.0156 21.1961L70.6415 22.3607ZM79.0473 9.90909H84.999V7.90909H79.0473V9.90909ZM84.1975 8.31109L70.5896 26.5497L72.1926 27.7457L85.8005 9.50709L84.1975 8.31109ZM70.4046 26.9837L68.6006 37.836L70.5736 38.164L72.3775 27.3117L70.4046 26.9837ZM69.5871 37H64.3314V39H69.5871V37ZM65.3179 38.164L67.1219 27.3117L65.1489 26.9837L63.3449 37.836L65.3179 38.164ZM67.0592 26.765L59.5024 8.52631L57.6547 9.29187L65.2115 27.5305L67.0592 26.765ZM83.8165 37.0057L83.2618 37.8377L83.2643 37.8394L83.8165 37.0057ZM80.8193 33.0142L79.8717 33.3336L79.8717 33.3336L80.8193 33.0142ZM80.5068 27.0483L79.5202 26.8853L79.5199 26.8872L80.5068 27.0483ZM82.7227 21.1818L81.8907 20.6271L81.8885 20.6304L82.7227 21.1818ZM86.9415 17.2898L87.4179 18.169L87.4197 18.168L86.9415 17.2898ZM98.021 17.3324L97.4625 18.1619L97.4663 18.1644L98.021 17.3324ZM101.018 21.3239L100.071 21.6432L100.072 21.6479L101.018 21.3239ZM101.345 27.3182L100.358 27.1584L100.358 27.1586L101.345 27.3182ZM99.1148 33.1562L98.2864 32.5961L98.2842 32.5994L99.1148 33.1562ZM94.896 37.0483L95.3725 37.9275L95.3763 37.9254L94.896 37.0483ZM92.7512 33.3409L93.3332 34.1541L93.3348 34.1529L92.7512 33.3409ZM94.9813 30.7131L94.0977 30.2448L94.0962 30.2476L94.9813 30.7131ZM96.2029 27.0199L97.1891 27.1854L97.1904 27.1773L96.2029 27.0199ZM96.2171 23.4688L95.2339 23.6515L95.2342 23.653L96.2171 23.4688ZM94.9387 20.9261L94.2368 21.6385L94.2421 21.6437L94.2474 21.6488L94.9387 20.9261ZM89.0864 20.9688L89.67 21.7808L89.6716 21.7796L89.0864 20.9688ZM86.8563 23.6108L87.7414 24.0762L87.743 24.0731L86.8563 23.6108ZM85.6631 27.2898L86.6495 27.4542L86.6504 27.4486L85.6631 27.2898ZM85.6347 30.8409L86.6175 30.6566L86.6175 30.6566L85.6347 30.8409ZM86.9131 33.3693L86.2219 34.092L86.2219 34.092L86.9131 33.3693ZM89.1858 37.4261C87.1828 37.4261 85.5978 36.9859 84.3686 36.1719L83.2643 37.8394C84.8951 38.9194 86.8896 39.4261 89.1858 39.4261V37.4261ZM84.3712 36.1736C83.1462 35.357 82.2785 34.2125 81.767 32.6948L79.8717 33.3336C80.5155 35.2439 81.6459 36.7604 83.2618 37.8377L84.3712 36.1736ZM81.767 32.6948C81.2535 31.1713 81.1439 29.3538 81.4938 27.2093L79.5199 26.8872C79.1312 29.2694 79.2299 31.4291 79.8717 33.3336L81.767 32.6948ZM81.4935 27.2113C81.8428 25.0975 82.5359 23.278 83.557 21.7333L81.8885 20.6304C80.6937 22.4379 79.9095 24.5294 79.5202 26.8853L81.4935 27.2113ZM83.5548 21.7365C84.5861 20.1896 85.8726 19.0064 87.4179 18.169L86.4651 16.4106C84.6203 17.4102 83.0943 18.8218 81.8907 20.6271L83.5548 21.7365ZM87.4197 18.168C88.9648 17.3268 90.7062 16.8977 92.6659 16.8977V14.8977C90.4022 14.8977 88.3273 15.3967 86.4633 16.4115L87.4197 18.168ZM92.6659 16.8977C94.6674 16.8977 96.2448 17.3419 97.4625 18.1619L98.5796 16.5029C96.9564 15.4099 94.9637 14.8977 92.6659 14.8977V16.8977ZM97.4663 18.1644C98.6913 18.9811 99.5591 20.1255 100.071 21.6432L101.966 21.0045C101.322 19.0942 100.192 17.5776 98.5757 16.5003L97.4663 18.1644ZM100.072 21.6479C100.593 23.1694 100.708 24.9948 100.358 27.1584L102.332 27.4779C102.721 25.0772 102.617 22.9063 101.964 20.9998L100.072 21.6479ZM100.358 27.1586C100.018 29.2579 99.3226 31.0636 98.2864 32.5961L99.9432 33.7164C101.161 31.9156 101.952 29.8293 102.332 27.4778L100.358 27.1586ZM98.2842 32.5994C97.2526 34.138 95.9646 35.3232 94.4158 36.1711L95.3763 37.9254C97.2176 36.9173 98.7421 35.5078 99.9454 33.7131L98.2842 32.5994ZM94.4196 36.1691C92.8844 37.001 91.1474 37.4261 89.1858 37.4261V39.4261C91.4477 39.4261 93.5175 38.9327 95.3725 37.9275L94.4196 36.1691ZM89.6119 35.3068C90.9966 35.3068 92.2503 34.9292 93.3332 34.1541L92.1691 32.5278C91.4528 33.0405 90.6137 33.3068 89.6119 33.3068V35.3068ZM93.3348 34.1529C94.3831 33.3995 95.2244 32.3992 95.8664 31.1785L94.0962 30.2476C93.5828 31.2239 92.9374 31.9755 92.1675 32.5289L93.3348 34.1529ZM95.8649 31.1813C96.5067 29.97 96.9457 28.6353 97.1891 27.1854L95.2167 26.8544C95.0054 28.1128 94.63 29.2402 94.0977 30.2448L95.8649 31.1813ZM97.1904 27.1773C97.4128 25.7819 97.4241 24.4801 97.1999 23.2845L95.2342 23.653C95.4077 24.5786 95.4095 25.6442 95.2153 26.8625L97.1904 27.1773ZM97.2002 23.286C96.971 22.0528 96.4636 21.0009 95.6299 20.2035L94.2474 21.6488C94.7206 22.1013 95.0654 22.7446 95.2339 23.6515L97.2002 23.286ZM95.6405 20.2138C94.7628 19.349 93.5888 18.9744 92.254 18.9744V20.9744C93.2109 20.9744 93.8266 21.2343 94.2368 21.6385L95.6405 20.2138ZM92.254 18.9744C90.8626 18.9744 89.5995 19.3652 88.5012 20.1579L89.6716 21.7796C90.4104 21.2465 91.259 20.9744 92.254 20.9744V18.9744ZM88.5027 20.1567C87.4526 20.9116 86.611 21.9182 85.9695 23.1485L87.743 24.0731C88.2568 23.0875 88.902 22.3328 89.67 21.7808L88.5027 20.1567ZM85.9712 23.1454C85.338 24.3494 84.909 25.6809 84.6758 27.131L86.6504 27.4486C86.8528 26.1903 87.2192 25.0692 87.7414 24.0762L85.9712 23.1454ZM84.6767 27.1254C84.4439 28.5223 84.4271 29.8266 84.6518 31.0252L86.6175 30.6566C86.4446 29.734 86.4467 28.6709 86.6495 27.4542L84.6767 27.1254ZM84.6518 31.0252C84.8816 32.2506 85.3899 33.2962 86.2219 34.092L87.6043 32.6467C87.1294 32.1925 86.7855 31.5524 86.6175 30.6566L84.6518 31.0252ZM86.2219 34.092C87.1075 34.9391 88.2805 35.3068 89.6119 35.3068V33.3068C88.6518 33.3068 88.0255 33.0495 87.6043 32.6467L86.2219 34.092ZM119.374 28.8239L118.388 28.6587L118.387 28.6636L119.374 28.8239ZM121.491 16.1818V15.1818H120.644L120.504 16.0167L121.491 16.1818ZM126.633 16.1818L127.619 16.3462L127.813 15.1818H126.633V16.1818ZM122.996 38V39H123.843L123.983 38.1644L122.996 38ZM118.01 38L117.024 37.8338L116.828 39H118.01V38ZM118.664 34.1222L119.65 34.2883L119.846 33.1222H118.664V34.1222ZM118.437 34.1222V33.1222H117.849L117.563 33.6348L118.437 34.1222ZM115.51 37.1193L114.988 36.2663L114.986 36.2681L115.51 37.1193ZM107.542 37.3324L106.994 38.1694L107 38.173L107.542 37.3324ZM105.439 34.5341L104.49 34.8481L104.493 34.8569L105.439 34.5341ZM105.255 30.0739L104.268 29.9085L104.268 29.9129L105.255 30.0739ZM107.584 16.1818V15.1818H106.738L106.598 16.0164L107.584 16.1818ZM112.726 16.1818L113.713 16.3466L113.907 15.1818H112.726V16.1818ZM110.539 29.2784L109.552 29.1137L109.551 29.1228L110.539 29.2784ZM111.135 32.5739L110.338 33.1768L110.342 33.1827L111.135 32.5739ZM116.206 33.2415L115.777 32.3384L115.773 32.3405L116.206 33.2415ZM118.238 31.5938L119.022 32.2147L119.025 32.2098L118.238 31.5938ZM120.36 28.989L122.477 16.3469L120.504 16.0167L118.388 28.6587L120.36 28.989ZM121.491 17.1818H126.633V15.1818H121.491V17.1818ZM125.646 16.0174L122.01 37.8356L123.983 38.1644L127.619 16.3462L125.646 16.0174ZM122.996 37H118.01V39H122.996V37ZM118.996 38.1662L119.65 34.2883L117.678 33.956L117.024 37.8338L118.996 38.1662ZM118.664 33.1222H118.437V35.1222H118.664V33.1222ZM117.563 33.6348C116.971 34.6968 116.12 35.5736 114.988 36.2664L116.032 37.9723C117.438 37.112 118.539 35.9907 119.31 34.6095L117.563 33.6348ZM114.986 36.2681C113.9 36.9371 112.637 37.2841 111.164 37.2841V39.2841C112.967 39.2841 114.601 38.8545 116.035 37.9705L114.986 36.2681ZM111.164 37.2841C109.883 37.2841 108.874 37.0013 108.083 36.4917L107 38.173C108.179 38.9324 109.584 39.2841 111.164 39.2841V37.2841ZM108.089 36.4954C107.309 35.9855 106.738 35.2435 106.386 34.2113L104.493 34.8569C104.974 36.2679 105.805 37.3914 106.994 38.1694L108.089 36.4954ZM106.389 34.2201C106.047 33.1871 105.975 31.8729 106.242 30.2348L104.268 29.9129C103.967 31.7597 104.017 33.4189 104.49 34.8481L106.389 34.2201ZM106.241 30.2392L108.57 16.3472L106.598 16.0164L104.268 29.9085L106.241 30.2392ZM107.584 17.1818H112.726V15.1818H107.584V17.1818ZM111.74 16.0171L109.552 29.1137L111.525 29.4432L113.713 16.3466L111.74 16.0171ZM109.551 29.1228C109.307 30.6712 109.505 32.0752 110.338 33.1768L111.933 31.9709C111.535 31.4438 111.335 30.6508 111.527 29.434L109.551 29.1228ZM110.342 33.1827C111.195 34.2939 112.447 34.7955 113.919 34.7955V32.7955C112.93 32.7955 112.326 32.4826 111.929 31.965L110.342 33.1827ZM113.919 34.7955C114.845 34.7955 115.755 34.5688 116.64 34.1425L115.773 32.3405C115.124 32.6528 114.509 32.7955 113.919 32.7955V34.7955ZM116.636 34.1445C117.562 33.7043 118.357 33.0538 119.021 32.2147L117.454 30.9728C116.963 31.5921 116.404 32.0401 115.777 32.3384L116.636 34.1445ZM119.025 32.2098C119.725 31.3146 120.159 30.2257 120.361 28.9842L118.387 28.6636C118.229 29.6379 117.905 30.3956 117.45 30.9777L119.025 32.2098ZM128.284 38L127.297 37.8356L127.103 39H128.284V38ZM131.92 16.1818V15.1818H131.073L130.934 16.0174L131.92 16.1818ZM136.906 16.1818L137.892 16.3475L138.088 15.1818H136.906V16.1818ZM136.295 19.8182L135.309 19.6525L135.113 20.8182H136.295V19.8182ZM136.522 19.8182V20.8182H137.155L137.426 20.2463L136.522 19.8182ZM139.051 16.9062L139.582 17.7538L139.583 17.7526L139.051 16.9062ZM143.525 15.9119L143.442 16.9085L143.456 16.9096L143.47 16.9104L143.525 15.9119ZM144.406 16.0114L145.392 16.1772L145.554 15.2138L144.595 15.0294L144.406 16.0114ZM143.611 20.7415L143.282 21.686L144.4 22.075L144.597 20.9073L143.611 20.7415ZM142.588 20.5426L142.443 21.5321L142.455 21.5338L142.466 21.5352L142.588 20.5426ZM138.625 21.054L139.072 21.9484L139.076 21.9463L138.625 21.054ZM135.542 25.1733L134.557 25.0024L134.556 25.0105L135.542 25.1733ZM133.426 38V39H134.274L134.413 38.1628L133.426 38ZM129.27 38.1644L132.907 16.3462L130.934 16.0174L127.297 37.8356L129.27 38.1644ZM131.92 17.1818H136.906V15.1818H131.92V17.1818ZM135.92 16.0162L135.309 19.6525L137.281 19.9838L137.892 16.3475L135.92 16.0162ZM136.295 20.8182H136.522V18.8182H136.295V20.8182ZM137.426 20.2463C137.948 19.1442 138.668 18.3257 139.582 17.7538L138.52 16.0587C137.256 16.8504 136.29 17.9733 135.619 19.3901L137.426 20.2463ZM139.583 17.7526C140.529 17.1577 141.52 16.8693 142.574 16.8693V14.8693C141.128 14.8693 139.77 15.2723 138.518 16.0599L139.583 17.7526ZM142.574 16.8693C142.835 16.8693 143.125 16.882 143.442 16.9085L143.608 14.9154C143.244 14.885 142.899 14.8693 142.574 14.8693V16.8693ZM143.47 16.9104C143.781 16.9277 144.027 16.9569 144.217 16.9934L144.595 15.0294C144.292 14.9711 143.952 14.9341 143.581 14.9135L143.47 16.9104ZM143.42 15.8455L142.624 20.5756L144.597 20.9073L145.392 16.1772L143.42 15.8455ZM143.939 19.797C143.616 19.6846 143.187 19.6086 142.709 19.55L142.466 21.5352C142.916 21.5903 143.169 21.6468 143.282 21.686L143.939 19.797ZM142.732 19.5531C142.231 19.48 141.733 19.4432 141.238 19.4432V21.4432C141.634 21.4432 142.035 21.4726 142.443 21.5321L142.732 19.5531ZM141.238 19.4432C140.15 19.4432 139.124 19.6809 138.173 20.1617L139.076 21.9463C139.736 21.6127 140.451 21.4432 141.238 21.4432V19.4432ZM138.178 20.1595C137.246 20.6251 136.457 21.2762 135.817 22.1042L137.399 23.3277C137.857 22.7351 138.412 22.2783 139.072 21.9484L138.178 20.1595ZM135.817 22.1042C135.163 22.9497 134.744 23.9219 134.557 25.0024L136.528 25.3442C136.662 24.5686 136.954 23.9026 137.399 23.3277L135.817 22.1042ZM134.556 25.0105L132.439 37.8372L134.413 38.1628L136.529 25.3361L134.556 25.0105ZM133.426 37H128.284V39H133.426V37ZM164.076 8.90909L165.062 9.07286L165.255 7.90909H164.076V8.90909ZM159.246 38V39H160.094L160.233 38.1638L159.246 38ZM154.104 38L153.118 37.8362L152.924 39H154.104V38ZM158.934 8.90909V7.90909H158.086L157.947 8.74532L158.934 8.90909ZM163.089 8.74532L158.26 37.8362L160.233 38.1638L165.062 9.07286L163.089 8.74532ZM159.246 37H154.104V39H159.246V37ZM155.091 38.1638L159.92 9.07286L157.947 8.74532L153.118 37.8362L155.091 38.1638ZM158.934 9.90909H164.076V7.90909H158.934V9.90909ZM168.738 37.0057L168.184 37.8377L168.186 37.8394L168.738 37.0057ZM165.741 33.0142L164.794 33.3336L164.794 33.3336L165.741 33.0142ZM165.429 27.0483L164.442 26.8853L164.442 26.8872L165.429 27.0483ZM167.645 21.1818L166.813 20.6271L166.81 20.6304L167.645 21.1818ZM171.863 17.2898L172.34 18.169L172.342 18.168L171.863 17.2898ZM182.943 17.3324L182.384 18.1619L182.388 18.1644L182.943 17.3324ZM185.94 21.3239L184.992 21.6432L184.994 21.6479L185.94 21.3239ZM186.267 27.3182L185.28 27.1584L185.28 27.1586L186.267 27.3182ZM184.037 33.1562L183.208 32.5961L183.206 32.5994L184.037 33.1562ZM179.818 37.0483L180.294 37.9275L180.298 37.9254L179.818 37.0483ZM177.673 33.3409L178.255 34.1541L178.257 34.1529L177.673 33.3409ZM179.903 30.7131L179.02 30.2448L179.018 30.2476L179.903 30.7131ZM181.125 27.0199L182.111 27.1854L182.112 27.1773L181.125 27.0199ZM181.139 23.4688L180.156 23.6515L180.156 23.653L181.139 23.4688ZM179.861 20.9261L179.159 21.6385L179.164 21.6437L179.169 21.6488L179.861 20.9261ZM174.008 20.9688L174.592 21.7808L174.593 21.7796L174.008 20.9688ZM171.778 23.6108L172.663 24.0762L172.665 24.0731L171.778 23.6108ZM170.585 27.2898L171.571 27.4542L171.572 27.4486L170.585 27.2898ZM170.557 30.8409L171.539 30.6566L171.539 30.6566L170.557 30.8409ZM171.835 33.3693L171.144 34.092L171.144 34.092L171.835 33.3693ZM174.108 37.4261C172.105 37.4261 170.52 36.9859 169.291 36.1719L168.186 37.8394C169.817 38.9194 171.811 39.4261 174.108 39.4261V37.4261ZM169.293 36.1736C168.068 35.357 167.2 34.2125 166.689 32.6948L164.794 33.3336C165.437 35.2439 166.568 36.7604 168.184 37.8377L169.293 36.1736ZM166.689 32.6948C166.175 31.1713 166.066 29.3538 166.416 27.2093L164.442 26.8872C164.053 29.2694 164.152 31.4291 164.794 33.3336L166.689 32.6948ZM166.415 27.2113C166.765 25.0975 167.458 23.278 168.479 21.7333L166.81 20.6304C165.616 22.4379 164.831 24.5294 164.442 26.8853L166.415 27.2113ZM168.477 21.7365C169.508 20.1896 170.794 19.0064 172.34 18.169L171.387 16.4106C169.542 17.4102 168.016 18.8218 166.813 20.6271L168.477 21.7365ZM172.342 18.168C173.887 17.3268 175.628 16.8977 177.588 16.8977V14.8977C175.324 14.8977 173.249 15.3967 171.385 16.4115L172.342 18.168ZM177.588 16.8977C179.589 16.8977 181.167 17.3419 182.384 18.1619L183.501 16.5029C181.878 15.4099 179.886 14.8977 177.588 14.8977V16.8977ZM182.388 18.1644C183.613 18.9811 184.481 20.1255 184.992 21.6432L186.888 21.0045C186.244 19.0942 185.114 17.5776 183.498 16.5003L182.388 18.1644ZM184.994 21.6479C185.515 23.1694 185.63 24.9948 185.28 27.1584L187.254 27.4779C187.642 25.0772 187.539 22.9063 186.886 20.9998L184.994 21.6479ZM185.28 27.1586C184.94 29.2579 184.244 31.0636 183.208 32.5961L184.865 33.7164C186.083 31.9156 186.874 29.8293 187.254 27.4778L185.28 27.1586ZM183.206 32.5994C182.174 34.138 180.886 35.3232 179.338 36.1711L180.298 37.9254C182.14 36.9173 183.664 35.5078 184.867 33.7131L183.206 32.5994ZM179.341 36.1691C177.806 37.001 176.069 37.4261 174.108 37.4261V39.4261C176.37 39.4261 178.439 38.9327 180.294 37.9275L179.341 36.1691ZM174.534 35.3068C175.918 35.3068 177.172 34.9292 178.255 34.1541L177.091 32.5278C176.375 33.0405 175.536 33.3068 174.534 33.3068V35.3068ZM178.257 34.1529C179.305 33.3995 180.146 32.3992 180.788 31.1785L179.018 30.2476C178.505 31.2239 177.859 31.9755 177.089 32.5289L178.257 34.1529ZM180.787 31.1813C181.429 29.97 181.868 28.6353 182.111 27.1854L180.139 26.8544C179.927 28.1128 179.552 29.2402 179.02 30.2448L180.787 31.1813ZM182.112 27.1773C182.335 25.7819 182.346 24.4801 182.122 23.2845L180.156 23.653C180.33 24.5786 180.331 25.6442 180.137 26.8625L182.112 27.1773ZM182.122 23.286C181.893 22.0528 181.385 21.0009 180.552 20.2035L179.169 21.6488C179.642 22.1013 179.987 22.7446 180.156 23.6515L182.122 23.286ZM180.562 20.2138C179.685 19.349 178.511 18.9744 177.176 18.9744V20.9744C178.133 20.9744 178.748 21.2343 179.159 21.6385L180.562 20.2138ZM177.176 18.9744C175.785 18.9744 174.521 19.3652 173.423 20.1579L174.593 21.7796C175.332 21.2465 176.181 20.9744 177.176 20.9744V18.9744ZM173.425 20.1567C172.374 20.9116 171.533 21.9182 170.891 23.1485L172.665 24.0731C173.179 23.0875 173.824 22.3328 174.592 21.7808L173.425 20.1567ZM170.893 23.1454C170.26 24.3494 169.831 25.6809 169.598 27.131L171.572 27.4486C171.775 26.1903 172.141 25.0692 172.663 24.0762L170.893 23.1454ZM169.599 27.1254C169.366 28.5223 169.349 29.8266 169.574 31.0252L171.539 30.6566C171.366 29.734 171.369 28.6709 171.571 27.4542L169.599 27.1254ZM169.574 31.0252C169.803 32.2506 170.312 33.2962 171.144 34.092L172.526 32.6467C172.051 32.1925 171.707 31.5524 171.539 30.6566L169.574 31.0252ZM171.144 34.092C172.029 34.9391 173.202 35.3068 174.534 35.3068V33.3068C173.574 33.3068 172.947 33.0495 172.526 32.6467L171.144 34.092ZM192.35 45.8835L192.725 44.9565L192.719 44.9541L192.35 45.8835ZM189.481 43.8949L190.259 43.267L190.259 43.267L189.481 43.8949ZM188.231 41.125L188.004 40.1509L187.097 40.3618L187.243 41.2819L188.231 41.125ZM193.06 40.0028L194.009 39.6866L193.721 38.8227L192.834 39.0288L193.06 40.0028ZM193.742 41.267L192.942 41.867L192.944 41.8699L193.742 41.267ZM195.162 42.3182L195.576 41.4077L195.565 41.4027L195.162 42.3182ZM201.483 41.679L200.937 40.8414L200.937 40.8414L201.483 41.679ZM203.5 38.2131L204.488 38.3708L204.488 38.3692L203.5 38.2131ZM204.154 34.0795L205.142 34.2357L205.324 33.0795H204.154V34.0795ZM203.898 34.0795V33.0795H203.352L203.057 33.5388L203.898 34.0795ZM202.492 35.7131L201.808 34.9831L201.803 34.9887L202.492 35.7131ZM200.262 37.1193L199.874 36.1977L199.87 36.1992L200.262 37.1193ZM192.691 36.5085L192.148 37.3485L192.153 37.3514L192.691 36.5085ZM190.035 32.9574L189.086 33.2753L189.089 33.2821L190.035 32.9574ZM189.836 27.0199L190.822 27.1849L190.823 27.1799L189.836 27.0199ZM192.023 20.9545L191.185 20.4087L191.185 20.4099L192.023 20.9545ZM195.901 17.1903L196.394 18.0606L196.398 18.0582L195.901 17.1903ZM203.728 16.5511L203.229 17.4181L203.237 17.4227L203.728 16.5511ZM205.446 18.0994L204.604 18.6389L204.608 18.6449L205.446 18.0994ZM206.299 19.7898L205.352 20.1111L205.582 20.7898H206.299V19.7898ZM206.569 19.7898V20.7898H207.417L207.555 19.9529L206.569 19.7898ZM207.165 16.1818V15.1818H206.317L206.179 16.0187L207.165 16.1818ZM212.236 16.1818L213.223 16.3449L213.415 15.1818H212.236V16.1818ZM208.571 38.3551L207.585 38.192L207.584 38.1948L208.571 38.3551ZM206.483 42.9858L205.737 42.3204L205.734 42.3232L206.483 42.9858ZM202.378 45.7273L202.038 44.787L202.031 44.7894L202.378 45.7273ZM202.023 32.858L202.547 33.7096L202.547 33.7096L202.023 32.858ZM205.39 26.9915L204.403 26.8282L204.403 26.8303L205.39 26.9915ZM205.361 23.3835L204.387 23.6071L204.389 23.6155L205.361 23.3835ZM203.983 20.983L203.337 21.746L203.343 21.7512L203.983 20.983ZM198.302 21.0114L197.732 20.1892L197.728 20.1921L198.302 21.0114ZM196.199 23.4688L195.315 23.0023L195.313 23.0054L196.199 23.4688ZM195.063 26.9915L194.076 26.8282L194.075 26.8373L195.063 26.9915ZM195.063 30.5L194.084 30.7032L194.086 30.714L195.063 30.5ZM196.384 32.8295L195.739 33.5942L195.745 33.5991L195.751 33.604L196.384 32.8295ZM196.995 45.6364C195.221 45.6364 193.81 45.3954 192.725 44.9565L191.975 46.8105C193.371 47.3754 195.056 47.6364 196.995 47.6364V45.6364ZM192.719 44.9541C191.599 44.5097 190.799 43.937 190.259 43.267L188.702 44.5228C189.506 45.5195 190.619 46.2725 191.981 46.813L192.719 44.9541ZM190.259 43.267C189.691 42.5635 189.351 41.8011 189.218 40.9681L187.243 41.2819C187.433 42.4754 187.925 43.5596 188.702 44.5228L190.259 43.267ZM188.457 42.0991L193.286 40.9769L192.834 39.0288L188.004 40.1509L188.457 42.0991ZM192.111 40.3191C192.292 40.862 192.575 41.3778 192.942 41.867L194.542 40.667C194.284 40.3229 194.112 39.996 194.009 39.6866L192.111 40.3191ZM192.944 41.8699C193.394 42.4651 194.021 42.9091 194.76 43.2337L195.565 41.4027C195.053 41.1781 194.734 40.9212 194.54 40.6642L192.944 41.8699ZM194.749 43.2285C195.553 43.5942 196.545 43.7443 197.662 43.7443V41.7443C196.697 41.7443 196.022 41.6103 195.576 41.4078L194.749 43.2285ZM197.662 43.7443C199.29 43.7443 200.759 43.3454 202.03 42.5166L200.937 40.8414C200.03 41.433 198.951 41.7443 197.662 41.7443V43.7443ZM202.03 42.5166C203.411 41.6156 204.2 40.1761 204.488 38.3708L202.513 38.0553C202.29 39.4508 201.734 40.3219 200.937 40.8414L202.03 42.5166ZM204.488 38.3692L205.142 34.2357L203.166 33.9234L202.513 38.0569L204.488 38.3692ZM204.154 33.0795H203.898V35.0795H204.154V33.0795ZM203.057 33.5388C202.772 33.9829 202.362 34.4651 201.808 34.9832L203.175 36.443C203.815 35.8436 204.343 35.2368 204.739 34.6203L203.057 33.5388ZM201.803 34.9887C201.319 35.4488 200.684 35.8565 199.874 36.1977L200.65 38.041C201.639 37.6245 202.491 37.0947 203.181 36.4375L201.803 34.9887ZM199.87 36.1992C199.134 36.5123 198.205 36.6875 197.052 36.6875V38.6875C198.399 38.6875 199.609 38.4839 200.653 38.0395L199.87 36.1992ZM197.052 36.6875C195.537 36.6875 194.277 36.3345 193.229 35.6657L192.153 37.3514C193.567 38.2545 195.214 38.6875 197.052 38.6875V36.6875ZM193.234 35.6686C192.216 35.0109 191.458 34.0224 190.98 32.6326L189.089 33.2821C189.691 35.0363 190.704 36.4152 192.148 37.3484L193.234 35.6686ZM190.983 32.6395C190.522 31.2672 190.44 29.4672 190.822 27.1849L188.849 26.8549C188.436 29.3263 188.486 31.4847 189.086 33.2753L190.983 32.6395ZM190.823 27.1799C191.194 24.8898 191.883 23.0064 192.862 21.4992L191.185 20.4099C190.023 22.1982 189.254 24.3583 188.849 26.8599L190.823 27.1799ZM192.861 21.5004C193.866 19.9581 195.046 18.8233 196.394 18.0606L195.408 16.3201C193.745 17.2619 192.34 18.6366 191.185 20.4087L192.861 21.5004ZM196.398 18.0582C197.758 17.2799 199.178 16.8977 200.674 16.8977V14.8977C198.817 14.8977 197.056 15.3773 195.404 16.3224L196.398 18.0582ZM200.674 16.8977C201.853 16.8977 202.678 17.1009 203.229 17.418L204.226 15.6842C203.263 15.1302 202.051 14.8977 200.674 14.8977V16.8977ZM203.237 17.4227C203.882 17.7851 204.321 18.1965 204.604 18.6389L206.288 17.56C205.795 16.7903 205.089 16.1694 204.218 15.6796L203.237 17.4227ZM204.608 18.6449C204.963 19.1895 205.205 19.6777 205.352 20.1111L207.246 19.4685C207.033 18.8413 206.707 18.2026 206.285 17.554L204.608 18.6449ZM206.299 20.7898H206.569V18.7898H206.299V20.7898ZM207.555 19.9529L208.152 16.345L206.179 16.0187L205.582 19.6266L207.555 19.9529ZM207.165 17.1818H212.236V15.1818H207.165V17.1818ZM211.25 16.0188L207.585 38.192L209.558 38.5182L213.223 16.3449L211.25 16.0188ZM207.584 38.1948C207.307 39.9022 206.681 41.2617 205.737 42.3204L207.23 43.6512C208.464 42.2667 209.23 40.5391 209.559 38.5154L207.584 38.1948ZM205.734 42.3232C204.764 43.4207 203.539 44.2435 202.038 44.787L202.719 46.6675C204.513 46.0179 206.025 45.013 207.232 43.6484L205.734 42.3232ZM202.031 44.7894C200.516 45.3499 198.841 45.6364 196.995 45.6364V47.6364C199.05 47.6364 200.964 47.3168 202.725 46.6652L202.031 44.7894ZM199.097 34.6534C200.356 34.6534 201.516 34.3443 202.547 33.7096L201.499 32.0063C200.807 32.4322 200.016 32.6534 199.097 32.6534V34.6534ZM202.547 33.7096C203.568 33.0816 204.398 32.1907 205.047 31.0734L203.318 30.0687C202.811 30.9399 202.202 31.5737 201.499 32.0063L202.547 33.7096ZM205.047 31.0734C205.698 29.9528 206.134 28.6385 206.377 27.1526L204.403 26.8303C204.191 28.1285 203.822 29.2006 203.318 30.0687L205.047 31.0734ZM206.376 27.1548C206.619 25.6892 206.619 24.3468 206.334 23.1515L204.389 23.6155C204.596 24.4847 204.615 25.5475 204.403 26.8282L206.376 27.1548ZM206.336 23.16C206.06 21.957 205.504 20.9486 204.624 20.2147L203.343 21.7512C203.826 22.1537 204.189 22.7456 204.387 23.6071L206.336 23.16ZM204.63 20.22C203.729 19.4565 202.592 19.1165 201.313 19.1165V21.1165C202.231 21.1165 202.875 21.3541 203.337 21.7459L204.63 20.22ZM201.313 19.1165C199.984 19.1165 198.777 19.466 197.732 20.1892L198.871 21.8336C199.55 21.3636 200.351 21.1165 201.313 21.1165V19.1165ZM197.728 20.1921C196.729 20.8913 195.928 21.8387 195.315 23.0023L197.084 23.9352C197.569 23.0154 198.169 22.3246 198.875 21.8306L197.728 20.1921ZM195.313 23.0054C194.718 24.1442 194.309 25.4222 194.076 26.8282L196.05 27.1547C196.252 25.9282 196.601 24.8577 197.085 23.9321L195.313 23.0054ZM194.075 26.8373C193.854 28.2556 193.845 29.551 194.084 30.7032L196.042 30.2968C195.865 29.4414 195.856 28.3978 196.051 27.1456L194.075 26.8373ZM194.086 30.714C194.343 31.8845 194.88 32.8698 195.739 33.5942L197.028 32.0649C196.562 31.6718 196.219 31.1041 196.04 30.286L194.086 30.714ZM195.751 33.604C196.651 34.3389 197.802 34.6534 199.097 34.6534V32.6534C198.119 32.6534 197.462 32.4187 197.017 32.0551L195.751 33.604ZM218.074 37.0057L217.52 37.8377L217.522 37.8394L218.074 37.0057ZM215.077 33.0142L214.13 33.3336L214.13 33.3336L215.077 33.0142ZM214.765 27.0483L213.778 26.8853L213.778 26.8872L214.765 27.0483ZM216.981 21.1818L216.149 20.6271L216.146 20.6304L216.981 21.1818ZM221.199 17.2898L221.676 18.169L221.677 18.168L221.199 17.2898ZM232.279 17.3324L231.72 18.1619L231.724 18.1644L232.279 17.3324ZM235.276 21.3239L234.328 21.6432L234.33 21.6479L235.276 21.3239ZM235.603 27.3182L234.616 27.1584L234.616 27.1586L235.603 27.3182ZM233.373 33.1562L232.544 32.5961L232.542 32.5994L233.373 33.1562ZM229.154 37.0483L229.63 37.9275L229.634 37.9254L229.154 37.0483ZM227.009 33.3409L227.591 34.1541L227.593 34.1529L227.009 33.3409ZM229.239 30.7131L228.355 30.2448L228.354 30.2476L229.239 30.7131ZM230.461 27.0199L231.447 27.1854L231.448 27.1773L230.461 27.0199ZM230.475 23.4688L229.492 23.6515L229.492 23.653L230.475 23.4688ZM229.196 20.9261L228.495 21.6385L228.5 21.6437L228.505 21.6488L229.196 20.9261ZM223.344 20.9688L223.928 21.7808L223.929 21.7796L223.344 20.9688ZM221.114 23.6108L221.999 24.0762L222.001 24.0731L221.114 23.6108ZM219.921 27.2898L220.907 27.4542L220.908 27.4486L219.921 27.2898ZM219.892 30.8409L220.875 30.6566L220.875 30.6566L219.892 30.8409ZM221.171 33.3693L220.48 34.092L220.48 34.092L221.171 33.3693ZM223.444 37.4261C221.441 37.4261 219.856 36.9859 218.626 36.1719L217.522 37.8394C219.153 38.9194 221.147 39.4261 223.444 39.4261V37.4261ZM218.629 36.1736C217.404 35.357 216.536 34.2125 216.025 32.6948L214.13 33.3336C214.773 35.2439 215.904 36.7604 217.52 37.8377L218.629 36.1736ZM216.025 32.6948C215.511 31.1713 215.402 29.3538 215.752 27.2093L213.778 26.8872C213.389 29.2694 213.488 31.4291 214.13 33.3336L216.025 32.6948ZM215.751 27.2113C216.101 25.0975 216.794 23.278 217.815 21.7333L216.146 20.6304C214.952 22.4379 214.167 24.5294 213.778 26.8853L215.751 27.2113ZM217.813 21.7365C218.844 20.1896 220.13 19.0064 221.676 18.169L220.723 16.4106C218.878 17.4102 217.352 18.8218 216.149 20.6271L217.813 21.7365ZM221.677 18.168C223.223 17.3268 224.964 16.8977 226.924 16.8977V14.8977C224.66 14.8977 222.585 15.3967 220.721 16.4115L221.677 18.168ZM226.924 16.8977C228.925 16.8977 230.503 17.3419 231.72 18.1619L232.837 16.5029C231.214 15.4099 229.221 14.8977 226.924 14.8977V16.8977ZM231.724 18.1644C232.949 18.9811 233.817 20.1255 234.328 21.6432L236.224 21.0045C235.58 19.0942 234.449 17.5776 232.834 16.5003L231.724 18.1644ZM234.33 21.6479C234.851 23.1694 234.966 24.9948 234.616 27.1584L236.59 27.4779C236.978 25.0772 236.875 22.9063 236.222 20.9998L234.33 21.6479ZM234.616 27.1586C234.276 29.2579 233.58 31.0636 232.544 32.5961L234.201 33.7164C235.419 31.9156 236.21 29.8293 236.59 27.4778L234.616 27.1586ZM232.542 32.5994C231.51 34.138 230.222 35.3232 228.674 36.1711L229.634 37.9254C231.475 36.9173 233 35.5078 234.203 33.7131L232.542 32.5994ZM228.677 36.1691C227.142 37.001 225.405 37.4261 223.444 37.4261V39.4261C225.706 39.4261 227.775 38.9327 229.63 37.9275L228.677 36.1691ZM223.87 35.3068C225.254 35.3068 226.508 34.9292 227.591 34.1541L226.427 32.5278C225.711 33.0405 224.871 33.3068 223.87 33.3068V35.3068ZM227.593 34.1529C228.641 33.3995 229.482 32.3992 230.124 31.1785L228.354 30.2476C227.841 31.2239 227.195 31.9755 226.425 32.5289L227.593 34.1529ZM230.123 31.1813C230.765 29.97 231.204 28.6353 231.447 27.1854L229.474 26.8544C229.263 28.1128 228.888 29.2402 228.355 30.2448L230.123 31.1813ZM231.448 27.1773C231.671 25.7819 231.682 24.4801 231.458 23.2845L229.492 23.653C229.666 24.5786 229.667 25.6442 229.473 26.8625L231.448 27.1773ZM231.458 23.286C231.229 22.0528 230.721 21.0009 229.888 20.2035L228.505 21.6488C228.978 22.1013 229.323 22.7446 229.492 23.6515L231.458 23.286ZM229.898 20.2138C229.021 19.349 227.847 18.9744 226.512 18.9744V20.9744C227.469 20.9744 228.084 21.2343 228.495 21.6385L229.898 20.2138ZM226.512 18.9744C225.12 18.9744 223.857 19.3652 222.759 20.1579L223.929 21.7796C224.668 21.2465 225.517 20.9744 226.512 20.9744V18.9744ZM222.761 20.1567C221.71 20.9116 220.869 21.9182 220.227 23.1485L222.001 24.0731C222.515 23.0875 223.16 22.3328 223.928 21.7808L222.761 20.1567ZM220.229 23.1454C219.596 24.3494 219.167 25.6809 218.934 27.131L220.908 27.4486C221.111 26.1903 221.477 25.0692 221.999 24.0762L220.229 23.1454ZM218.935 27.1254C218.702 28.5223 218.685 29.8266 218.91 31.0252L220.875 30.6566C220.702 29.734 220.705 28.6709 220.907 27.4542L218.935 27.1254ZM218.91 31.0252C219.139 32.2506 219.648 33.2962 220.48 34.092L221.862 32.6467C221.387 32.1925 221.043 31.5524 220.875 30.6566L218.91 31.0252ZM220.48 34.092C221.365 34.9391 222.538 35.3068 223.87 35.3068V33.3068C222.91 33.3068 222.283 33.0495 221.862 32.6467L220.48 34.092Z" fill="black" mask="url(#path-2-outside-1_423_57)"/>
<path d="M26.8336 4C32.7999 4 37.6542 11.2113 37.6542 20.0764C37.6542 24.6561 36.3516 28.7801 34.2744 31.7062C34.3527 32.1454 34.3374 32.5973 34.2297 33.0297C34.1221 33.4621 33.9246 33.8644 33.6513 34.2081C33.3781 34.5518 33.0357 34.8284 32.6487 35.0184C32.2616 35.2083 31.8392 35.3068 31.4115 35.307C30.6389 35.307 29.8979 34.9863 29.3516 34.4155C28.8052 33.8447 28.4983 33.0705 28.4983 32.2633C28.4983 31.456 28.8052 30.6818 29.3516 30.111C29.8979 29.5402 30.6389 29.2195 31.4115 29.2195C31.5701 29.2208 31.7283 29.2355 31.8846 29.2637C33.3729 26.9474 34.3248 23.6638 34.3248 20.0764C34.3248 13.2472 30.8938 7.47856 26.8336 7.47856C23.4051 7.47856 20.4335 11.5985 19.5895 16.9902C18.4059 17.345 17.2268 17.825 16.0715 18.4051C16.6359 10.3227 21.2468 4 26.8336 4ZM28.0821 17.0446C28.8548 17.0446 29.5958 17.3653 30.1421 17.9361C30.6884 18.5069 30.9954 19.2811 30.9954 20.0883C30.9954 20.8956 30.6884 21.6698 30.1421 22.2406C29.5958 22.8114 28.8548 23.1321 28.0821 23.1321C27.5375 23.1318 27.0039 22.972 26.5419 22.6708C26.0798 22.3697 25.7078 21.9393 25.468 21.4284C22.7631 21.2515 19.637 22.1234 16.7511 23.9304C11.0411 27.5072 7.93599 33.7617 9.97192 37.5881C10.6411 38.8456 11.8468 39.75 13.459 40.2004C15.7805 40.8492 18.6272 40.5193 21.4314 39.341C22.3212 40.2054 23.2995 41.0169 24.3674 41.7631C21.5974 43.2249 18.6678 44 15.961 44C14.7874 44 13.6545 43.8558 12.5974 43.5601C10.0945 42.86 8.17979 41.3792 7.06194 39.2781C4.07878 33.6698 7.58298 25.6177 15.0392 20.9478C18.5871 18.7246 22.5174 17.7001 25.972 17.9958C26.2436 17.696 26.5707 17.4571 26.9335 17.2936C27.2963 17.1301 27.6871 17.0454 28.0821 17.0446ZM39.1856 22.5444C45.0795 27.3022 47.6075 34.2629 44.9389 39.2781C43.8211 41.3792 41.9063 42.86 39.4034 43.5601C38.3455 43.8558 37.2152 44 36.0399 44C32.8769 44 29.4055 42.9508 26.2451 40.9715C22.7094 38.7568 20.0951 35.7798 18.6125 32.6658C17.1549 32.4999 16.013 31.2206 16.013 29.6544C16.013 27.9759 17.3198 26.6106 18.9262 26.6106C20.5327 26.6106 21.8395 27.9759 21.8395 29.6544C21.8395 30.1242 21.7295 30.5645 21.5469 30.9622C22.7487 33.5492 24.9912 36.1292 27.957 37.9873C31.5327 40.2275 35.4904 41.0553 38.5435 40.2004C40.1549 39.75 41.3597 38.8456 42.0289 37.5881C43.6387 34.5618 42.0271 30.0226 38.4622 26.4849C38.8043 25.2326 39.0491 23.9141 39.1856 22.5444Z" fill="black"/>
</g>
<defs>
<clipPath id="clip0_423_57">
<rect width="236" height="50" fill="white"/>
</clipPath>
</defs>
</svg>
